<svg xmlns="http://www.w3.org/2000/svg" width="400" height="400" viewBox="0 0 400 400" version="1.1"><path d="M 193 59.500 L 193 119 161 119 L 129 119 129 125.500 L 129 132 161 132 L 193 132 193 140.500 L 193 149 164.952 149 L 136.905 149 137.202 155.250 L 137.500 161.500 165.250 161.766 L 193 162.032 193.001 170.266 L 193.003 178.500 177.501 178.201 L 162 177.902 162 185 L 162 192.098 177.501 191.799 L 193.003 191.500 193.001 199.736 L 193 207.972 161.250 208.236 L 129.500 208.500 129.500 215 L 129.500 221.500 161.250 221.500 L 193.001 221.500 193 244.750 L 193 268 187.500 268 L 182 268 182 274.500 L 182 281 187.500 281 L 193 281 193 340.500 L 193 400 199.500 400 L 206 400 206 340.500 L 206 281 213 281 L 220 281 220 274.500 L 220 268 212.982 268 L 205.963 268 206.232 244.845 L 206.500 221.690 212 221.595 L 217.500 221.500 217.500 215 L 217.500 208.500 211.750 208.200 L 206 207.900 206 199.950 L 206 192 222 192 L 238 192 238 184.956 L 238 177.912 222.250 178.054 L 206.500 178.195 206.232 155.098 L 205.963 132 210.982 132 L 216 132 216 125.500 L 216 119 211 119 L 206 119 206 59.500 L 206 0 199.500 0 L 193 0 193 59.500 M 170 95.500 L 170 102 179.500 102 L 189 102 189 95.500 L 189 89 179.500 89 L 170 89 170 95.500 M 121.667 238.667 C 121.300 239.033, 121 241.958, 121 245.167 L 121 251 152 251 L 183 251 183 244.500 L 183 238 152.667 238 C 135.983 238, 122.033 238.300, 121.667 238.667 M 166.723 298.775 L 159.998 305.552 166.971 312.471 C 170.806 316.276, 174.069 319.178, 174.222 318.919 C 174.375 318.660, 177.312 315.522, 180.750 311.947 L 187 305.446 180.224 298.722 L 173.448 291.998 166.723 298.775" stroke="none" fill="#0454b4" fill-rule="evenodd"/><path d="M 173 1 C 172.175 1.533, 170.351 1.976, 168.947 1.985 C 164.345 2.012, 138.704 8.787, 129.038 12.530 C 108.935 20.313, 90.816 30.770, 74 44.295 C 37.820 73.394, 13.308 113.766, 3.295 160.744 C 0.727 172.797, 0.577 174.960, 0.577 200 C 0.577 225.040, 0.727 227.203, 3.295 239.256 C 11.960 279.911, 32.363 317.086, 60.935 344.276 C 90.403 372.318, 124.703 389.790, 165.500 397.538 C 169.350 398.269, 173.518 399.176, 174.763 399.554 L 177.027 400.240 176.763 366.018 L 176.500 331.796 167.500 329.515 C 142.753 323.241, 121.678 311.043, 103.642 292.555 C 77.405 265.660, 63.163 225.314, 66.823 188.250 C 72.491 130.861, 112.098 84.532, 167.500 70.485 L 176.500 68.204 176.763 34.102 C 177.037 -1.391, 177.014 -1.594, 173 1 M 223.237 33.982 L 223.500 68.204 232.704 70.530 C 283.341 83.329, 320.570 123.052, 331.550 176 C 334.151 188.541, 333.948 212.235, 331.125 225.688 C 325.508 252.459, 313.643 274.851, 295.143 293.595 C 277.575 311.395, 256.649 323.418, 232.704 329.470 L 223.500 331.796 223.237 366.018 L 222.973 400.240 225.237 399.554 C 226.482 399.176, 230.650 398.276, 234.500 397.552 C 304.966 384.316, 361.967 337.220, 387.361 271.251 C 392.012 259.169, 397.674 236.021, 398.971 223.789 C 400.290 211.343, 400.290 188.657, 398.971 176.211 C 397.674 163.979, 392.012 140.831, 387.361 128.749 C 361.967 62.780, 304.966 15.684, 234.500 2.448 C 230.650 1.724, 226.482 0.824, 225.237 0.446 L 222.973 -0.240 223.237 33.982" stroke="none" fill="#042c64" fill-rule="evenodd"/></svg>