<svg xmlns="http://www.w3.org/2000/svg" width="500" height="500" viewBox="0 0 500 500" version="1.1"><path d="M 347.556 85.250 C 350.557 89.237, 354.247 94.861, 355.756 97.748 L 358.500 102.995 397.500 102.994 C 434.419 102.993, 436.671 102.888, 439.701 101.040 C 443.139 98.944, 446 94.392, 446 91.018 C 446 87.140, 443.136 82.053, 439.810 80.026 C 436.614 78.077, 434.878 78.007, 389.300 78.004 L 342.099 78 347.556 85.250 M 370.392 129.750 C 373.544 140.213, 376 149.586, 376 151.152 C 376 153.022, 376.955 153.072, 407.482 152.790 L 438.964 152.500 442.056 149.407 C 447.998 143.463, 446.444 133.470, 439 129.752 C 435.881 128.194, 431.923 128.003, 402.683 128.002 C 371.893 128, 369.898 128.108, 370.392 129.750 M 379.807 190.502 L 379.500 203.004 408.765 203.002 L 438.029 203 441.576 199.749 C 448.061 193.806, 446.749 183.623, 439 179.752 C 435.921 178.213, 432.169 178.003, 407.807 178.002 L 380.114 178 379.807 190.502 M 376.682 228.706 C 376.406 229.153, 375.480 232.214, 374.625 235.509 C 373.769 238.804, 372.178 244.088, 371.089 247.250 L 369.108 253 403.150 253 C 433.441 253, 437.510 252.812, 440.080 251.294 C 443.161 249.474, 446 244.569, 446 241.067 C 446 237.413, 443.397 232.493, 440.386 230.454 C 437.708 228.641, 435.329 228.478, 407.342 228.196 C 390.755 228.029, 376.958 228.259, 376.682 228.706 M 355.479 282.698 C 351.995 288.733, 346.420 296.663, 343.140 300.250 L 340.626 303 388.863 303 C 429.135 303, 437.564 302.760, 439.915 301.544 C 442.887 300.007, 446 294.647, 446 291.067 C 446 287.413, 443.397 282.493, 440.386 280.454 C 437.663 278.610, 435.263 278.483, 397.876 278.198 L 358.251 277.895 355.479 282.698 M 197.882 360.360 C 196.852 362.621, 198.630 366.432, 217.168 401.675 C 236.807 439.012, 237.707 440.512, 240.641 440.802 C 243.665 441.101, 243.801 440.898, 256.043 417.802 C 262.836 404.986, 272.130 387.563, 276.697 379.084 C 281.264 370.605, 285 362.898, 285 361.956 C 285 359.480, 282.384 357.684, 279.763 358.361 C 278.001 358.816, 273.623 366.183, 260 391.615 C 250.375 409.583, 242.026 424.936, 241.447 425.733 C 240.627 426.861, 237.763 422.126, 228.506 404.341 C 203.738 356.750, 204.770 358.531, 201.757 358.184 C 199.642 357.941, 198.758 358.437, 197.882 360.360 M 309.035 359.934 C 307.471 362.857, 307.627 438.227, 309.200 439.800 C 309.860 440.460, 311.345 441, 312.500 441 C 313.655 441, 315.140 440.460, 315.800 439.800 C 317.373 438.227, 317.529 362.857, 315.965 359.934 C 315.377 358.837, 313.879 358, 312.500 358 C 311.121 358, 309.623 358.837, 309.035 359.934 M 386.372 358.744 C 385.752 359.160, 377.491 374.125, 368.013 392 C 358.536 409.875, 349.450 426.858, 347.823 429.740 C 343.960 436.582, 344.228 440.376, 348.605 440.803 C 352.017 441.135, 348.694 446.754, 383.221 382.250 C 385.945 377.163, 388.490 373, 388.878 373 C 389.266 373, 390.783 375.363, 392.248 378.250 C 397.302 388.205, 414.157 420.526, 419.657 430.807 C 425.007 440.809, 425.264 441.105, 428.335 440.807 C 430.751 440.573, 431.576 439.962, 431.823 438.227 C 432.134 436.035, 419.363 410.404, 399.821 374 C 391.561 358.615, 389.706 356.510, 386.372 358.744 M 445.776 362.250 C 446.319 369.255, 446.761 369.853, 446.884 363.750 C 446.948 360.587, 446.651 358, 446.224 358 C 445.797 358, 445.595 359.913, 445.776 362.250 M 373.200 417.200 C 371.539 418.861, 371.700 421.557, 373.571 423.429 C 374.843 424.700, 377.690 425, 388.500 425 C 402.536 425, 405 424.273, 405 420.129 C 405 416.501, 402.998 416, 388.500 416 C 378.867 416, 374.020 416.380, 373.200 417.200" stroke="none" fill="#005587" fill-rule="evenodd"/><path d="M 227.106 80.564 C 225.430 81.975, 223.617 84.727, 223.078 86.681 C 222.018 90.518, 222.669 96, 224.184 96 C 224.698 96, 224.865 96.409, 224.556 96.909 C 224.247 97.409, 225.380 98.984, 227.074 100.409 L 230.153 103 294.139 103 L 358.125 103 355.513 98.250 C 354.077 95.638, 350.436 90.013, 347.422 85.750 L 341.942 78 286.048 78 L 230.153 78 227.106 80.564 M 343.635 83.500 C 345.338 85.700, 348.817 90.863, 351.366 94.974 C 353.915 99.085, 356 101.927, 356 101.290 C 356 99.735, 344.547 82.682, 342.310 80.906 C 341.335 80.133, 341.932 81.300, 343.635 83.500 M 377.816 103.749 C 388.440 103.911, 405.540 103.911, 415.816 103.748 C 426.092 103.586, 417.400 103.453, 396.500 103.454 C 375.600 103.454, 367.192 103.587, 377.816 103.749 M 132.096 130.573 C 125.919 135.770, 125.942 145.249, 132.143 150.467 L 135.153 153 255.577 153 C 321.810 153, 376 152.699, 376 152.331 C 376 150.871, 370.680 131.389, 369.833 129.750 C 368.980 128.098, 362.353 128, 252.042 128 L 135.153 128 132.096 130.573 M 368.152 130 C 368.152 130.825, 368.759 133.075, 369.500 135 C 370.241 136.925, 370.848 137.825, 370.848 137 C 370.848 136.175, 370.241 133.925, 369.500 132 C 368.759 130.075, 368.152 129.175, 368.152 130 M 371.141 140 C 371.141 140.825, 371.527 142.400, 372 143.500 C 372.542 144.761, 372.859 144.945, 372.859 144 C 372.859 143.175, 372.473 141.600, 372 140.500 C 371.458 139.239, 371.141 139.055, 371.141 140 M 112.573 181.924 C 109.010 185.643, 108.047 192.257, 110.406 196.817 C 113.817 203.414, 104.581 203, 248.450 203 C 339.667 203, 379 202.681, 379 201.941 C 379 201.359, 378.663 201.092, 378.250 201.349 C 377.837 201.605, 377.725 196.681, 378 190.405 L 378.500 178.996 246.937 178.998 L 115.374 179 112.573 181.924 M 379.336 190 C 379.336 194.125, 379.513 195.813, 379.728 193.750 C 379.944 191.688, 379.944 188.313, 379.728 186.250 C 379.513 184.188, 379.336 185.875, 379.336 190 M 393.811 203.748 C 401.681 203.917, 414.281 203.917, 421.811 203.747 C 429.340 203.578, 422.900 203.439, 407.500 203.440 C 392.100 203.440, 385.940 203.579, 393.811 203.748 M 263.933 228.750 L 152.366 229.009 149.569 231.928 C 145.992 235.661, 145.048 242.259, 147.431 246.867 C 148.397 248.734, 149.548 249.779, 150.197 249.378 C 150.853 248.973, 151.029 249.144, 150.627 249.795 C 150.251 250.403, 150.744 251.314, 151.722 251.821 C 152.771 252.364, 211.350 252.897, 294.500 253.121 C 372.050 253.329, 420.492 253.381, 402.148 253.237 C 373.216 253.008, 368.871 252.777, 369.363 251.496 C 371.128 246.898, 376.434 227.639, 375.769 228.246 C 375.621 228.381, 325.295 228.608, 263.933 228.750 M 372.154 235.154 C 371.501 237.984, 371.148 240.481, 371.370 240.704 C 371.593 240.926, 372.326 238.809, 373 236 C 373.674 233.191, 374.027 230.693, 373.783 230.450 C 373.540 230.207, 372.807 232.324, 372.154 235.154 M 368.726 247.177 C 367.822 250.004, 367.459 251.909, 367.920 251.409 C 369.010 250.227, 371.324 242.991, 370.785 242.451 C 370.557 242.223, 369.630 244.350, 368.726 247.177 M 273.572 278.750 C 195.410 278.994, 189.513 279.131, 187.720 280.753 C 183.118 284.919, 181.742 291.667, 184.434 296.872 C 187.508 302.816, 182.785 302.457, 264.903 303 L 340.500 303.500 345.500 296.763 C 349.428 291.470, 358.930 277.110, 357.753 278.244 C 357.614 278.379, 319.733 278.606, 273.572 278.750 M 349.730 287.492 C 347.207 291.622, 345.345 295, 345.592 295 C 346.349 295, 355.219 280.886, 354.754 280.420 C 354.514 280.181, 352.253 283.363, 349.730 287.492 M 341.500 299 C 339.919 300.650, 339.048 301.975, 339.563 301.945 C 340.444 301.893, 345.599 296, 344.763 296 C 344.549 296, 343.081 297.350, 341.500 299 M 424 358 C 424 358.550, 424.651 359, 425.448 359 C 426.452 359, 427.017 360.454, 427.293 363.750 L 427.690 368.500 427.595 363.292 C 427.505 358.371, 427.624 358.115, 429.750 358.650 C 431.071 358.983, 432 358.759, 432 358.108 C 432 357.482, 430.261 357, 428 357 C 425.800 357, 424 357.450, 424 358" stroke="none" fill="#8192b4" fill-rule="evenodd"/><path d="M 177.190 80.026 C 170.209 84.282, 169.398 93.598, 175.479 99.679 L 178.800 103 204.477 103 L 230.153 103 227.096 100.427 C 221.076 95.362, 221.081 85.634, 227.106 80.564 L 230.153 78 205.327 78.004 C 182.189 78.007, 180.275 78.145, 177.190 80.026 M 82.299 129.960 C 74.397 134.777, 74.065 144.973, 81.615 150.912 C 84.149 152.905, 85.425 153, 109.712 153 L 135.153 153 132.143 150.467 C 125.942 145.249, 125.919 135.770, 132.096 130.573 L 135.153 128 110.327 128.004 C 87.467 128.007, 85.246 128.162, 82.299 129.960 M 66.001 179.123 C 64.626 179.672, 62.495 181.065, 61.266 182.220 C 56.358 186.831, 57.515 197.514, 63.304 201.044 C 66.251 202.841, 68.485 202.993, 92 202.993 C 117.374 202.993, 117.485 202.983, 114.420 201.115 C 107.714 197.025, 107.209 186.946, 113.424 181.251 L 116.971 178 92.735 178.063 C 79.136 178.099, 67.403 178.564, 66.001 179.123 M 102.270 229.483 C 96.053 232.185, 93.221 240.659, 96.449 246.901 C 99.441 252.688, 100.530 252.906, 127.914 253.216 C 141.712 253.372, 153.001 253.271, 153.001 252.991 C 153 252.710, 152.114 251.928, 151.031 251.252 C 147.672 249.154, 145.722 244.163, 146.290 239.119 C 146.695 235.527, 147.558 233.877, 150.387 231.284 L 153.971 228 129.735 228.039 C 111.197 228.069, 104.741 228.408, 102.270 229.483 M 139.270 279.483 C 132.636 282.366, 130.073 291.326, 134.026 297.810 C 137.508 303.522, 140.107 304.004, 167.218 303.968 L 191.500 303.937 188.722 301.865 C 181.236 296.281, 181.185 285.933, 188.615 280.088 L 191.270 278 166.885 278.039 C 148.218 278.069, 141.743 278.408, 139.270 279.483 M 134.445 357.981 C 123.747 359.574, 113.788 365.590, 107.313 374.371 C 95.118 390.910, 96.494 413.923, 110.580 428.982 C 119.339 438.346, 134.407 443.471, 147.037 441.382 L 153.149 440.372 155.087 444.170 C 156.288 446.524, 157.975 448.207, 159.525 448.596 C 164.564 449.860, 166.716 444.549, 163.286 439.313 C 161.617 436.767, 161.638 436.654, 164.036 435.098 C 170.142 431.138, 175.237 425.300, 178.698 418.297 C 183.521 408.538, 184.368 397.861, 181.157 387.292 C 175.153 367.523, 155.055 354.912, 134.445 357.981 M 70 358.978 C 68.718 359.788, 68.458 365.429, 68.210 397.713 C 68.050 418.496, 68.168 436.500, 68.471 437.721 C 69.329 441.170, 72.618 442.481, 75.567 440.548 L 78 438.954 78 400.411 C 78 375.755, 77.627 361.172, 76.965 359.934 C 75.864 357.876, 72.480 357.412, 70 358.978 M 132 367.877 C 123.378 370.709, 115.165 377.750, 110.862 386 C 108.908 389.745, 108.513 392.010, 108.507 399.500 C 108.501 407.326, 108.863 409.238, 111.280 414.161 C 116.373 424.532, 127.467 431.847, 139.361 432.676 C 147.573 433.249, 148.975 432.267, 146.713 427.525 C 144.489 422.861, 144.553 421.426, 147.065 419.667 C 150.123 417.525, 152.290 418.598, 154.923 423.560 C 156.218 426.002, 157.624 428, 158.047 428 C 160.062 428, 168.431 418.314, 170.818 413.220 C 173.025 408.511, 173.499 406.086, 173.499 399.500 C 173.500 392.782, 173.056 390.596, 170.730 385.858 C 167.630 379.546, 161.385 373.270, 154.849 369.898 C 150.152 367.475, 136.816 366.295, 132 367.877" stroke="none" fill="#00a0dd" fill-rule="evenodd"/><path d="M 364.250 303.749 C 377.313 303.907, 398.688 303.907, 411.750 303.749 C 424.813 303.591, 414.125 303.462, 388 303.462 C 361.875 303.462, 351.188 303.591, 364.250 303.749 M 428.300 364 C 428.300 367.025, 428.487 368.262, 428.716 366.750 C 428.945 365.238, 428.945 362.762, 428.716 361.250 C 428.487 359.738, 428.300 360.975, 428.300 364 M 437.082 359.282 C 437.037 359.712, 437.669 361.664, 438.486 363.620 C 439.949 367.121, 442.002 367.754, 442.764 364.938 C 443.089 363.733, 442.987 363.738, 442.131 364.971 C 440.903 366.739, 440.628 366.503, 438.679 362 C 437.845 360.075, 437.126 358.852, 437.082 359.282 M 435.272 364 C 435.272 366.475, 435.467 367.488, 435.706 366.250 C 435.944 365.012, 435.944 362.988, 435.706 361.750 C 435.467 360.512, 435.272 361.525, 435.272 364 M 382.292 415.742 C 386.027 415.935, 391.877 415.934, 395.292 415.739 C 398.706 415.545, 395.650 415.387, 388.500 415.389 C 381.350 415.390, 378.556 415.550, 382.292 415.742" stroke="none" fill="#0573a7" fill-rule="evenodd"/><path d="M 244.750 77.750 C 280.087 77.896, 337.912 77.896, 373.250 77.750 C 408.587 77.604, 379.675 77.485, 309 77.485 C 238.325 77.485, 209.412 77.604, 244.750 77.750 M 175.757 80.250 C 174.462 81.487, 174.099 82, 174.951 81.390 C 175.803 80.779, 177.400 79.781, 178.500 79.170 C 179.600 78.560, 179.963 78.047, 179.306 78.030 C 178.649 78.014, 177.052 79.013, 175.757 80.250 M 343.635 83.500 C 345.338 85.700, 348.817 90.863, 351.366 94.974 C 353.915 99.085, 356 101.927, 356 101.290 C 356 99.735, 344.547 82.682, 342.310 80.906 C 341.335 80.133, 341.932 81.300, 343.635 83.500 M 444.011 83.250 C 446.191 86.826, 446.608 92.917, 444.906 96.316 C 444.304 97.517, 442.616 99.552, 441.156 100.839 C 438.786 102.926, 438.748 103.054, 440.804 102.025 C 446.583 99.133, 448.763 89.404, 445.011 83.250 C 443.921 81.463, 442.804 80, 442.529 80 C 442.254 80, 442.921 81.463, 444.011 83.250 M 172 96.881 C 172 97.382, 173.591 99.189, 175.535 100.896 L 179.070 104 269.285 103.761 L 359.500 103.521 268.668 103.011 L 177.836 102.500 174.918 99.234 C 173.313 97.438, 172 96.379, 172 96.881 M 173.829 127.750 C 222.410 127.893, 301.610 127.893, 349.829 127.750 C 398.048 127.606, 358.300 127.489, 261.500 127.489 C 164.700 127.489, 125.248 127.606, 173.829 127.750 M 79.400 131.400 C 77.530 133.270, 76.002 135.407, 76.004 136.150 C 76.006 136.893, 76.883 136.064, 77.954 134.308 C 79.024 132.553, 81.160 130.433, 82.700 129.598 C 84.240 128.763, 84.892 128.062, 84.150 128.040 C 83.407 128.018, 81.270 129.530, 79.400 131.400 M 440.127 129.684 C 445.675 133.127, 447.638 140.931, 444.490 147.020 C 442.949 150, 440.615 151.669, 436.058 153.052 C 434.357 153.568, 434.103 153.857, 435.300 153.914 C 440.967 154.185, 446.994 147.268, 446.990 140.500 C 446.986 135.215, 442.116 128.077, 438.500 128.058 C 437.950 128.056, 438.682 128.787, 440.127 129.684 M 368.152 130 C 368.152 130.825, 368.759 133.075, 369.500 135 C 370.241 136.925, 370.848 137.825, 370.848 137 C 370.848 136.175, 370.241 133.925, 369.500 132 C 368.759 130.075, 368.152 129.175, 368.152 130 M 371.141 140 C 371.141 140.825, 371.527 142.400, 372 143.500 C 372.542 144.761, 372.859 144.945, 372.859 144 C 372.859 143.175, 372.473 141.600, 372 140.500 C 371.458 139.239, 371.141 139.055, 371.141 140 M 76.004 144.868 C 76.002 145.620, 77.747 147.982, 79.882 150.118 L 83.765 154 258.632 153.756 L 433.500 153.511 258.404 153.006 C 104.740 152.562, 83.085 152.316, 81.492 151 C 80.493 150.175, 78.850 148.150, 77.842 146.500 C 76.833 144.850, 76.006 144.115, 76.004 144.868 M 65.966 177.820 C 57.859 181.414, 54.624 190.591, 58.960 197.701 C 63.100 204.491, 50.430 204.026, 223.700 203.756 L 380.500 203.512 222.956 203.006 C 75.236 202.532, 65.246 202.391, 62.747 200.754 C 59.513 198.635, 57.490 192.533, 58.405 187.657 C 59.048 184.227, 63.731 179.074, 66.327 178.939 C 66.972 178.905, 150.975 178.830, 253 178.773 C 406.040 178.686, 438.873 178.901, 440.634 180.002 C 446.414 183.616, 447.687 192.235, 443.379 198.584 C 441.937 200.708, 441.517 201.816, 442.445 201.046 C 447.168 197.126, 448.353 188.926, 444.984 183.474 C 440.659 176.475, 456.249 176.992, 251.849 177.070 C 150.457 177.109, 66.810 177.446, 65.966 177.820 M 377.994 190.704 C 377.722 196.866, 377.854 201.552, 378.287 201.117 C 378.720 200.682, 378.942 195.640, 378.781 189.913 L 378.489 179.500 377.994 190.704 M 101.500 228.861 C 96.550 231.918, 94.736 234.658, 94.299 239.740 C 93.837 245.104, 96.199 250.025, 100.196 252.025 C 102.252 253.054, 102.214 252.926, 99.844 250.839 C 96.393 247.800, 94.999 244.913, 95.004 240.816 C 95.008 236.903, 97.981 231.616, 101.122 229.935 C 102.821 229.026, 143.240 228.725, 271.156 228.669 C 363.450 228.628, 438.409 228.243, 437.731 227.813 C 437.054 227.383, 361.800 227.025, 270.500 227.019 C 110.622 227.008, 104.389 227.076, 101.500 228.861 M 442.976 232.244 C 444.619 234.127, 445.665 236.834, 446.085 240.291 L 446.718 245.500 446.859 240.735 C 446.981 236.604, 446.568 235.534, 443.750 232.689 C 441.828 230.749, 441.512 230.567, 442.976 232.244 M 372.154 235.154 C 371.501 237.984, 371.148 240.481, 371.370 240.704 C 371.593 240.926, 372.326 238.809, 373 236 C 373.674 233.191, 374.027 230.693, 373.783 230.450 C 373.540 230.207, 372.807 232.324, 372.154 235.154 M 368.726 247.177 C 367.822 250.004, 367.459 251.909, 367.920 251.409 C 369.010 250.227, 371.324 242.991, 370.785 242.451 C 370.557 242.223, 369.630 244.350, 368.726 247.177 M 115.308 253.748 C 122.353 253.920, 133.603 253.919, 140.308 253.747 C 147.014 253.574, 141.250 253.433, 127.500 253.434 C 113.750 253.434, 108.264 253.576, 115.308 253.748 M 206.750 253.750 C 236.587 253.897, 285.412 253.897, 315.250 253.750 C 345.087 253.603, 320.675 253.482, 261 253.482 C 201.325 253.482, 176.912 253.603, 206.750 253.750 M 139.020 278.752 C 130.246 283.160, 128.390 295.099, 135.555 301.046 C 136.483 301.816, 136.063 300.708, 134.621 298.584 C 131.435 293.888, 131.223 288.787, 134.023 284.193 C 137.879 277.869, 133.424 278.116, 234.500 278.632 C 285.100 278.890, 351.250 278.702, 381.500 278.214 C 430.351 277.425, 420.067 277.308, 289.500 277.165 C 151.355 277.013, 142.290 277.108, 139.020 278.752 M 442.976 282.244 C 444.619 284.127, 445.665 286.834, 446.085 290.291 L 446.718 295.500 446.859 290.735 C 446.981 286.604, 446.568 285.534, 443.750 282.689 C 441.828 280.749, 441.512 280.567, 442.976 282.244 M 349.730 287.492 C 347.207 291.622, 345.345 295, 345.592 295 C 346.349 295, 355.219 280.886, 354.754 280.420 C 354.514 280.181, 352.253 283.363, 349.730 287.492 M 341.500 299 C 339.919 300.650, 339.048 301.975, 339.563 301.945 C 340.444 301.893, 345.599 296, 344.763 296 C 344.549 296, 343.081 297.350, 341.500 299 M 167 304 C 153.525 304.305, 208.425 304.567, 289 304.582 C 389.564 304.602, 418.568 304.402, 381.500 303.945 C 318.678 303.171, 202.380 303.200, 167 304 M 135.500 356.947 C 132.420 357.473, 133.339 357.637, 139.500 357.657 C 149.272 357.690, 157.125 359.873, 163.926 364.450 C 166.749 366.350, 168.767 367.432, 168.410 366.854 C 168.053 366.277, 165.677 364.480, 163.131 362.862 C 155.614 358.086, 143.727 355.541, 135.500 356.947 M 69.278 358.250 C 67.777 360.189, 66.881 363.191, 68.011 362.493 C 68.555 362.157, 69 361.282, 69 360.548 C 69 358.050, 75.233 356.998, 76.691 359.250 C 77.136 359.938, 77.735 378.050, 78.023 399.500 L 78.546 438.500 78.773 399.973 C 78.970 366.473, 78.797 361.155, 77.443 359.223 C 75.715 356.755, 70.880 356.179, 69.278 358.250 M 197.567 358.926 C 196.609 359.985, 196.037 361.672, 196.296 362.676 C 196.684 364.174, 196.789 364.109, 196.884 362.307 C 196.948 361.100, 198 359.413, 199.223 358.557 C 200.445 357.701, 200.965 357, 200.377 357 C 199.790 357, 198.526 357.867, 197.567 358.926 M 276.783 358.750 C 275.944 359.712, 274.740 361.625, 274.108 363 C 273.127 365.134, 273.145 365.216, 274.230 363.559 C 274.928 362.491, 276.492 360.579, 277.705 359.309 C 278.917 358.039, 279.549 357, 279.110 357 C 278.670 357, 277.623 357.788, 276.783 358.750 M 308.643 358.842 C 307.137 360.506, 307.003 364.474, 307.250 400.092 L 307.524 439.500 307.762 399.807 L 308 360.113 310.223 358.557 C 311.445 357.701, 311.965 357, 311.377 357 C 310.790 357, 309.560 357.829, 308.643 358.842 M 314.777 358.557 L 317 360.113 317 400.078 L 317 440.043 314.626 441.124 C 312.898 441.912, 311.607 441.891, 309.876 441.048 C 307.619 439.948, 307.597 439.967, 309.441 441.445 C 311.877 443.396, 312.990 443.396, 315.777 441.443 L 318 439.887 318 400.015 C 318 365.101, 317.805 359.947, 316.429 358.571 C 315.564 357.707, 314.339 357, 313.706 357 C 313.073 357, 313.555 357.701, 314.777 358.557 M 390.277 357.636 C 391.254 357.923, 393.622 361.272, 395.540 365.079 C 397.457 368.885, 399.266 372, 399.561 372 C 399.856 372, 398.388 368.738, 396.299 364.750 C 393.669 359.732, 391.884 357.441, 390.500 357.307 C 388.884 357.152, 388.841 357.215, 390.277 357.636 M 434.173 363.250 C 434.040 368.430, 434.323 370, 435.391 370 C 437.029 370, 438.154 363.267, 436.894 361 C 436.347 360.014, 435.991 361.215, 435.858 364.500 C 435.657 369.456, 435.649 369.442, 435 363 L 434.345 356.500 434.173 363.250 M 446.843 363.250 L 446.686 369.500 446 364.500 C 445.623 361.750, 445.237 359.950, 445.142 360.500 C 445.047 361.050, 444.484 360.825, 443.890 360 C 443.021 358.792, 442.946 358.889, 443.504 360.500 C 443.885 361.600, 444.437 364.188, 444.730 366.250 C 445.050 368.497, 445.812 370, 446.632 370 C 447.649 370, 448 368.333, 448 363.500 C 448 355.186, 447.051 354.981, 446.843 363.250 M 123.250 360.464 C 120.362 361.808, 118 363.165, 118 363.480 C 118 363.794, 119.420 363.317, 121.156 362.419 C 122.892 361.522, 125.929 360.192, 127.906 359.464 C 129.883 358.736, 130.825 358.114, 130 358.080 C 129.175 358.047, 126.138 359.119, 123.250 360.464 M 285.136 361.783 C 285.061 363.039, 283.867 366.302, 282.483 369.033 C 281.099 371.765, 280.191 374, 280.466 374 C 281.677 374, 286.076 363.623, 285.695 361.667 C 285.282 359.551, 285.269 359.554, 285.136 361.783 M 380.500 366 C 379.106 368.750, 378.191 371, 378.466 371 C 378.741 371, 380.106 368.750, 381.500 366 C 382.894 363.250, 383.809 361, 383.534 361 C 383.259 361, 381.894 363.250, 380.500 366 M 426.359 365.923 C 426.446 368.030, 427.077 369.501, 428 369.749 C 429.013 370.021, 429.123 369.883, 428.340 369.323 C 427.702 368.867, 426.964 367.145, 426.699 365.497 C 426.259 362.751, 426.230 362.787, 426.359 365.923 M 110.393 369.476 C 102.502 377.368, 98.715 385.928, 98.182 397.081 C 97.691 407.336, 99.533 414.814, 104.420 422.418 C 111.337 433.180, 123.639 441.256, 135.156 442.595 C 141.360 443.317, 154.287 442.273, 153.567 441.108 C 153.318 440.706, 150.372 440.831, 147.020 441.385 C 123.179 445.328, 100.473 426.845, 99.193 402.454 C 98.482 388.916, 102.684 378.074, 112.254 368.753 C 114.937 366.139, 116.849 364, 116.501 364 C 116.154 364, 113.405 366.464, 110.393 369.476 M 440 365 C 440 365.550, 440.450 366, 441 366 C 441.550 366, 442 366.675, 442 367.500 C 442 369.316, 440.365 369.491, 439.662 367.750 C 439.299 366.849, 439.136 366.832, 439.079 367.691 C 438.973 369.288, 440.973 370.443, 441.975 369.363 C 442.415 368.888, 443.080 367.375, 443.453 366 C 443.971 364.088, 443.884 363.853, 443.081 365 C 442.370 366.015, 442.026 366.096, 442.015 365.250 C 442.007 364.563, 441.550 364, 441 364 C 440.450 364, 440 364.450, 440 365 M 137.250 367.728 C 139.313 367.944, 142.688 367.944, 144.750 367.728 C 146.813 367.513, 145.125 367.336, 141 367.336 C 136.875 367.336, 135.188 367.513, 137.250 367.728 M 150 368.718 C 150.825 369.026, 153.188 370.124, 155.250 371.159 C 157.313 372.194, 159 372.816, 159 372.541 C 159 371.756, 151.228 367.991, 149.790 368.079 C 148.939 368.131, 149.010 368.348, 150 368.718 M 267 376 C 265.334 379.300, 264.196 382, 264.471 382 C 264.746 382, 266.334 379.300, 268 376 C 269.666 372.700, 270.804 370, 270.529 370 C 270.254 370, 268.666 372.700, 267 376 M 118.857 375.730 C 116.076 378.332, 112.612 382.719, 111.159 385.480 C 108.875 389.822, 108.517 391.716, 108.509 399.500 C 108.501 407.328, 108.862 409.237, 111.280 414.161 C 116.373 424.532, 127.467 431.847, 139.361 432.676 C 147.573 433.249, 148.975 432.267, 146.713 427.525 C 144.463 422.806, 144.551 421.428, 147.223 419.557 C 148.445 418.701, 148.927 418, 148.294 418 C 146.480 418, 144 420.949, 144 423.107 C 144 424.187, 144.714 426.160, 145.586 427.491 C 148.123 431.363, 146.592 432.345, 139.110 431.646 C 122.078 430.055, 110.265 418.160, 109.239 401.566 C 108.609 391.361, 111.404 384.316, 119.088 376.750 C 126.121 369.823, 125.956 369.090, 118.857 375.730 M 174.997 374.750 C 176.305 376.538, 177.532 378, 177.723 378 C 178.483 378, 176.003 374.249, 174.363 372.918 C 173.283 372.040, 173.525 372.739, 174.997 374.750 M 213.500 375 C 214.353 376.650, 215.276 378, 215.551 378 C 215.826 378, 215.353 376.650, 214.500 375 C 213.647 373.350, 212.724 372, 212.449 372 C 212.174 372, 212.647 373.350, 213.500 375 M 163.500 377 C 165.648 379.200, 167.631 381, 167.906 381 C 168.181 381, 166.648 379.200, 164.500 377 C 162.352 374.800, 160.369 373, 160.094 373 C 159.819 373, 161.352 374.800, 163.500 377 M 389 374.383 C 389 375.456, 391.975 381, 392.551 381 C 392.826 381, 392.308 379.538, 391.399 377.750 C 389.542 374.100, 389 373.339, 389 374.383 M 275 383 C 272.788 387.400, 271.203 391, 271.478 391 C 271.753 391, 273.788 387.400, 276 383 C 278.212 378.600, 279.797 375, 279.522 375 C 279.247 375, 277.212 378.600, 275 383 M 405.500 384 C 407.986 388.950, 410.245 393, 410.520 393 C 410.795 393, 408.986 388.950, 406.500 384 C 404.014 379.050, 401.755 375, 401.480 375 C 401.205 375, 403.014 379.050, 405.500 384 M 204.500 380 C 205.353 381.650, 206.276 383, 206.551 383 C 206.826 383, 206.353 381.650, 205.500 380 C 204.647 378.350, 203.724 377, 203.449 377 C 203.174 377, 203.647 378.350, 204.500 380 M 372.500 381 C 371.647 382.650, 371.174 384, 371.449 384 C 371.724 384, 372.647 382.650, 373.500 381 C 374.353 379.350, 374.826 378, 374.551 378 C 374.276 378, 373.353 379.350, 372.500 381 M 180.807 386.313 C 182.820 392.314, 183.150 394.931, 182.805 402.173 C 182.451 409.592, 181.887 411.861, 178.903 417.873 C 176.984 421.738, 175.938 424.467, 176.577 423.936 C 177.217 423.405, 179.005 420.165, 180.551 416.735 C 184.485 408.011, 185.070 396.882, 182.108 387.129 C 180.934 383.264, 179.618 379.882, 179.184 379.614 C 178.750 379.345, 179.480 382.360, 180.807 386.313 M 170.121 386.406 C 171.282 389.105, 172.569 394.505, 172.980 398.406 C 173.673 404.972, 173.739 405.122, 173.864 400.432 C 174.014 394.834, 171.900 386.556, 169.535 383.483 C 168.583 382.245, 168.803 383.343, 170.121 386.406 M 397.500 391 C 399.439 394.850, 401.250 398, 401.525 398 C 401.800 398, 400.439 394.850, 398.500 391 C 396.561 387.150, 394.750 384, 394.475 384 C 394.200 384, 395.561 387.150, 397.500 391 M 259 391 C 257.334 394.300, 256.196 397, 256.471 397 C 256.746 397, 258.334 394.300, 260 391 C 261.666 387.700, 262.804 385, 262.529 385 C 262.254 385, 260.666 387.700, 259 391 M 224 395 C 225.666 398.300, 227.254 401, 227.529 401 C 227.804 401, 226.666 398.300, 225 395 C 223.334 391.700, 221.746 389, 221.471 389 C 221.196 389, 222.334 391.700, 224 395 M 267.500 397 C 266.106 399.750, 265.191 402, 265.466 402 C 265.741 402, 267.106 399.750, 268.500 397 C 269.894 394.250, 270.809 392, 270.534 392 C 270.259 392, 268.894 394.250, 267.500 397 M 216.500 403 C 218.986 407.950, 221.245 412, 221.520 412 C 221.795 412, 219.986 407.950, 217.500 403 C 215.014 398.050, 212.755 394, 212.480 394 C 212.205 394, 214.014 398.050, 216.500 403 M 250.500 407 C 249.647 408.650, 249.174 410, 249.449 410 C 249.724 410, 250.647 408.650, 251.500 407 C 252.353 405.350, 252.826 404, 252.551 404 C 252.276 404, 251.353 405.350, 250.500 407 M 357.500 409 C 356.106 411.750, 355.191 414, 355.466 414 C 355.741 414, 357.106 411.750, 358.500 409 C 359.894 406.250, 360.809 404, 360.534 404 C 360.259 404, 358.894 406.250, 357.500 409 M 418 408 C 419.122 410.200, 420.266 412, 420.541 412 C 420.816 412, 420.122 410.200, 419 408 C 417.878 405.800, 416.734 404, 416.459 404 C 416.184 404, 416.878 405.800, 418 408 M 234.973 415.947 C 237.771 421.521, 240.496 425.812, 241.030 425.482 C 241.563 425.152, 242 424.657, 242 424.382 C 242 424.107, 241.631 424.110, 241.180 424.389 C 240.729 424.667, 238.367 420.826, 235.930 415.853 C 233.494 410.880, 231.137 406.586, 230.694 406.312 C 230.250 406.037, 232.176 410.373, 234.973 415.947 M 259.500 412 C 258.647 413.650, 258.174 415, 258.449 415 C 258.724 415, 259.647 413.650, 260.500 412 C 261.353 410.350, 261.826 409, 261.551 409 C 261.276 409, 260.353 410.350, 259.500 412 M 365.500 416 C 363.561 419.850, 362.200 423, 362.475 423 C 362.750 423, 364.561 419.850, 366.500 416 C 368.439 412.150, 369.800 409, 369.525 409 C 369.250 409, 367.439 412.150, 365.500 416 M 227 423 C 229.760 428.500, 232.243 433, 232.518 433 C 232.793 433, 230.760 428.500, 228 423 C 225.240 417.500, 222.757 413, 222.482 413 C 222.207 413, 224.240 417.500, 227 423 M 404.796 419.062 C 405.034 420.688, 404.616 422.802, 403.865 423.759 C 402.629 425.335, 402.666 425.370, 404.250 424.128 C 406.030 422.732, 406.673 417.534, 405.181 416.612 C 404.730 416.333, 404.557 417.436, 404.796 419.062 M 349.500 424 C 347.561 427.850, 346.200 431, 346.475 431 C 346.750 431, 348.561 427.850, 350.500 424 C 352.439 420.150, 353.800 417, 353.525 417 C 353.250 417, 351.439 420.150, 349.500 424 M 371.136 420.128 C 371.061 421.576, 371.785 423.371, 372.750 424.128 C 374.273 425.322, 374.350 425.305, 373.346 424 C 372.711 423.175, 371.985 421.375, 371.732 420 L 371.272 417.500 371.136 420.128 M 153.009 419.364 C 152.996 420.569, 157.243 428.003, 157.934 427.985 C 158.245 427.977, 160.300 426.359, 162.500 424.390 L 166.500 420.811 162.323 423.932 L 158.145 427.053 155.582 422.777 C 154.172 420.424, 153.015 418.889, 153.009 419.364 M 428 427 C 429.122 429.200, 430.266 431, 430.541 431 C 430.816 431, 430.122 429.200, 429 427 C 427.878 424.800, 426.734 423, 426.459 423 C 426.184 423, 426.878 424.800, 428 427 M 381.206 425.741 C 384.895 425.932, 391.195 425.934, 395.206 425.743 C 399.218 425.553, 396.200 425.396, 388.500 425.395 C 380.800 425.393, 377.518 425.549, 381.206 425.741 M 171.437 429.070 C 169.822 430.759, 167.037 433.045, 165.250 434.152 C 161.543 436.446, 161.407 436.882, 163.565 439.559 C 165.104 441.468, 165.113 441.467, 164.127 439.500 C 163.266 437.783, 163.999 436.693, 169.312 431.797 C 172.715 428.661, 175.247 426.073, 174.937 426.047 C 174.627 426.021, 173.052 427.382, 171.437 429.070 M 357 432 C 355.334 435.300, 354.196 438, 354.471 438 C 354.746 438, 356.334 435.300, 358 432 C 359.666 428.700, 360.804 426, 360.529 426 C 360.254 426, 358.666 428.700, 357 432 M 419.500 433 C 420.894 435.750, 422.259 438, 422.534 438 C 422.809 438, 421.894 435.750, 420.500 433 C 419.106 430.250, 417.741 428, 417.466 428 C 417.191 428, 418.106 430.250, 419.500 433 M 68 438.845 C 68 439.310, 68.882 440.488, 69.960 441.464 C 72.215 443.504, 76.427 442.935, 77.377 440.461 C 77.916 439.055, 77.760 439.054, 75.764 440.453 C 72.918 442.446, 72.406 442.406, 70 440 C 68.900 438.900, 68 438.380, 68 438.845 M 351.933 440.580 C 351.176 441.493, 349.657 441.976, 348.341 441.725 C 347.087 441.485, 346.298 441.674, 346.589 442.144 C 347.526 443.660, 350.638 443.057, 352.500 441 C 353.495 439.900, 354.070 439, 353.777 439 C 353.485 439, 352.655 439.711, 351.933 440.580 M 424.405 440.750 C 425.453 441.988, 427.070 443, 428 443 C 428.930 443, 430.547 441.988, 431.595 440.750 C 433.498 438.502, 433.498 438.502, 431.421 440.250 C 430.278 441.212, 428.738 442, 428 442 C 427.262 442, 425.722 441.212, 424.579 440.250 C 422.502 438.502, 422.502 438.502, 424.405 440.750 M 237.441 441.445 C 238.509 442.300, 240.084 442.964, 240.941 442.921 C 242.288 442.853, 242.296 442.766, 241 442.286 C 240.175 441.980, 238.600 441.316, 237.500 440.810 C 235.532 439.904, 235.531 439.915, 237.441 441.445 M 165.136 444.128 C 164.929 448.122, 162.540 449.634, 158.670 448.219 C 155.794 447.168, 155.680 447.196, 157.441 448.530 C 158.509 449.339, 160.127 450, 161.036 450 C 163.557 450, 166.222 446.488, 165.717 443.832 C 165.299 441.639, 165.264 441.657, 165.136 444.128" stroke="none" fill="#8295b5" fill-rule="evenodd"/></svg>