<svg xmlns="http://www.w3.org/2000/svg" width="512" height="512" viewBox="0 0 512 512" version="1.1"><path d="M 239.417 16.720 C 237.722 16.930, 234.909 18.404, 233.167 19.995 C 229.117 23.694, 228.819 29.012, 232.411 33.500 L 234.811 36.500 250.656 36.634 C 259.370 36.707, 268.300 37.027, 270.500 37.344 C 272.700 37.661, 276.300 38.163, 278.500 38.459 C 280.700 38.756, 283.400 39.437, 284.500 39.973 C 286.353 40.877, 297.871 45.288, 299 45.526 C 300.111 45.761, 307.534 49.542, 308 50.110 C 308.275 50.446, 310.075 51.522, 312 52.500 C 313.925 53.478, 315.725 54.555, 316 54.892 C 316.275 55.229, 319.725 58.111, 323.667 61.297 C 327.608 64.484, 332.392 68.983, 334.298 71.295 C 336.203 73.608, 339.053 76.887, 340.631 78.583 C 343.747 81.931, 345.323 84.572, 351.024 96 C 354.425 102.818, 360.632 119.668, 360.264 121.082 C 360.180 121.403, 360.674 125.467, 361.361 130.115 C 363.311 143.306, 362.580 155.604, 359.020 169.500 C 357.893 173.900, 356.798 178.184, 356.587 179.021 C 355.803 182.129, 347.539 198.613, 345.193 201.750 C 343.856 203.537, 343.041 205, 343.381 205 C 343.722 205, 343.124 205.876, 342.053 206.947 C 339.629 209.371, 339.947 215.380, 343.028 225.355 C 344.190 229.116, 344.889 232.445, 344.581 232.752 C 344.274 233.060, 341.698 232.560, 338.857 231.643 C 336.016 230.725, 333.479 230.187, 333.219 230.447 C 332.959 230.707, 331.455 230.252, 329.877 229.436 C 325.424 227.134, 321.158 228.235, 312.826 233.839 C 308.606 236.677, 304.866 239, 304.514 239 C 304.163 239, 301.542 240.068, 298.688 241.373 C 293.554 243.722, 291.208 244.637, 289.745 244.861 C 289.330 244.925, 287.418 245.634, 285.495 246.438 C 283.573 247.241, 282 247.743, 282 247.554 C 282 247.365, 280.313 247.630, 278.250 248.142 C 265.886 251.215, 238.864 251.180, 230.713 248.081 C 229.221 247.514, 228 247.318, 228 247.647 C 228 247.976, 227.438 247.782, 226.750 247.217 C 226.063 246.652, 222.800 245.412, 219.500 244.462 C 216.200 243.511, 212.612 242.119, 211.527 241.367 C 210.443 240.615, 208.755 240, 207.777 240 C 206.800 240, 206 239.599, 206 239.109 C 206 238.618, 204.287 237.532, 202.193 236.694 C 200.100 235.856, 197.799 234.462, 197.080 233.596 C 196.361 232.731, 195.422 232.239, 194.991 232.505 C 194.561 232.771, 193.952 232.316, 193.636 231.494 C 193.321 230.672, 192.411 230, 191.615 230 C 190.818 230, 189.999 229.498, 189.795 228.885 C 189.287 227.362, 182.095 226.676, 180.500 228 C 179.791 228.589, 178.826 228.969, 178.355 228.845 C 177.295 228.565, 170.859 230.017, 169.500 230.842 C 168.950 231.176, 167.410 231.599, 166.077 231.782 C 164.744 231.965, 162.764 232.591, 161.675 233.174 C 160.051 234.043, 159.803 233.955, 160.293 232.679 C 160.977 230.896, 162.654 224.676, 163.441 221 C 163.736 219.625, 164.597 216.250, 165.355 213.500 C 167.039 207.394, 166.555 203.753, 163.360 198.511 C 162.015 196.305, 160.537 193.825, 160.076 193 C 158.677 190.499, 154.588 181.567, 154.354 180.500 C 154.232 179.950, 152.989 175.097, 151.591 169.716 C 150.192 164.335, 148.770 157.585, 148.430 154.716 C 146.754 140.567, 148.634 124.285, 153.768 108.500 C 154.662 105.750, 155.267 103.325, 155.111 103.112 C 154.956 102.898, 155.254 102.448, 155.773 102.112 C 156.550 101.608, 161.070 92.721, 161.425 91 C 161.481 90.725, 162.535 89.150, 163.767 87.500 C 164.999 85.850, 165.892 84.264, 165.753 83.975 C 165.518 83.488, 166.538 82.107, 169.821 78.465 C 170.548 77.659, 170.796 77, 170.371 77 C 169.947 77, 170.140 76.460, 170.800 75.800 C 172.281 74.319, 172.396 68, 170.941 68 C 170.359 68, 170.138 67.586, 170.451 67.080 C 171.529 65.334, 165.868 62, 161.825 62 C 158.544 62, 157.287 62.666, 153.960 66.163 C 151.782 68.452, 150 70.890, 150 71.579 C 150 72.269, 149.597 72.983, 149.106 73.167 C 147.172 73.887, 137 93.439, 137 96.434 C 137 97.296, 136.502 98, 135.893 98 C 135.284 98, 135.034 98.646, 135.337 99.435 C 135.640 100.225, 135.421 101.026, 134.852 101.216 C 134.282 101.406, 133.745 102.785, 133.658 104.280 C 133.571 105.775, 133.211 106.999, 132.857 106.999 C 132.199 107, 129.977 117.103, 129.448 122.500 C 129.286 124.150, 129.085 125.500, 129 125.500 C 128.516 125.500, 128.011 130.650, 127.675 139 C 127.336 147.442, 127.996 157.671, 129.353 165 C 130.786 172.734, 132.408 179.563, 132.918 180 C 133.569 180.560, 134.234 182.853, 134.294 184.750 C 134.316 185.438, 134.735 186, 135.226 186 C 135.716 186, 135.828 186.470, 135.473 187.044 C 135.118 187.618, 135.473 189.081, 136.262 190.294 C 137.051 191.507, 138.250 194.188, 138.926 196.250 C 139.602 198.312, 140.645 200, 141.244 200 C 141.843 200, 142.066 200.267, 141.739 200.594 C 141.412 200.921, 142.220 203.114, 143.533 205.467 C 144.847 207.820, 145.704 209.963, 145.437 210.230 C 144.472 211.194, 140.972 225.145, 141.486 225.977 C 141.775 226.446, 141.574 226.980, 141.038 227.165 C 140.502 227.349, 139.951 228.997, 139.813 230.826 C 139.676 232.655, 139.250 234.345, 138.869 234.581 C 138.250 234.963, 136.594 242.572, 136.985 243.236 C 137.071 243.381, 136.676 244.722, 136.109 246.215 C 135.492 247.837, 135.446 249.157, 135.995 249.497 C 136.500 249.809, 136.683 250.664, 136.401 251.397 C 136.120 252.130, 137.294 253.911, 139.010 255.355 C 142.366 258.179, 148.033 258.715, 153 256.678 C 154.375 256.114, 156.751 255.510, 158.281 255.336 C 159.811 255.162, 162.385 254.335, 164.001 253.500 C 165.617 252.664, 167.291 252.070, 167.720 252.180 C 168.824 252.464, 175.302 250.908, 176.500 250.071 C 178.199 248.884, 185 248.766, 185 249.923 C 185 250.516, 185.427 251, 185.950 251 C 186.472 251, 188.852 252.317, 191.238 253.928 C 193.624 255.538, 196.796 257.162, 198.288 257.536 C 199.780 257.911, 201 258.598, 201 259.063 C 201 259.529, 202.575 260.205, 204.500 260.566 C 206.425 260.927, 208 261.623, 208 262.111 C 208 262.600, 208.831 263, 209.846 263 C 210.862 263, 213.106 263.705, 214.834 264.567 C 216.561 265.429, 219.012 266.244, 220.279 266.379 C 221.547 266.515, 223.066 266.923, 223.654 267.286 C 224.242 267.649, 226.472 268.219, 228.611 268.553 C 230.750 268.886, 234.075 269.425, 236 269.751 C 237.925 270.076, 247.375 270.345, 257 270.348 C 270.346 270.351, 276.043 269.945, 281 268.638 C 284.575 267.695, 288.400 266.723, 289.500 266.477 C 293.601 265.561, 304.583 261.518, 306.900 260.072 C 308.220 259.248, 309.906 258.484, 310.645 258.376 C 311.385 258.267, 315.255 256.278, 319.245 253.955 L 326.500 249.732 333 251.469 C 336.575 252.425, 340.400 253.364, 341.500 253.557 C 342.600 253.750, 345.442 254.612, 347.816 255.472 C 350.190 256.332, 352.522 256.796, 352.997 256.502 C 353.473 256.208, 354.144 256.425, 354.490 256.984 C 355.466 258.563, 363.298 258.180, 365.794 256.432 C 367.026 255.569, 367.806 254.495, 367.528 254.045 C 367.250 253.595, 367.721 252.647, 368.575 251.937 C 370.267 250.534, 370.027 245.831, 367.991 240.475 C 367.368 238.839, 366.929 237.381, 367.015 237.236 C 367.494 236.423, 365.693 229, 365.017 229 C 364.573 229, 363.992 227.313, 363.726 225.250 C 363.123 220.580, 362.228 216.895, 361.528 216.195 C 361.234 215.900, 361.628 214.690, 362.405 213.505 C 365.235 209.185, 371.857 196.228, 372.174 194.389 C 372.353 193.350, 372.756 192.275, 373.069 192 C 374.273 190.942, 377.008 182.821, 376.459 181.934 C 376.142 181.420, 376.310 181, 376.833 181 C 378.080 181, 379.364 175.707, 381.807 160.500 C 383.233 151.629, 382.562 130.133, 380.481 118 C 378.562 106.812, 367.478 79, 364.939 79 C 364.358 79, 364.160 78.550, 364.500 78 C 364.840 77.450, 364.641 77, 364.059 77 C 363.477 77, 363.113 76.580, 363.250 76.067 C 363.704 74.371, 349.934 57.197, 343.157 51.008 C 332.160 40.966, 323.692 34.641, 322.645 35.688 C 322.290 36.043, 322 35.836, 322 35.229 C 322 34.101, 308.359 27, 306.193 27 C 305.537 27, 305 26.639, 305 26.198 C 305 25.370, 296.039 21.853, 293.134 21.540 C 292.235 21.443, 290.375 20.888, 289 20.307 C 286.696 19.333, 282.058 18.358, 274.500 17.257 C 270.418 16.662, 243.246 16.247, 239.417 16.720 M 192.209 32.554 C 189.039 33.887, 187.463 36.470, 186.306 42.229 C 185.867 44.419, 186.465 45.665, 189.334 48.534 C 192.506 51.706, 193.374 52.063, 197.040 51.696 C 202.529 51.147, 206.434 47.345, 206.302 42.678 C 206.057 34.042, 199.638 29.431, 192.209 32.554 M 229.074 65.591 C 227.380 67.016, 226.247 68.591, 226.556 69.091 C 226.865 69.591, 226.613 70, 225.996 70 C 225.379 70, 224.954 70.787, 225.052 71.750 C 225.150 72.713, 225.178 82.388, 225.115 93.250 L 225 113 203.577 113 L 182.153 113 179.074 115.591 C 177.380 117.016, 176.247 118.591, 176.556 119.091 C 176.865 119.591, 176.659 120, 176.097 120 C 175.432 120, 175.077 128.184, 175.077 143.500 C 175.077 158.816, 175.432 167, 176.097 167 C 176.659 167, 176.865 167.409, 176.556 167.909 C 176.247 168.409, 177.380 169.984, 179.074 171.409 L 182.153 174 203.577 174 L 225 174 225.115 193.750 C 225.178 204.613, 225.150 214.287, 225.052 215.250 C 224.954 216.213, 225.379 217, 225.996 217 C 226.613 217, 226.865 217.409, 226.556 217.909 C 226.247 218.409, 227.380 219.984, 229.074 221.409 L 232.153 224 253.327 223.994 C 278.981 223.988, 283.414 223.036, 284.505 217.300 C 284.693 216.310, 284.898 215.275, 284.961 215 C 285.024 214.725, 285.042 205.388, 285.001 194.250 L 284.928 174 304.714 173.994 C 328.923 173.988, 333.425 172.976, 334.505 167.300 C 334.693 166.310, 334.891 165.387, 334.944 165.250 C 335.072 164.923, 335.072 122.077, 334.944 121.750 C 334.891 121.612, 334.693 120.690, 334.505 119.700 C 333.425 114.024, 328.923 113.012, 304.714 113.006 L 284.928 113 285.001 92.750 C 285.042 81.612, 285.024 72.275, 284.961 72 C 284.898 71.725, 284.693 70.690, 284.505 69.700 C 283.414 63.964, 278.981 63.012, 253.327 63.006 L 232.153 63 229.074 65.591 M 245.001 104.250 C 245.042 115.388, 245.024 124.725, 244.961 125 C 244.898 125.275, 244.693 126.310, 244.505 127.300 C 243.425 132.974, 238.922 133.988, 214.750 133.994 L 195 134 195 143.500 L 195 153 214.750 153.006 C 238.922 153.012, 243.425 154.026, 244.505 159.700 C 244.693 160.690, 244.898 161.725, 244.961 162 C 245.024 162.275, 245.042 171.613, 245.001 182.750 L 244.928 203 254.964 203 L 265 203 265.115 183.250 C 265.178 172.387, 265.150 162.713, 265.052 161.750 C 264.954 160.787, 265.379 160, 265.996 160 C 266.613 160, 266.865 159.591, 266.556 159.091 C 266.247 158.591, 267.380 157.016, 269.074 155.591 L 272.153 153 293.577 153 L 315 153 315 143.500 L 315 134 293.577 134 L 272.153 134 269.074 131.409 C 267.380 129.984, 266.247 128.409, 266.556 127.909 C 266.865 127.409, 266.613 127, 265.996 127 C 265.379 127, 264.954 126.213, 265.052 125.250 C 265.150 124.287, 265.178 114.612, 265.115 103.750 L 265 84 254.964 84 L 244.928 84 245.001 104.250 M 54 219.305 C 53.725 219.589, 51.475 220.053, 49 220.338 C 43.710 220.946, 38.250 222.808, 31.429 226.330 C 26.980 228.627, 25.158 229.976, 18.500 235.897 C 15.927 238.185, 11.865 243, 12.507 243 C 12.778 243, 12.115 243.885, 11.034 244.966 C 8.978 247.022, 3.568 257, 4.509 257 C 4.807 257, 4.416 258.238, 3.641 259.750 C 1.001 264.894, -0.239 279.904, 1.306 288 C 1.673 289.925, 2.117 292.274, 2.291 293.221 C 2.466 294.168, 2.922 295.255, 3.304 295.638 C 3.687 296.020, 4.003 297.046, 4.006 297.917 C 4.010 298.788, 4.685 300.789, 5.506 302.364 C 6.328 303.940, 7 305.852, 7 306.614 C 7 307.376, 7.450 308, 8 308 C 8.550 308, 9.002 308.563, 9.005 309.250 C 9.007 309.938, 10.380 311.962, 12.055 313.750 C 13.731 315.538, 14.741 317.011, 14.301 317.024 C 13.303 317.053, 25.215 327.979, 26.258 327.991 C 26.676 327.996, 26.455 328.900, 25.768 330 C 25.081 331.100, 24.060 332, 23.499 332 C 22.343 332, 19.066 334.958, 14.122 340.465 C 11.306 343.602, 2.733 358.334, 2.754 360 C 2.758 360.275, 2.346 361.590, 1.839 362.922 C 1.333 364.255, 1.142 365.928, 1.416 366.640 C 1.689 367.353, 1.496 368.194, 0.986 368.509 C 0.434 368.850, 0.041 393.574, 0.015 429.603 L -0.028 490.125 2.909 493.063 L 5.846 496 255.788 496 L 505.730 496 508.365 493.927 C 509.814 492.788, 511 491.213, 511 490.427 C 511 489.642, 511.450 489, 512 489 C 512.656 489, 512.995 468.594, 512.985 429.750 C 512.975 391.127, 512.632 371.022, 512 372 C 511.418 372.901, 511.025 373.025, 511.015 372.309 C 511.007 371.654, 511.450 370.840, 512 370.500 C 512.550 370.160, 513 369.432, 513 368.882 C 513 368.332, 512.550 368.160, 512 368.500 C 511.450 368.840, 511 368.266, 511 367.226 C 511 366.185, 510.701 365.034, 510.335 364.668 C 509.969 364.302, 509.539 362.771, 509.378 361.266 C 509.218 359.760, 508.617 358.372, 508.043 358.181 C 507.469 357.990, 507 356.920, 507 355.803 C 507 353.480, 503.044 346, 501.816 346 C 501.367 346, 501 345.365, 501 344.589 C 501 343.813, 499.615 342.013, 497.923 340.589 C 496.231 339.165, 495.138 338, 495.495 338 C 496.359 338, 494.421 336.191, 489.106 332.037 L 484.712 328.603 487.106 327.085 C 490.784 324.753, 501 314.043, 501 312.520 C 501 311.776, 501.337 311.017, 501.750 310.833 C 503.494 310.058, 508.845 298.157, 509.543 293.500 C 509.626 292.950, 509.951 291.825, 510.266 291 C 511.988 286.486, 513.382 277, 512.324 277 C 511.831 277, 511.429 276.133, 511.429 275.073 C 511.429 274.014, 511.782 273.365, 512.214 273.632 C 512.646 273.900, 513 273.390, 513 272.500 C 513 271.610, 512.550 271.160, 512 271.500 C 511.090 272.062, 510.559 270.716, 510.897 268.705 C 511.247 266.616, 507.433 255.845, 504.384 250.315 C 502.509 246.913, 497.682 240.783, 493.658 236.693 C 487.818 230.757, 484.595 228.428, 477.678 225.142 C 472.913 222.878, 467.099 220.699, 464.757 220.299 C 459.903 219.471, 443.748 219.473, 440 220.301 C 438.625 220.605, 436.189 221.134, 434.587 221.476 C 430.646 222.318, 421 227.106, 421 228.221 C 421 228.714, 420.560 228.846, 420.022 228.514 C 418.874 227.804, 401.415 244.749, 402.341 245.674 C 402.686 246.020, 402.276 246.809, 401.429 247.429 C 400.581 248.048, 399.788 249.217, 399.666 250.027 C 399.544 250.837, 399.013 252.175, 398.487 253 C 397.961 253.825, 397.486 254.725, 397.432 255 C 397.377 255.275, 396.768 256.850, 396.077 258.500 C 393.933 263.626, 392.085 274.268, 392.431 279.500 C 392.838 285.646, 393.919 292.991, 394.714 295 C 395.040 295.825, 395.375 296.950, 395.458 297.500 C 396.505 304.424, 406.492 319.089, 413.953 324.659 C 418.191 327.823, 418.678 328.542, 417.674 330.150 C 417.039 331.167, 416.060 332, 415.499 332 C 414.343 332, 411.066 334.958, 406.122 340.465 C 403.399 343.498, 395.473 356.956, 395.206 359 C 395.170 359.275, 394.641 360.815, 394.029 362.422 C 393.418 364.030, 393.112 365.849, 393.348 366.464 C 393.584 367.080, 393.230 368.332, 392.562 369.246 C 391.501 370.697, 388.648 370.928, 370.173 371.060 C 358.528 371.143, 349 371.501, 348.999 371.855 C 348.999 372.210, 347.867 372.565, 346.484 372.645 C 345.101 372.725, 342.738 373.613, 341.234 374.618 C 339.731 375.623, 338.220 376.364, 337.878 376.265 C 336.894 375.981, 327.688 386.173, 325.693 389.755 C 324.700 391.540, 324.192 393, 324.566 393 C 324.939 393, 324.701 393.655, 324.036 394.456 C 323.372 395.257, 323.118 396.382, 323.473 396.956 C 323.828 397.530, 323.732 398, 323.259 398 C 322.081 398, 321.704 411.561, 322.822 413.741 C 323.318 414.709, 324.019 416.738, 324.381 418.250 L 325.038 421 256.080 421 L 187.121 421 188.684 416.413 C 190.828 410.122, 190.077 398.162, 187.120 391.500 C 184.280 385.102, 174.504 375.754, 168.185 373.394 C 164.409 371.984, 159.280 371.566, 141.748 371.238 L 119.996 370.831 119.360 368.165 C 119.010 366.699, 118.476 365.069, 118.174 364.542 C 117.872 364.016, 117.504 362.447, 117.356 361.057 C 117.207 359.666, 116.617 358.372, 116.043 358.181 C 115.469 357.990, 115 356.920, 115 355.803 C 115 353.480, 111.044 346, 109.816 346 C 109.367 346, 109 345.365, 109 344.589 C 109 343.813, 107.615 342.013, 105.923 340.589 C 104.231 339.165, 103.138 338, 103.495 338 C 104.354 338, 102.425 336.194, 97.250 332.152 C 92.868 328.729, 91.927 327, 94.444 327 C 96.560 327, 108.171 315.023, 110.500 310.437 C 111.600 308.272, 112.805 306.268, 113.178 305.985 C 113.551 305.702, 115.098 301.877, 116.616 297.485 C 118.950 290.734, 119.376 287.877, 119.372 279 C 119.366 266.448, 117.577 259.536, 111.735 249.500 C 105.991 239.631, 101.550 234.810, 93 229.163 C 84.912 223.821, 79.060 221.377, 72 220.391 C 65.785 219.523, 54.453 218.839, 54 219.305 M 52 240.403 C 44.391 242.112, 37.754 245.502, 33.014 250.103 C 30.806 252.245, 29 254.340, 29 254.759 C 29 255.178, 27.987 256.641, 26.750 258.010 C 25.512 259.380, 24.375 261.254, 24.223 262.176 C 24.071 263.099, 23.167 266.249, 22.215 269.176 C 20.585 274.188, 20.607 281.485, 22.278 289.500 C 24.308 299.242, 34.296 310.369, 44.821 314.612 C 58.284 320.041, 69.884 318.810, 82.176 310.650 C 86.397 307.848, 89.772 305.237, 89.676 304.848 C 89.579 304.459, 90.207 303.547, 91.070 302.821 C 91.934 302.094, 94.120 298.208, 95.929 294.185 C 98.572 288.304, 99.199 285.657, 99.124 280.680 C 98.988 271.617, 97.650 265.785, 94.456 260.335 C 92.898 257.676, 91.725 255.369, 91.850 255.208 C 92.423 254.474, 83.343 246.960, 79.079 244.639 C 74.378 242.081, 63.368 238.965, 59.500 239.099 C 58.400 239.137, 55.025 239.723, 52 240.403 M 443.869 240.617 C 440.916 241.282, 438.275 241.926, 438 242.048 C 437.725 242.171, 436.375 242.747, 435 243.330 C 432.132 244.545, 423.878 250.824, 422.728 252.665 C 422.303 253.345, 421.349 254.508, 420.608 255.250 C 415.641 260.216, 410.651 280.391, 413.321 284.710 C 413.665 285.268, 414.057 287.170, 414.192 288.938 C 414.327 290.706, 414.789 292.369, 415.219 292.635 C 415.648 292.901, 416 293.814, 416 294.665 C 416 296.088, 417.586 298.372, 423.168 304.983 C 431.008 314.270, 444.660 319.182, 457.225 317.237 C 466.085 315.866, 473.858 312.038, 479.435 306.300 C 484.133 301.466, 489.646 292.095, 490.210 287.983 C 490.397 286.617, 490.792 285.050, 491.087 284.500 C 491.675 283.404, 491.623 282.224, 490.579 272.999 C 489.936 267.313, 489.344 265.414, 486.837 261 C 486.369 260.175, 485.426 258.385, 484.743 257.022 C 482.855 253.257, 478.098 248.790, 472.041 245.093 C 469.039 243.261, 466.114 241.670, 465.541 241.557 C 464.969 241.444, 462.025 240.828, 459 240.189 C 452.797 238.877, 451.423 238.916, 443.869 240.617 M 0.232 281 C 0.232 282.925, 0.438 283.712, 0.689 282.750 C 0.941 281.788, 0.941 280.212, 0.689 279.250 C 0.438 278.288, 0.232 279.075, 0.232 281 M 53.500 340.054 C 51.300 340.456, 49.163 340.581, 48.750 340.333 C 48.337 340.085, 48 340.268, 48 340.740 C 48 341.212, 46.313 342.201, 44.250 342.937 C 41.004 344.097, 34.812 348.232, 31.452 351.486 C 30.104 352.792, 24 361.702, 24 362.365 C 24 362.643, 23.481 364.137, 22.846 365.685 C 22.212 367.233, 21.454 369.175, 21.163 370 C 20.872 370.825, 20.472 395.012, 20.275 423.750 L 19.916 476 59.958 476 L 100 476 100 458.500 L 100 441 89.538 441 C 79.245 441, 70.605 439.005, 66.161 435.604 C 58.879 430.030, 52.383 421.507, 51.600 416.500 C 51.514 415.950, 51.169 415.050, 50.834 414.500 C 50.499 413.950, 50.158 405.400, 50.076 395.500 L 49.928 377.500 52.504 374.750 C 54.645 372.465, 55.921 372, 60.047 372 C 64.135 372, 65.410 372.455, 67.257 374.574 C 69.336 376.961, 69.537 378.365, 70.008 393.824 C 70.586 412.782, 71.250 414.863, 78.039 419 C 80.079 420.243, 86.657 420.553, 116.500 420.812 C 136.300 420.983, 154.448 420.838, 156.828 420.489 C 162.784 419.615, 168.521 414.395, 169.372 409.076 C 170.263 403.505, 168.189 398.249, 163.660 394.597 L 159.819 391.500 132.321 391 L 104.822 390.500 102.411 387.694 C 100.684 385.685, 100 383.687, 100 380.654 C 100 374.892, 97.479 365.651, 94.328 359.861 C 91.696 355.025, 82.087 345, 80.084 345 C 79.488 345, 79 344.550, 79 344 C 79 343.450, 78.354 343, 77.565 343 C 76.776 343, 74.863 342.486, 73.315 341.859 C 70.075 340.545, 69.289 340.394, 62.500 339.777 C 59.750 339.527, 55.700 339.652, 53.500 340.054 M 445.500 340.054 C 443.300 340.456, 441.163 340.581, 440.750 340.333 C 440.337 340.085, 440 340.268, 440 340.740 C 440 341.212, 438.313 342.201, 436.250 342.937 C 433.004 344.097, 426.812 348.232, 423.452 351.486 C 422.104 352.792, 416 361.702, 416 362.365 C 416 362.643, 415.481 364.137, 414.846 365.685 C 413.392 369.234, 413.252 369.905, 412.103 378.893 C 410.562 390.948, 412.015 390.408, 379.545 391 C 353.853 391.469, 351.969 391.629, 349.382 393.562 C 342.821 398.466, 340.655 406.126, 344 412.598 C 348.112 420.554, 347.783 420.500, 392.579 420.500 C 430.687 420.500, 431.936 420.439, 434.615 418.438 C 441.074 413.615, 441.456 412.353, 442 394.003 C 442.464 378.352, 442.660 376.965, 444.743 374.574 C 446.590 372.455, 447.865 372, 451.953 372 C 456.076 372, 457.359 372.467, 459.511 374.750 L 462.102 377.500 461.801 396.500 C 461.507 415.086, 461.439 415.620, 458.684 421 C 454.982 428.231, 449.131 434.107, 442.156 437.599 C 437.066 440.147, 435.274 440.470, 424.250 440.818 L 412 441.206 412 458.603 L 412 476 452 476 L 492 476 492 426.210 C 492 372.139, 491.812 369.937, 486.328 359.861 C 483.696 355.025, 474.087 345, 472.084 345 C 471.488 345, 471 344.550, 471 344 C 471 343.450, 470.354 343, 469.565 343 C 468.776 343, 466.863 342.486, 465.315 341.859 C 462.075 340.545, 461.289 340.394, 454.500 339.777 C 451.750 339.527, 447.700 339.652, 445.500 340.054 M 0.469 431 C 0.469 463.725, 0.595 477.113, 0.749 460.750 C 0.904 444.387, 0.904 417.612, 0.749 401.250 C 0.595 384.887, 0.469 398.275, 0.469 431 M 120 458.500 L 120 476 256 476 L 392 476 392 458.500 L 392 441 256 441 L 120 441 120 458.500" stroke="none" fill="#2ca1fc" fill-rule="evenodd"/><path d="M 285.422 93 C 285.422 104.275, 285.568 108.888, 285.746 103.250 C 285.924 97.612, 285.924 88.388, 285.746 82.750 C 285.568 77.112, 285.422 81.725, 285.422 93 M 245.422 104 C 245.422 115.275, 245.568 119.888, 245.746 114.250 C 245.924 108.612, 245.924 99.388, 245.746 93.750 C 245.568 88.112, 245.422 92.725, 245.422 104 M 335.423 143.500 C 335.424 155.050, 335.570 159.638, 335.747 153.696 C 335.924 147.753, 335.923 138.303, 335.745 132.696 C 335.567 127.088, 335.422 131.950, 335.423 143.500 M 195.365 143.500 C 195.368 149, 195.536 151.122, 195.738 148.216 C 195.941 145.311, 195.939 140.811, 195.734 138.216 C 195.528 135.622, 195.363 138, 195.365 143.500 M 245.422 183 C 245.422 194.275, 245.568 198.887, 245.746 193.250 C 245.924 187.613, 245.924 178.387, 245.746 172.750 C 245.568 167.113, 245.422 171.725, 245.422 183 M 285.422 194 C 285.422 205.275, 285.568 209.887, 285.746 204.250 C 285.924 198.613, 285.924 189.387, 285.746 183.750 C 285.568 178.113, 285.422 182.725, 285.422 194 M 58.250 239.689 C 59.212 239.941, 60.788 239.941, 61.750 239.689 C 62.712 239.438, 61.925 239.232, 60 239.232 C 58.075 239.232, 57.288 239.438, 58.250 239.689 M 58.250 371.689 C 59.212 371.941, 60.788 371.941, 61.750 371.689 C 62.712 371.438, 61.925 371.232, 60 371.232 C 58.075 371.232, 57.288 371.438, 58.250 371.689 M 450.250 371.689 C 451.212 371.941, 452.788 371.941, 453.750 371.689 C 454.712 371.438, 453.925 371.232, 452 371.232 C 450.075 371.232, 449.288 371.438, 450.250 371.689" stroke="none" fill="#24a4fc" fill-rule="evenodd"/></svg>