<svg xmlns="http://www.w3.org/2000/svg" width="508" height="332" viewBox="0 0 508 332" version="1.1"><path d="M 87.250 73.735 C 89.862 73.941, 94.138 73.941, 96.750 73.735 C 99.362 73.529, 97.225 73.360, 92 73.360 C 86.775 73.360, 84.638 73.529, 87.250 73.735 M 108.638 75.981 C 120.977 79.216, 131.740 85.885, 139.883 95.341 C 143.684 99.754, 148 106.835, 148 108.656 C 148 109.061, 146.313 107.844, 144.250 105.951 C 141.355 103.294, 141.524 103.599, 144.989 107.286 C 150.074 112.697, 151.133 112.174, 147.946 105.825 C 140.852 91.693, 126.988 80.335, 111.068 75.612 C 108.081 74.725, 104.706 74.025, 103.568 74.055 C 102.431 74.085, 104.712 74.952, 108.638 75.981 M 45.811 91.750 C 40.414 97.265, 34 106.300, 34 108.387 C 34 108.934, 35.601 106.709, 37.558 103.441 C 39.514 100.174, 43.663 94.912, 46.776 91.750 C 49.890 88.588, 52.212 86, 51.937 86 C 51.662 86, 48.905 88.588, 45.811 91.750 M 209.762 92.707 C 211.006 92.946, 212.806 92.937, 213.762 92.687 C 214.718 92.437, 213.700 92.241, 211.500 92.252 C 209.300 92.263, 208.518 92.468, 209.762 92.707 M 410.762 92.707 C 412.006 92.946, 413.806 92.937, 414.762 92.687 C 415.718 92.437, 414.700 92.241, 412.500 92.252 C 410.300 92.263, 409.518 92.468, 410.762 92.707 M 220.250 93.689 C 221.213 93.941, 222.787 93.941, 223.750 93.689 C 224.713 93.438, 223.925 93.232, 222 93.232 C 220.075 93.232, 219.287 93.438, 220.250 93.689 M 304.762 93.707 C 306.006 93.946, 307.806 93.937, 308.762 93.687 C 309.718 93.437, 308.700 93.241, 306.500 93.252 C 304.300 93.263, 303.518 93.468, 304.762 93.707 M 325.250 93.689 C 326.212 93.941, 327.788 93.941, 328.750 93.689 C 329.712 93.438, 328.925 93.232, 327 93.232 C 325.075 93.232, 324.288 93.438, 325.250 93.689 M 395.750 94.600 C 393.137 95.403, 391 96.320, 391 96.637 C 391 96.954, 391.788 96.900, 392.750 96.517 C 393.712 96.133, 397.200 95.221, 400.500 94.489 C 404.213 93.666, 405.357 93.155, 403.500 93.149 C 401.850 93.144, 398.363 93.797, 395.750 94.600 M 105.280 94.736 C 107.909 94.943, 111.959 94.940, 114.280 94.731 C 116.601 94.521, 114.450 94.352, 109.500 94.355 C 104.550 94.358, 102.651 94.530, 105.280 94.736 M 234.083 96.373 C 235.112 97.294, 241 99.999, 241 99.551 C 241 98.975, 235.456 96, 234.383 96 C 233.989 96, 233.854 96.168, 234.083 96.373 M 285.946 99.859 C 283.501 101.432, 280.379 104.019, 279.009 105.609 C 276.677 108.316, 276.741 108.298, 280.009 105.319 C 281.929 103.569, 285.525 100.987, 288 99.581 C 290.475 98.175, 292.026 97.019, 291.446 97.012 C 290.866 97.005, 288.391 98.287, 285.946 99.859 M 384.341 99.868 C 380.001 103.012, 373 110.749, 373 112.403 C 373 112.976, 373.744 112.332, 374.653 110.973 C 377.643 106.502, 381.432 102.775, 385.946 99.866 C 388.391 98.290, 389.921 97, 389.346 97 C 388.771 97, 386.518 98.291, 384.341 99.868 M 82.815 100.902 C 80.298 102.498, 77.883 104.411, 77.448 105.152 C 76.998 105.919, 77.485 105.779, 78.578 104.829 C 79.635 103.909, 82.525 102.002, 85 100.591 C 87.475 99.179, 89.026 98.019, 88.446 98.012 C 87.866 98.005, 85.332 99.306, 82.815 100.902 M 181.828 101.283 C 177.603 104.488, 170.991 113.094, 171.009 115.363 C 171.015 115.988, 172.338 114.200, 173.951 111.388 C 176.739 106.527, 179.540 103.600, 185.041 99.802 C 186.394 98.869, 187.197 98.081, 186.828 98.052 C 186.458 98.024, 184.208 99.477, 181.828 101.283 M 443.709 101.552 C 445.474 102.943, 448.098 105.526, 449.540 107.291 C 450.982 109.056, 451.699 109.561, 451.134 108.414 C 450.027 106.170, 442.481 98.993, 441.247 99.011 C 440.836 99.017, 441.944 100.160, 443.709 101.552 M 349.492 103.004 C 354.234 108.544, 354.299 108.605, 353.214 106.500 C 352.647 105.400, 350.905 103.377, 349.342 102.004 L 346.500 99.507 349.492 103.004 M 207.750 110.732 C 210.088 110.943, 213.912 110.943, 216.250 110.732 C 218.588 110.522, 216.675 110.349, 212 110.349 C 207.325 110.349, 205.412 110.522, 207.750 110.732 M 311.776 110.733 C 314.128 110.945, 317.728 110.942, 319.776 110.727 C 321.824 110.512, 319.900 110.339, 315.500 110.343 C 311.100 110.346, 309.424 110.522, 311.776 110.733 M 406 110.556 C 409.468 111.304, 424.319 111.631, 422.494 110.919 C 421.397 110.491, 416.900 110.161, 412.500 110.186 C 408.100 110.211, 405.175 110.378, 406 110.556 M 225.617 113.402 C 231.223 116.013, 235.284 120.577, 236.825 126 C 237.372 127.925, 237.860 128.742, 237.910 127.815 C 238.059 125.025, 236.035 120.671, 233.186 117.658 C 230.395 114.706, 224.031 110.993, 221.790 111.010 C 221.080 111.015, 222.803 112.092, 225.617 113.402 M 327.345 112.459 C 331.427 113.914, 335.482 117.202, 337.264 120.500 C 337.859 121.600, 338.656 125.200, 339.036 128.500 L 339.726 134.500 339.863 129.566 C 340.049 122.874, 337.170 117.206, 331.827 113.741 C 329.502 112.234, 326.677 111.020, 325.550 111.044 C 324.289 111.071, 324.980 111.616, 327.345 112.459 M 429.160 114.887 C 433.840 117.854, 438 124.410, 438 128.816 C 438 130.926, 438.329 130.993, 447.750 130.792 L 457.500 130.585 448.250 130.255 C 440.462 129.977, 439 129.665, 439 128.278 C 439 123.162, 429.849 112, 425.654 112 C 425.079 112, 426.657 113.299, 429.160 114.887 M 191.589 117.077 C 190.165 118.769, 189.039 121.131, 189.086 122.327 C 189.156 124.094, 189.333 123.962, 190.034 121.619 C 190.509 120.035, 191.899 117.672, 193.123 116.369 C 194.347 115.066, 195.085 114, 194.763 114 C 194.441 114, 193.013 115.385, 191.589 117.077 M 293.437 117.250 L 290.500 120.500 293.750 117.563 C 296.779 114.825, 297.460 114, 296.687 114 C 296.515 114, 295.052 115.463, 293.437 117.250 M 357.272 121 C 357.272 123.475, 357.467 124.487, 357.706 123.250 C 357.944 122.013, 357.944 119.987, 357.706 118.750 C 357.467 117.513, 357.272 118.525, 357.272 121 M 30.343 127.500 C 30.346 131.900, 30.522 133.576, 30.733 131.224 C 30.945 128.872, 30.942 125.272, 30.727 123.224 C 30.512 121.176, 30.339 123.100, 30.343 127.500 M 370.158 126.572 C 369.949 135.905, 372.063 141.852, 377.622 147.572 C 382.004 152.081, 391.622 157.348, 397.500 158.458 C 399.150 158.770, 398.245 158.183, 395.488 157.154 C 377.967 150.615, 372.126 143.675, 370.953 128 L 370.317 119.500 370.158 126.572 M 101.775 122.232 C 103.026 122.835, 111.135 131.917, 119.794 142.414 C 141.936 169.256, 143.495 171.559, 147.530 183.401 C 148.860 187.306, 149.960 189.729, 149.974 188.788 C 150.015 186.071, 146.013 176.127, 142.438 170.059 C 138.533 163.431, 105.765 123.480, 103.036 122.019 C 101.988 121.459, 100.764 121.030, 100.316 121.068 C 99.867 121.105, 100.524 121.629, 101.775 122.232 M 288.942 123.651 C 288.388 125.110, 288.081 126.743, 288.260 127.280 C 288.439 127.817, 289.087 126.624, 289.699 124.628 C 290.986 120.436, 290.435 119.725, 288.942 123.651 M 169.300 127 C 169.300 130.025, 169.487 131.262, 169.716 129.750 C 169.945 128.238, 169.945 125.763, 169.716 124.250 C 169.487 122.737, 169.300 123.975, 169.300 127 M 87.051 125.662 C 84.634 128.735, 83.619 132.053, 84.295 134.671 C 84.575 135.754, 84.815 135.232, 84.884 133.390 C 84.948 131.679, 86.111 128.641, 87.470 126.640 C 90.347 122.399, 90.090 121.799, 87.051 125.662 M 256 127.462 C 256 129.878, 255.823 129.931, 246.750 130.255 L 237.500 130.585 247.250 130.792 L 257 131 257 128 C 257 126.350, 256.775 125, 256.500 125 C 256.225 125, 256 126.108, 256 127.462 M 269.252 129.500 C 269.263 131.700, 269.468 132.482, 269.707 131.238 C 269.946 129.994, 269.937 128.194, 269.687 127.238 C 269.437 126.282, 269.241 127.300, 269.252 129.500 M 390.030 129.694 C 390.014 130.351, 391.012 131.948, 392.250 133.243 C 393.488 134.538, 394 134.901, 393.390 134.049 C 392.779 133.197, 391.781 131.600, 391.170 130.500 C 390.560 129.400, 390.047 129.037, 390.030 129.694 M 61.272 136 C 61.272 138.475, 61.467 139.488, 61.706 138.250 C 61.944 137.012, 61.944 134.988, 61.706 133.750 C 61.467 132.512, 61.272 133.525, 61.272 136 M 170.092 134.500 C 169.916 141.866, 181.291 153.794, 191 156.424 C 192.375 156.796, 190.715 155.716, 187.311 154.023 C 179.881 150.328, 173.528 143.502, 171.554 137.091 C 170.776 134.566, 170.118 133.400, 170.092 134.500 M 194.552 136.084 C 195.237 137.193, 201.039 140.294, 201.524 139.810 C 201.709 139.624, 200.087 138.500, 197.919 137.313 C 195.751 136.125, 194.236 135.572, 194.552 136.084 M 336.500 137.711 C 335.400 139.047, 332.025 140.993, 329 142.037 C 325.975 143.081, 324.400 143.940, 325.500 143.945 C 329.670 143.968, 340.675 137.149, 338.911 135.636 C 338.685 135.442, 337.600 136.376, 336.500 137.711 M 85.015 137.583 C 85.023 138.088, 86.641 140.300, 88.610 142.500 L 92.189 146.500 88.902 142 C 87.094 139.525, 85.476 137.313, 85.307 137.083 C 85.138 136.854, 85.007 137.079, 85.015 137.583 M 62.077 142.500 C 61.952 146.869, 67.287 155.225, 79.956 170.500 C 87.255 179.300, 93.833 187.850, 94.574 189.500 C 95.331 191.184, 95.939 191.772, 95.961 190.840 C 96.003 189.049, 92.976 185.022, 77.740 166.602 C 67.479 154.198, 65.502 151.151, 63.399 144.500 C 62.703 142.300, 62.108 141.400, 62.077 142.500 M 442.083 151.373 C 443.112 152.294, 449 154.999, 449 154.551 C 449 153.975, 443.456 151, 442.383 151 C 441.989 151, 441.854 151.168, 442.083 151.373 M 281.188 153.850 C 275.162 157.062, 265.593 167.926, 267.292 169.625 C 267.533 169.867, 268.268 168.767, 268.925 167.182 C 270.475 163.438, 277.422 156.770, 282.500 154.151 C 284.700 153.017, 286.050 152.087, 285.500 152.086 C 284.950 152.085, 283.009 152.879, 281.188 153.850 M 339.385 165 C 339.385 171.875, 339.545 174.688, 339.740 171.250 C 339.936 167.813, 339.936 162.188, 339.740 158.750 C 339.545 155.313, 339.385 158.125, 339.385 165 M 453.955 159.500 C 456.367 162.250, 458.550 164.725, 458.806 165 C 459.062 165.275, 458.797 164.600, 458.218 163.500 C 457.638 162.400, 455.455 159.925, 453.367 158 C 449.758 154.673, 449.787 154.748, 453.955 159.500 M 198.500 159 C 199.600 159.473, 201.175 159.859, 202 159.859 C 202.945 159.859, 202.761 159.542, 201.500 159 C 200.400 158.527, 198.825 158.141, 198 158.141 C 197.055 158.141, 197.239 158.458, 198.500 159 M 402.500 160 C 403.600 160.473, 405.400 160.846, 406.500 160.830 C 408.108 160.806, 408.010 160.644, 406 160 C 402.581 158.905, 399.952 158.905, 402.500 160 M 215.500 163.374 C 222.100 165.144, 229.356 167.564, 231.624 168.752 C 236.492 171.302, 240.953 176.271, 241.116 179.327 C 241.207 181.033, 241.331 181.122, 241.691 179.740 C 242.512 176.593, 238.283 171.429, 232.257 168.221 C 227.119 165.486, 208.216 159.876, 204.819 160.079 C 204.093 160.122, 208.900 161.605, 215.500 163.374 M 257.313 164.919 C 258.500 167.087, 259.624 168.709, 259.810 168.524 C 260.294 168.039, 257.193 162.237, 256.084 161.552 C 255.572 161.236, 256.125 162.751, 257.313 164.919 M 421 164.617 C 436.173 169.099, 440.907 173.054, 442.157 182.291 L 442.862 187.500 442.597 181.728 C 442.376 176.920, 441.845 175.443, 439.416 172.886 C 437.812 171.198, 434.925 169.009, 433 168.021 C 428.847 165.890, 416.484 161.978, 414.145 162.053 C 413.240 162.082, 416.325 163.236, 421 164.617 M 285.449 174.468 C 284.652 176.375, 284.064 180.313, 284.142 183.218 L 284.284 188.500 284.961 182 C 285.334 178.425, 286.185 174.488, 286.854 173.250 C 287.523 172.012, 287.807 171, 287.484 171 C 287.162 171, 286.246 172.561, 285.449 174.468 M 261.310 180.500 C 261.315 183.800, 261.502 185.029, 261.725 183.232 C 261.947 181.435, 261.943 178.735, 261.715 177.232 C 261.486 175.729, 261.304 177.200, 261.310 180.500 M 167.160 180.750 C 167.318 184.442, 167.326 184.450, 167.723 181.250 L 168.127 178 176.480 178 C 182.227 178, 184.991 178.390, 185.338 179.250 C 185.639 179.997, 185.874 179.795, 185.921 178.750 C 185.991 177.201, 184.911 177, 176.500 177 L 167 177 167.160 180.750 M 367.651 177.750 C 367.395 178.162, 371.383 178.357, 376.514 178.183 C 385.588 177.875, 385.856 177.930, 386.286 180.183 C 386.680 182.252, 386.742 182.206, 386.864 179.750 L 387 177 377.559 177 C 372.366 177, 367.908 177.338, 367.651 177.750 M 368.496 185.500 C 369.180 192.235, 374.106 201.960, 379.136 206.504 C 384.194 211.073, 393.971 215.740, 400 216.462 C 404.168 216.961, 404.077 216.892, 398.773 215.529 C 382.422 211.326, 372.970 202.019, 369.403 186.611 C 367.996 180.534, 367.991 180.528, 368.496 185.500 M 168.593 188.445 C 170.156 199.241, 181.481 211.805, 192 214.412 C 193.375 214.753, 192.195 213.950, 189.378 212.629 C 179.699 208.088, 172.417 199.558, 169.401 189.224 C 168.094 184.748, 168.052 184.707, 168.593 188.445 M 461.123 186.500 C 461.040 187.600, 460.741 189.625, 460.458 191 L 459.944 193.500 461.015 191.047 C 461.604 189.698, 461.903 187.673, 461.679 186.547 C 461.283 184.553, 461.268 184.552, 461.123 186.500 M 331 190.668 C 327.313 194.481, 327.090 194.895, 329.766 192.961 C 332.435 191.032, 336.800 185.979, 335.773 186.008 C 335.623 186.012, 333.475 188.109, 331 190.668 M 119.310 192.500 C 119.315 195.800, 119.502 197.029, 119.725 195.232 C 119.947 193.435, 119.943 190.735, 119.715 189.232 C 119.486 187.729, 119.304 189.200, 119.310 192.500 M 441 188.757 C 441 189.356, 439.778 191.344, 438.285 193.173 C 436.053 195.909, 435.980 196.147, 437.878 194.511 C 440.573 192.188, 442.412 189.078, 441.581 188.248 C 441.261 187.928, 441 188.157, 441 188.757 M 392 192.382 C 393.375 193.926, 395.850 195.829, 397.500 196.609 C 399.205 197.416, 399.678 197.483, 398.596 196.764 C 397.548 196.069, 395.073 194.167, 393.096 192.537 L 389.500 189.574 392 192.382 M 150.252 194.500 C 150.263 196.700, 150.468 197.482, 150.707 196.238 C 150.946 194.994, 150.937 193.194, 150.687 192.238 C 150.437 191.282, 150.241 192.300, 150.252 194.500 M 237.872 192.662 C 237.118 193.576, 235.150 195.150, 233.500 196.158 C 231.850 197.167, 231.069 197.994, 231.765 197.996 C 233.021 198, 241.073 191.079, 239.872 191.027 C 239.527 191.012, 238.627 191.748, 237.872 192.662 M 287.918 194.363 C 289.249 196.003, 293 198.483, 293 197.723 C 293 197.532, 291.538 196.305, 289.750 194.997 C 287.739 193.525, 287.040 193.283, 287.918 194.363 M 358.116 195.628 C 358.052 196.798, 358.788 198.373, 359.750 199.128 C 361.272 200.321, 361.351 200.305, 360.358 199 C 359.729 198.175, 358.994 196.600, 358.724 195.500 C 358.257 193.600, 358.226 193.607, 358.116 195.628 M 266 195.946 C 266 198.451, 271.114 206.919, 274.201 209.525 C 278.158 212.866, 286.718 217.004, 289.500 216.921 C 290.600 216.888, 289.417 216.219, 286.870 215.435 C 278.708 212.922, 272.917 208.226, 269.271 201.163 C 267.472 197.677, 266 195.330, 266 195.946 M 316 198.550 C 312.949 199.424, 312.305 199.850, 314 199.874 C 315.375 199.894, 317.850 199.292, 319.500 198.536 C 323.192 196.845, 321.934 196.850, 316 198.550 M 74 201.500 C 75.866 203.425, 77.617 205, 77.892 205 C 78.167 205, 76.866 203.425, 75 201.500 C 73.134 199.575, 71.383 198, 71.108 198 C 70.833 198, 72.134 199.575, 74 201.500 M 367.702 199.794 C 368.404 200.241, 369.049 203.663, 369.253 208.029 L 369.603 215.500 369.801 207.250 C 369.976 199.979, 369.792 199.002, 368.250 199.015 C 367.059 199.026, 366.884 199.275, 367.702 199.794 M 212.768 200.725 C 214.565 200.947, 217.265 200.943, 218.768 200.715 C 220.271 200.486, 218.800 200.304, 215.500 200.310 C 212.200 200.315, 210.971 200.502, 212.768 200.725 M 303.250 200.716 C 304.762 200.945, 307.238 200.945, 308.750 200.716 C 310.262 200.487, 309.025 200.300, 306 200.300 C 302.975 200.300, 301.738 200.487, 303.250 200.716 M 338.405 201.155 C 337.980 201.841, 338.128 202.039, 338.770 201.642 C 339.363 201.276, 340.055 201.769, 340.308 202.738 C 340.658 204.079, 340.796 203.962, 340.884 202.250 C 341.007 199.858, 339.592 199.233, 338.405 201.155 M 413.768 200.725 C 415.565 200.947, 418.265 200.943, 419.768 200.715 C 421.271 200.486, 419.800 200.304, 416.500 200.310 C 413.200 200.315, 411.971 200.502, 413.768 200.725 M 88.500 204.068 C 86.850 205.125, 86.013 205.992, 86.639 205.995 C 87.266 205.998, 88.841 205.115, 90.139 204.033 C 93.112 201.556, 92.397 201.572, 88.500 204.068 M 150.232 205 C 150.232 206.925, 150.438 207.713, 150.689 206.750 C 150.941 205.787, 150.941 204.213, 150.689 203.250 C 150.438 202.287, 150.232 203.075, 150.232 205 M 251.437 205.250 L 248.500 208.500 251.750 205.563 C 254.779 202.825, 255.460 202, 254.687 202 C 254.515 202, 253.052 203.463, 251.437 205.250 M 114.654 208.599 C 112.370 213.389, 103.535 222.602, 98.264 225.691 C 93.273 228.616, 92.541 229.806, 97.221 227.386 C 103.927 223.918, 118.706 207.373, 116.801 205.467 C 116.557 205.224, 115.592 206.633, 114.654 208.599 M 341.086 206.300 C 340.832 211.618, 347.805 218.112, 353.500 217.860 C 356.165 217.742, 356.221 217.682, 354 217.317 C 347.332 216.223, 343.821 213.240, 341.956 207.086 C 341.441 205.387, 341.142 205.117, 341.086 206.300 M 157.584 209.359 C 157.931 210.261, 158.602 211, 159.076 211 C 159.549 211, 159.684 211.787, 159.374 212.750 C 158.898 214.232, 158.979 214.270, 159.906 213 C 160.858 211.694, 161.121 211.688, 161.934 212.952 C 163.131 214.813, 162.359 216.075, 160.468 215.349 C 159.424 214.949, 159.020 215.466, 159.070 217.143 C 159.124 218.954, 159.298 219.117, 159.820 217.849 C 160.420 216.394, 160.690 216.453, 162.104 218.349 C 163.661 220.438, 163.612 220.502, 160.413 220.573 C 158.601 220.612, 157.162 220.387, 157.215 220.073 C 157.269 219.758, 156.821 218.375, 156.220 217 C 155.565 215.503, 155.061 215.102, 154.964 216 C 154.874 216.825, 154.440 216.375, 154 215 C 153.286 212.769, 153.189 212.728, 153.100 214.615 C 153.045 215.778, 153.952 217.940, 155.115 219.419 C 156.833 221.603, 157.911 222.050, 160.865 221.804 C 163.519 221.582, 164.393 221.095, 164.104 220 C 163.886 219.175, 163.692 216.836, 163.673 214.803 C 163.653 212.770, 163.269 211.334, 162.819 211.612 C 162.368 211.890, 162 211.641, 162 211.059 C 162 208.723, 164.189 210.207, 165.551 213.468 C 167.302 217.658, 167.353 218.336, 165.845 217.405 C 165.124 216.959, 164.963 217.131, 165.415 217.862 C 166.617 219.807, 167.869 218.167, 167.805 214.733 C 167.718 210.132, 165.497 207.861, 162.280 209.084 C 160.539 209.746, 159.322 209.683, 158.355 208.880 C 157.232 207.948, 157.079 208.042, 157.584 209.359 M 454.557 210.223 C 450.977 215.334, 454.091 222, 460.059 222 C 461.957 222, 462.870 221.598, 462.464 220.941 C 462.104 220.358, 460.839 220.007, 459.654 220.160 C 456.948 220.510, 454.754 219.207, 455.638 217.776 C 456.024 217.152, 455.847 216.977, 455.221 217.363 C 454.524 217.794, 454.163 216.964, 454.218 215.052 C 454.267 213.298, 454.722 212.328, 455.321 212.698 C 455.933 213.076, 456.089 212.675, 455.714 211.696 C 455.369 210.798, 455.455 209.837, 455.904 209.559 C 457.397 208.637, 457.688 209.968, 456.994 214.543 C 456.616 217.033, 456.687 219.307, 457.153 219.595 C 457.619 219.883, 458 218.051, 458 215.524 C 458 211.075, 458.071 210.967, 460.250 212.115 C 461.488 212.766, 462.831 213.795, 463.235 214.400 C 463.724 215.132, 463.974 215.035, 463.985 214.110 C 463.993 213.346, 463.212 212.123, 462.250 211.392 C 461.280 210.655, 461.032 210.049, 461.693 210.032 C 462.350 210.014, 463.587 211, 464.443 212.223 C 465.534 213.780, 466.035 214.004, 466.118 212.973 C 466.183 212.163, 466.580 212.850, 467 214.500 C 467.642 217.025, 467.782 217.133, 467.882 215.184 C 468.059 211.721, 466.265 208.961, 464.321 209.707 C 463.155 210.154, 462.902 209.967, 463.457 209.070 C 464.083 208.057, 463.791 208.041, 462.013 208.993 C 460.402 209.855, 459.483 209.883, 458.693 209.093 C 457.108 207.508, 456.304 207.728, 454.557 210.223 M 154.697 210.346 C 154.416 211.081, 154.636 212.316, 155.187 213.091 C 155.991 214.222, 156.083 214.168, 155.651 212.815 C 155.355 211.888, 155.627 210.958, 156.257 210.748 C 157.075 210.475, 157.089 210.173, 156.306 209.689 C 155.703 209.316, 154.979 209.612, 154.697 210.346 M 32.099 218.750 C 33.215 221.363, 34.600 223.950, 35.178 224.500 C 35.756 225.050, 35.486 224.028, 34.577 222.229 L 32.926 218.957 37.614 222.535 C 45.413 228.488, 56.689 233.114, 62.932 232.921 C 64.344 232.877, 62.575 232.208, 59 231.433 C 49.672 229.413, 41.058 224.839, 35.605 219.009 C 33.028 216.254, 30.729 214, 30.495 214 C 30.262 214, 30.984 216.137, 32.099 218.750 M 196.500 215.953 C 198.420 216.823, 203.776 217.390, 202.917 216.633 C 202.688 216.431, 200.700 215.991, 198.500 215.656 C 195.712 215.232, 195.106 215.322, 196.500 215.953 M 461.420 217.879 C 463.583 220.164, 464.668 220.690, 465.610 219.909 C 466.309 219.328, 466.600 218.122, 466.257 217.227 C 465.856 216.184, 465.490 216.031, 465.233 216.801 C 464.713 218.361, 461.923 218.369, 462.250 216.809 C 462.387 216.155, 461.600 215.433, 460.500 215.206 C 458.798 214.855, 458.935 215.253, 461.420 217.879 M 208.750 217.737 C 211.637 217.939, 216.363 217.939, 219.250 217.737 C 222.137 217.535, 219.775 217.370, 214 217.370 C 208.225 217.370, 205.863 217.535, 208.750 217.737 M 293.750 217.706 C 294.988 217.944, 297.012 217.944, 298.250 217.706 C 299.488 217.467, 298.475 217.272, 296 217.272 C 293.525 217.272, 292.512 217.467, 293.750 217.706 M 304.762 217.707 C 306.006 217.946, 307.806 217.937, 308.762 217.687 C 309.718 217.437, 308.700 217.241, 306.500 217.252 C 304.300 217.263, 303.518 217.468, 304.762 217.707 M 358.250 217.689 C 359.212 217.941, 360.788 217.941, 361.750 217.689 C 362.712 217.438, 361.925 217.232, 360 217.232 C 358.075 217.232, 357.288 217.438, 358.250 217.689 M 409.784 217.738 C 412.689 217.941, 417.189 217.939, 419.784 217.734 C 422.378 217.528, 420 217.363, 414.500 217.365 C 409 217.368, 406.878 217.536, 409.784 217.738 M 36.910 227.832 C 37.450 228.840, 38.676 230.302, 39.637 231.082 C 40.717 231.960, 40.475 231.261, 39.003 229.250 C 36.377 225.662, 35.392 224.995, 36.910 227.832 M 134.462 236.250 L 129.500 241.500 134.750 236.538 C 139.628 231.926, 140.459 231, 139.712 231 C 139.554 231, 137.192 233.363, 134.462 236.250 M 44 236.500 C 45.866 238.425, 47.617 240, 47.892 240 C 48.167 240, 46.866 238.425, 45 236.500 C 43.134 234.575, 41.383 233, 41.108 233 C 40.833 233, 42.134 234.575, 44 236.500 M 69.264 233.718 C 70.784 233.947, 73.034 233.941, 74.264 233.704 C 75.494 233.467, 74.250 233.279, 71.500 233.286 C 68.750 233.294, 67.744 233.488, 69.264 233.718 M 118 247.500 C 115.525 248.825, 113.855 249.930, 114.290 249.955 C 115.352 250.016, 123 246.086, 123 245.480 C 123 244.817, 123.041 244.800, 118 247.500 M 66.500 250.536 C 68.150 251.292, 70.175 251.896, 71 251.879 C 71.825 251.862, 70.925 251.241, 69 250.500 C 64.434 248.742, 62.638 248.768, 66.500 250.536 M 97.250 253.689 C 98.213 253.941, 99.787 253.941, 100.750 253.689 C 101.713 253.438, 100.925 253.232, 99 253.232 C 97.075 253.232, 96.287 253.438, 97.250 253.689 M 87.762 254.707 C 89.006 254.946, 90.806 254.937, 91.762 254.687 C 92.718 254.437, 91.700 254.241, 89.500 254.252 C 87.300 254.263, 86.518 254.468, 87.762 254.707" stroke="none" fill="#77ade7" fill-rule="evenodd"/><path d="M 73.973 75.826 C 54.678 81.204, 38.219 96.591, 32.849 114.271 C 31.174 119.785, 30.856 122.924, 31.224 130.313 C 32.044 146.769, 36.642 155.461, 58.570 182 C 76.049 203.154, 77.711 204.855, 81.623 205.589 C 86.060 206.421, 92.388 202.809, 94.579 198.192 C 97.225 192.615, 95.463 189.247, 80.351 171 C 72.836 161.925, 65.654 152.275, 64.391 149.556 C 61.095 142.459, 60.476 135.593, 62.441 127.925 C 64.555 119.672, 67.831 114.193, 74.683 107.449 C 84.652 97.638, 97.806 93.218, 113.819 94.298 C 126.901 95.181, 136.788 99.024, 144.784 106.335 L 149.340 110.500 146.097 104.375 C 139.796 92.474, 126.105 81.416, 112 76.837 C 102.705 73.819, 83.047 73.296, 73.973 75.826 M 199.156 94.536 C 181.895 98.282, 171.301 109.066, 170.234 123.975 C 169.250 137.726, 175.224 148.141, 187.440 153.972 C 190.907 155.626, 201.107 158.815, 210.109 161.058 C 235.105 167.286, 242 171.908, 242 182.434 C 242 194.518, 232.934 200.542, 215 200.373 C 204.743 200.277, 198.927 198.707, 193.507 194.573 C 190.278 192.110, 186.506 185.580, 185.522 180.750 C 184.964 178.010, 184.930 178, 176.481 178 L 168 178 168.012 180.750 C 168.031 185.157, 170.618 193.672, 173.358 198.348 C 180.689 210.858, 194.383 217.016, 214.799 216.985 C 236.194 216.953, 251.040 209.764, 257.694 196.214 C 260.201 191.110, 260.500 189.433, 260.500 180.500 C 260.500 171.260, 260.272 170.088, 257.500 165.079 C 252.036 155.206, 244.753 151.371, 219.334 144.981 C 201.062 140.387, 196.504 138.477, 192.250 133.632 C 189.543 130.549, 189 129.124, 189 125.100 C 189 119.326, 191.258 115.977, 197.345 112.722 C 200.881 110.831, 203.064 110.500, 212 110.500 C 220.893 110.500, 223.127 110.835, 226.595 112.691 C 232.315 115.752, 236.855 121.243, 237.620 126.026 L 238.256 130 247.128 130 C 257.379 130, 257.244 130.195, 254.450 119.470 C 252.672 112.644, 248.337 105.365, 244.251 102.343 C 233.281 94.233, 215.075 91.081, 199.156 94.536 M 305 93.997 C 284.683 97.287, 271.853 109.497, 270.261 127.059 L 269.722 133 278.290 133 L 286.858 133 287.973 127.628 C 290.104 117.363, 297.725 111.511, 310.514 110.316 C 329.741 108.521, 340.970 116.290, 339.786 130.569 C 338.992 140.140, 334.910 142.587, 314 146.022 C 290.844 149.826, 280.683 153.527, 273.799 160.664 C 267.678 167.009, 265.596 172.933, 265.596 184 C 265.596 194.208, 267.303 199.775, 272.535 206.635 C 276.020 211.204, 285.965 215.837, 294.500 216.868 C 310.303 218.776, 325.100 214.312, 335.268 204.569 C 337.890 202.056, 340.195 200, 340.390 200 C 340.585 200, 341.047 201.892, 341.417 204.204 C 342.305 209.762, 345.328 214.479, 348.967 215.986 C 352.628 217.503, 362.471 217.462, 366.208 215.914 C 368.911 214.794, 369 214.520, 369 207.299 L 369 199.841 365.959 200.509 C 363.929 200.955, 362.131 200.660, 360.547 199.623 L 358.175 198.069 357.772 157.784 C 357.422 122.884, 357.140 116.908, 355.664 113.069 C 352.174 103.990, 346.075 98.587, 335.903 95.562 C 329.378 93.621, 312.577 92.771, 305 93.997 M 400.317 94.434 C 387.105 97.453, 378.210 103.783, 373.420 113.575 C 371.068 118.381, 370.837 119.836, 371.175 127.716 C 371.988 146.707, 379.781 153.330, 410.325 160.987 C 428.709 165.596, 434.603 167.964, 439.010 172.510 C 445.069 178.762, 444.014 189.895, 436.856 195.244 C 431.582 199.185, 426.392 200.466, 416 200.389 C 399.509 200.267, 389.840 194.460, 386.877 182.897 L 385.622 178 376.766 178 L 367.909 178 368.536 181.750 C 372.608 206.098, 387.105 216.970, 415.500 216.970 C 441.502 216.970, 456.992 206.952, 460.998 187.545 C 462.346 181.011, 461.762 172.759, 459.580 167.537 C 457.379 162.270, 451.118 156.088, 444.703 152.850 C 441.449 151.208, 431.072 147.862, 421.643 145.416 C 403.233 140.641, 395.224 137.371, 392.050 133.337 C 386.758 126.608, 389.492 116.899, 397.796 112.927 C 404.334 109.801, 416.837 109.121, 424.003 111.501 C 430.787 113.754, 436.603 119.486, 438.213 125.505 L 439.415 130 448.253 130 L 457.091 130 456.464 126.250 C 453.622 109.255, 446.505 100.406, 432.085 95.938 C 423.459 93.265, 408.525 92.558, 400.317 94.434 M 91.299 122.960 C 87.578 125.228, 85 129.667, 85 133.807 C 85 137.110, 87.363 140.435, 103.251 159.490 C 117.129 176.134, 119.391 180.673, 119.453 192 C 119.495 199.588, 119.156 201.202, 116.295 207.048 C 112.724 214.346, 103.132 224.362, 96.450 227.771 C 88.815 231.665, 80.953 233.393, 71 233.364 C 57.195 233.323, 47.703 230.237, 37.550 222.486 L 32.799 218.860 35.649 224.178 C 39.472 231.309, 50.122 241.776, 57.500 245.652 C 83.703 259.419, 114.833 255.356, 134.588 235.591 C 154.315 215.853, 155.628 189.253, 138.072 165 C 130.563 154.627, 103.703 123.186, 101.489 122.177 C 97.812 120.502, 94.972 120.720, 91.299 122.960 M 335.985 154.993 C 332.468 156.808, 328.673 157.650, 311.142 160.510 C 290.834 163.823, 282.659 171.410, 284.244 185.471 C 285.347 195.255, 293.108 200.488, 306.500 200.476 C 320.044 200.464, 331.107 194.691, 336.536 184.802 C 339.121 180.093, 339.489 178.326, 339.820 169 C 340.025 163.225, 340.037 157.303, 339.846 155.840 L 339.500 153.180 335.985 154.993 M 157.052 208.947 C 156.104 209.546, 157.007 209.675, 159.666 209.318 C 163.128 208.854, 163.969 209.118, 165.364 211.109 C 166.264 212.394, 167 212.965, 167 212.377 C 167 209.106, 160.399 206.829, 157.052 208.947 M 460.587 208.943 C 462.285 209.349, 464.310 210.011, 465.087 210.415 C 465.864 210.818, 465.626 210.440, 464.559 209.574 C 463.491 208.708, 461.466 208.046, 460.059 208.102 C 457.706 208.196, 457.749 208.264, 460.587 208.943 M 154.384 212.442 C 154.080 213.234, 154.007 214.697, 154.223 215.692 C 154.467 216.821, 154.809 216.279, 155.134 214.250 C 155.678 210.844, 155.325 209.991, 154.384 212.442 M 158.136 215.250 C 158.215 217.695, 158.461 218.512, 158.716 217.174 C 158.991 215.732, 159.671 215.044, 160.506 215.364 C 161.247 215.648, 162.341 215.295, 162.936 214.578 C 163.792 213.546, 163.460 213.381, 161.345 213.785 C 159.169 214.201, 158.790 213.990, 159.305 212.648 C 159.653 211.742, 159.501 211, 158.969 211 C 158.436 211, 158.061 212.912, 158.136 215.250 M 458.252 215 C 458.263 217.475, 458.467 218.488, 458.706 217.250 C 458.977 215.843, 459.863 215, 461.070 215 C 462.131 215, 463 214.592, 463 214.094 C 463 213.595, 462.141 213.412, 461.091 213.686 C 459.809 214.022, 459.026 213.580, 458.707 212.343 C 458.446 211.329, 458.241 212.525, 458.252 215 M 466.150 214.693 C 466.054 216.742, 465.203 218.445, 463.777 219.443 C 462.555 220.299, 462.035 221, 462.623 221 C 464.807 221, 467.152 217.191, 466.725 214.338 C 466.306 211.541, 466.298 211.546, 466.150 214.693 M 454.079 216.095 C 454.036 216.972, 455.012 218.547, 456.250 219.595 C 458.481 221.484, 458.486 221.483, 456.880 219.500 C 455.990 218.400, 455.013 216.825, 454.709 216 C 454.241 214.727, 454.146 214.741, 454.079 216.095 M 164.718 218.579 C 163.375 220.374, 163.295 220.824, 164.390 220.404 C 165.191 220.097, 166.116 219.141, 166.446 218.280 C 167.381 215.843, 166.672 215.966, 164.718 218.579" stroke="none" fill="#0464d4" fill-rule="evenodd"/></svg>