<svg xmlns="http://www.w3.org/2000/svg" width="500" height="500" viewBox="0 0 500 500" version="1.1"><path d="M 316.947 429.286 C 302.183 434.319, 294 446.102, 294 462.329 C 294 471.727, 297.010 479.141, 303.435 485.565 C 310.368 492.498, 317.460 495.151, 329.163 495.190 C 339.597 495.224, 345.600 493.429, 352.500 488.212 C 370.672 474.470, 369.515 443.591, 350.409 432.394 C 340.686 426.696, 328 425.518, 316.947 429.286 M 202.657 436.750 C 202.304 441.563, 201.115 455.850, 200.014 468.500 C 198.914 481.150, 198.010 492.288, 198.007 493.250 C 198.001 494.683, 198.901 495, 202.981 495 C 208.983 495, 208.442 496.743, 209.959 472.500 C 210.579 462.600, 211.356 451.397, 211.686 447.604 L 212.287 440.708 216.524 452.604 C 218.854 459.147, 223.440 471.025, 226.714 479 L 232.667 493.500 237.044 493.500 L 241.421 493.500 249.235 475.500 C 253.532 465.600, 258.499 453.697, 260.273 449.048 C 263.219 441.325, 263.552 440.851, 264.130 443.548 C 264.478 445.172, 264.856 450.775, 264.970 456 C 265.083 461.225, 265.699 472.025, 266.338 480 L 267.500 494.500 272.750 494.802 C 278.877 495.155, 278.541 496.318, 277.056 479.924 C 276.537 474.191, 275.621 462.300, 275.021 453.500 C 274.420 444.700, 273.675 435.343, 273.365 432.707 L 272.800 427.913 266.180 428.207 L 259.560 428.500 252.760 444 C 249.020 452.525, 244.090 464.363, 241.805 470.308 L 237.650 481.115 233.404 469.308 C 231.068 462.813, 226.352 450.863, 222.923 442.750 L 216.690 428 209.995 428 L 203.299 428 202.657 436.750 M 383.750 428.667 L 381 429.133 381 462.119 L 381 495.105 386.250 494.802 L 391.500 494.500 391.777 480.250 L 392.055 466 398.784 466 C 412.098 466, 416.833 469.217, 420.061 480.455 C 421.175 484.330, 422.810 489.188, 423.695 491.250 C 425.292 494.972, 425.347 495, 431.152 495 C 434.368 495, 436.998 494.887, 436.996 494.750 C 436.976 493.630, 429.823 473.559, 428.603 471.200 C 427.745 469.539, 425.355 466.789, 423.293 465.090 C 420.991 463.193, 420.153 462, 421.122 462 C 423.664 462, 430.787 456.313, 432.574 452.856 C 435.145 447.885, 434.113 439.771, 430.419 435.915 C 424.606 429.848, 420.269 428.685, 402.500 428.431 C 393.700 428.305, 385.262 428.411, 383.750 428.667 M 451 461.519 L 451 495.038 473.250 494.769 L 495.500 494.500 495.810 490.750 L 496.121 487 479.060 487 L 462 487 462 475.500 L 462 464 477 464 L 492 464 492 460 L 492 456 477 456 L 462 456 462 446 L 462 436 478 436 L 494 436 494 432 L 494 428 472.500 428 L 451 428 451 461.519 M 320.625 436.417 C 316.382 437.986, 310.571 443.072, 308.531 447 C 307.818 448.375, 306.650 452.130, 305.936 455.345 C 303.244 467.476, 308.464 480.100, 318.247 485.116 C 330.168 491.229, 344.990 486.526, 351.252 474.643 C 353.017 471.293, 353.441 468.777, 353.467 461.500 C 353.497 453.248, 353.242 452.043, 350.394 447 C 346.049 439.307, 340.040 435.649, 331.119 435.267 C 327.148 435.097, 322.950 435.557, 320.625 436.417 M 393.750 435.689 C 392.210 436.092, 392 437.539, 392 447.719 L 392 459.291 401.777 458.752 C 416.939 457.917, 422 454.817, 422 446.366 C 422 439, 414.718 434.906, 402 435.122 C 398.425 435.182, 394.712 435.438, 393.750 435.689" stroke="none" fill="#e63b18" fill-rule="evenodd"/><path d="M 246.352 8.686 C 246.800 9.134, 247.683 9.500, 248.314 9.500 C 249.491 9.500, 249.515 13.956, 248.388 23.250 C 248.007 26.392, 247.336 28, 246.406 28 C 245.633 28, 245 28.450, 245 29 C 245 29.550, 247.052 30, 249.559 30 C 252.392 30, 253.880 29.615, 253.490 28.984 C 253.144 28.425, 252.443 28.226, 251.931 28.543 C 251.388 28.878, 251 25.970, 251 21.559 C 251 17.402, 251.374 14, 251.831 14 C 252.288 14, 253.703 17.115, 254.974 20.922 C 257.426 28.266, 258.616 30.738, 259.329 29.971 C 259.569 29.712, 261.611 25.900, 263.867 21.500 L 267.967 13.500 267.829 20.841 C 267.733 25.967, 267.286 28.337, 266.346 28.698 C 263.340 29.851, 265.313 30.998, 270.250 30.968 C 274.937 30.940, 275.304 30.788, 273.674 29.552 C 272.051 28.322, 271.929 27.242, 272.575 19.834 C 273.081 14.027, 273.787 11.131, 274.901 10.282 C 276.232 9.268, 275.746 9.064, 272 9.066 L 267.500 9.069 264.064 16.600 L 260.628 24.132 258.004 16.316 L 255.380 8.500 250.459 8.186 C 247.753 8.013, 245.905 8.238, 246.352 8.686 M 223.015 9.891 C 220.889 10.483, 220.283 11.641, 218.830 17.892 C 217.896 21.912, 216.971 25.362, 216.774 25.559 C 216.578 25.755, 214.636 23.026, 212.459 19.494 C 208.432 12.960, 207.260 12.288, 202.250 13.630 C 199.791 14.289, 199.164 16, 201.381 16 C 204.234 16, 206.476 33.306, 203.750 34.280 C 200.678 35.377, 204.394 36.187, 208.230 35.257 C 211.873 34.372, 212.178 34.116, 210.307 33.508 C 209.008 33.087, 207.909 31.717, 207.611 30.148 C 206.399 23.779, 205.865 19, 206.364 19 C 206.660 19, 208.980 22.210, 211.518 26.134 C 214.204 30.285, 216.504 32.896, 217.020 32.380 C 217.508 31.892, 218.759 27.669, 219.800 22.996 L 221.692 14.500 222.883 20.500 C 223.538 23.800, 224.240 27.289, 224.444 28.252 C 224.647 29.216, 224.072 30.420, 223.165 30.927 C 220.383 32.484, 222.281 32.911, 227.263 31.848 C 231.658 30.911, 233.861 29, 230.545 29 C 229.639 29, 228.862 27.587, 228.485 25.250 C 228.152 23.188, 227.390 19.272, 226.792 16.549 C 225.983 12.867, 225.998 11.501, 226.852 11.216 C 228.402 10.699, 228.318 8.975, 226.750 9.100 C 226.063 9.155, 224.382 9.511, 223.015 9.891 M 281 10.917 C 281 11.421, 281.449 11.983, 281.998 12.167 C 282.638 12.381, 282.490 15.154, 281.583 19.910 C 279.940 28.537, 280.599 31.224, 284.907 33.452 C 288.882 35.507, 291.217 35.404, 294.225 33.038 C 296.792 31.019, 299.548 23.382, 299.923 17.250 C 299.966 16.563, 300.675 16, 301.500 16 C 304.536 16, 302.885 14.243, 299.303 13.662 C 295.284 13.010, 293.745 13.606, 295.942 14.964 C 297.079 15.667, 297.129 17.006, 296.221 22.487 C 294.936 30.240, 293.785 32, 290 32 C 285.319 32, 284.508 29.961, 285.959 21.839 C 286.937 16.369, 287.656 14.641, 289.113 14.260 C 292.085 13.483, 291.332 12.186, 287.250 11.053 C 282.617 9.766, 281 9.731, 281 10.917 M 308.025 17.965 C 305.444 21.590, 305.902 22.882, 309 20.713 C 311.289 19.109, 315 19.512, 315 21.363 C 315 21.985, 313.835 25.993, 312.410 30.270 C 310.726 35.327, 309.350 37.951, 308.476 37.773 C 305.611 37.191, 307.600 39.565, 310.957 40.735 C 315.837 42.436, 318.082 42.378, 315.754 40.611 C 314.112 39.364, 314.186 38.793, 317.004 30.989 C 318.652 26.426, 320 22.546, 320 22.368 C 320 22.189, 321.090 22.540, 322.423 23.147 C 323.756 23.754, 325.114 25.319, 325.442 26.625 C 326.314 30.100, 327.720 29.524, 328.190 25.500 C 328.522 22.659, 328.264 22, 326.819 22 C 323.883 22, 312.086 17.306, 310.884 15.659 C 310.545 15.195, 309.258 16.233, 308.025 17.965 M 190 17.500 C 187.049 18.636, 186.626 19.519, 189.220 19.128 C 191.189 18.832, 195.970 32.848, 194.893 35.759 C 194.060 38.013, 189.923 39.688, 188.050 38.531 C 185.125 36.723, 180.606 23.794, 182.305 22.095 C 182.889 21.511, 183.139 20.806, 182.861 20.527 C 182.092 19.759, 174 23.166, 174 24.259 C 174 24.784, 174.581 24.991, 175.292 24.718 C 176.152 24.388, 177.353 26.443, 178.883 30.861 C 182.587 41.558, 185.970 43.857, 192.911 40.394 C 197.782 37.965, 198.461 34.952, 195.959 26.869 C 194.799 23.119, 194.138 19.139, 194.492 18.025 C 195.230 15.701, 194.801 15.651, 190 17.500 M 332.526 25.957 C 332.214 26.463, 332.683 27.283, 333.570 27.779 C 334.983 28.570, 334.678 29.685, 331.095 36.811 C 328.101 42.766, 326.605 44.786, 325.504 44.363 C 324.677 44.046, 324 44.194, 324 44.694 C 324 45.193, 326.059 46.602, 328.575 47.824 C 332.898 49.925, 333.116 49.942, 332.545 48.143 C 331.713 45.522, 338.404 31, 340.443 31 C 343.192 31, 342.063 29.560, 337.520 27.269 C 335.086 26.042, 332.839 25.451, 332.526 25.957 M 156 31.826 C 153.201 33.459, 152.091 34.570, 153.063 34.763 C 155.224 35.194, 163.180 51.271, 161.688 52.193 C 161.066 52.577, 160.839 53.172, 161.182 53.515 C 162.109 54.442, 170.165 50.076, 169.503 49.005 C 169.191 48.500, 168.340 48.316, 167.611 48.596 C 166.248 49.119, 163.226 43.440, 164.298 42.369 C 164.610 42.057, 167.146 43.043, 169.934 44.561 C 174.241 46.905, 175.379 47.148, 177.502 46.181 C 180.484 44.822, 180.789 43, 178.034 43 C 176.953 43, 174.478 42.242, 172.534 41.315 C 169.057 39.657, 168.035 37.715, 170 36.500 C 171.594 35.515, 171.161 32.455, 169.171 30.655 C 166.565 28.296, 161.238 28.770, 156 31.826 M 159.408 32.148 C 158.680 33.328, 161.894 41, 163.117 41 C 165.345 41, 166.963 33.713, 165.004 32.502 C 163.096 31.323, 160.038 31.130, 159.408 32.148 M 346 33 C 346 33.550, 346.450 34, 347 34 C 348.932 34, 347.961 36.947, 343.888 43.442 C 341.186 47.752, 339.129 50, 337.888 50 C 335.160 50, 335.566 51.312, 338.904 53.284 C 342.688 55.519, 343.145 55.451, 342.503 52.750 C 342.155 51.285, 343.095 48.582, 345.199 45 L 348.429 39.500 349.756 47.500 C 350.486 51.900, 351.310 56.962, 351.587 58.750 C 351.864 60.538, 352.408 61.982, 352.795 61.961 C 353.183 61.939, 355.972 58.114, 358.993 53.461 C 362.014 48.807, 365.164 44.990, 365.993 44.978 C 367.008 44.963, 366.684 44.317, 365 43 C 361.994 40.649, 359.112 40.225, 360.917 42.400 C 361.820 43.488, 361.598 44.656, 359.918 47.650 C 355.417 55.673, 355.344 55.682, 354.613 48.272 C 353.450 36.495, 352.993 35.048, 349.932 33.465 C 346.585 31.734, 346 31.665, 346 33 M 139.333 42.171 C 134.454 43.470, 131 48.239, 131 53.677 C 131 57.488, 131.536 58.736, 134.400 61.600 C 144.659 71.859, 160.642 57.241, 151.250 46.188 C 148.044 42.416, 143.795 40.984, 139.333 42.171 M 135.433 47.462 C 134.095 49.505, 134.017 50.521, 134.977 53.429 C 137.589 61.344, 146.943 64.736, 149.776 58.796 C 153.549 50.883, 140.136 40.284, 135.433 47.462 M 371.676 49.869 C 372.405 52.656, 362.180 65.192, 359.795 64.435 C 357.708 63.773, 357.460 64.632, 359.250 66.326 C 363.719 70.555, 371.001 76, 372.189 76 C 373.705 76, 376 74.091, 376 72.830 C 376 72.407, 374.428 72.120, 372.507 72.192 C 368.186 72.355, 364.594 69.551, 366.015 67.124 C 368.689 62.557, 369.887 61.661, 371.514 63.012 C 372.381 63.732, 372.877 64.879, 372.614 65.562 C 371.646 68.086, 373.294 67.804, 375.611 65.050 C 378.613 61.482, 378.613 60.808, 375.609 61.562 C 372.183 62.422, 371.528 60.471, 374.052 56.927 L 376.230 53.868 378.615 56.108 C 380.037 57.444, 381 59.490, 381 61.174 C 381 62.728, 381.378 64, 381.839 64 C 383.080 64, 385.228 58.803, 384.298 58.051 C 383.859 57.696, 380.953 55.289, 377.841 52.703 C 374.728 50.116, 371.957 48, 371.684 48 C 371.411 48, 371.407 48.841, 371.676 49.869 M 118.250 58.015 C 114.891 61.071, 113.937 63.345, 116.412 62.395 C 117.258 62.071, 119.561 63.748, 122.162 66.584 C 124.548 69.185, 127.111 71.934, 127.857 72.693 C 128.604 73.451, 128.983 74.956, 128.701 76.036 C 128.007 78.688, 128.901 78.507, 132.750 75.217 C 136.131 72.328, 137.041 70.387, 134.571 71.334 C 132.649 72.072, 121.402 59.270, 121.818 56.817 C 122.215 54.472, 122.103 54.510, 118.250 58.015 M 389.558 65.373 C 390.036 67.281, 389.261 68.582, 385.605 72.009 C 379.615 77.623, 377.210 79.248, 375.998 78.499 C 374.014 77.273, 375.058 79.706, 377.500 82 C 379.852 84.210, 380 84.233, 380 82.387 C 380 81.308, 382.283 78.192, 385.074 75.462 L 390.148 70.500 389.595 74 C 387.716 85.906, 386.915 93.249, 387.440 93.773 C 387.771 94.104, 389.945 92.562, 392.271 90.346 C 400.247 82.745, 402.482 81, 404.240 81 C 406.514 81, 406.458 80.543, 403.820 77.508 C 401.196 74.490, 400.001 74.289, 400.707 76.986 C 401.078 78.405, 399.907 80.309, 396.603 83.661 C 391.361 88.977, 391.653 89.873, 394.053 75.840 C 395.131 69.542, 395.068 69.012, 392.908 66.090 C 390.184 62.405, 388.735 62.095, 389.558 65.373 M 244.655 64.750 C 243.338 66.884, 240.740 85.878, 240.449 95.500 C 240.267 101.550, 239.830 107.859, 239.480 109.519 C 238.977 111.901, 239.373 113.110, 241.356 115.250 C 242.739 116.742, 243.484 118.201, 243.012 118.493 C 242.540 118.784, 241.858 120.480, 241.495 122.261 C 241.133 124.043, 238.668 130, 236.017 135.500 C 233.366 141, 230.812 146.530, 230.342 147.788 C 229.609 149.750, 229.246 149.893, 227.799 148.788 C 225.645 147.144, 220.519 123.081, 222.007 121.593 C 223.679 119.921, 223.115 116.115, 220.863 113.863 C 219.687 112.687, 218.327 109.875, 217.839 107.613 C 216.537 101.573, 215.017 98.220, 213.278 97.553 C 211.990 97.059, 211.843 97.618, 212.380 100.974 L 213.021 104.986 209.261 104.843 C 207.192 104.764, 204.510 105.015, 203.300 105.401 C 200.525 106.286, 197 111.892, 197 115.418 C 197 119.076, 199.549 123.722, 201.980 124.494 C 206.081 125.795, 207.387 122.566, 204 119.500 C 201.234 116.996, 201.494 113.543, 204.635 111.073 C 207.900 108.504, 209.214 108.474, 211.425 110.917 C 212.822 112.460, 212.938 113.247, 212.024 114.955 C 210.718 117.395, 211.442 120.442, 213.917 122.917 C 214.938 123.938, 216.351 128.467, 217.396 134.068 C 218.365 139.256, 219.353 144.212, 219.593 145.083 C 219.862 146.061, 219.068 147.104, 217.514 147.812 C 215.321 148.811, 215 149.590, 215 153.914 C 215 158.676, 215.138 158.921, 218.517 160.142 C 222.682 161.648, 224.284 165.938, 223.801 174.295 C 223.528 179.008, 223.264 179.527, 221 179.790 C 216.468 180.317, 206.554 176.309, 195.529 169.495 C 175.234 156.950, 160.284 151.793, 150.564 153.986 C 147.371 154.706, 146.078 154.370, 141.007 151.504 C 137.782 149.681, 134.904 148.429, 134.612 148.722 C 134.319 149.014, 134.748 150.547, 135.566 152.127 C 137.198 155.283, 136.540 155.723, 133.559 153.468 C 130.504 151.158, 130.240 151.633, 131.267 157.593 C 132.025 161.989, 131.907 164.009, 130.717 167.039 C 129.884 169.159, 129.342 172.829, 129.512 175.196 C 129.988 181.831, 136.737 203.966, 139.820 209 C 142.905 214.038, 145.200 214.856, 151.206 213.056 C 154.741 211.997, 155 211.658, 155 208.082 C 155 205.891, 155.644 203.711, 156.500 203 C 158.387 201.434, 158.428 198.571, 156.591 196.734 C 155.816 195.959, 155.511 194.791, 155.914 194.139 C 157.940 190.861, 163.186 203.254, 163.142 211.210 C 163.119 215.204, 162.331 217.082, 157.956 223.565 C 153.003 230.906, 152.672 231.184, 149.649 230.571 C 141.871 228.995, 135.013 228.745, 133.521 229.982 C 131.606 231.572, 131.589 236.104, 133.469 244.212 C 137.379 261.071, 141.418 270.117, 148.224 277.257 L 153.221 282.500 154.951 277.500 C 158.443 267.413, 158.435 267.189, 154.468 264.848 C 152.100 263.451, 151.082 262.230, 151.461 261.242 C 151.801 260.356, 150.731 258.415, 148.833 256.474 C 146.016 253.592, 143.059 246.872, 143.015 243.250 C 142.992 241.379, 145.734 241.724, 153.026 244.510 L 159.594 247.020 163.525 255.760 C 168.931 267.779, 172.258 272.534, 183.364 284.113 C 188.635 289.609, 193.202 294.518, 193.513 295.021 C 194.636 296.839, 189.951 304.871, 185.892 308.086 C 182.202 311.008, 179 316.064, 179 318.968 C 179 319.601, 182.480 320, 188 320 L 197 320 197 315.595 C 197 312.025, 197.664 310.395, 200.500 307 C 202.474 304.637, 204 301.708, 204 300.280 C 204 297.952, 204.259 297.805, 207.250 298.434 C 222.100 301.561, 225.487 301.395, 240.317 296.819 C 248.465 294.304, 250.014 293.510, 249.432 292.145 C 249.047 291.240, 248.428 288.684, 248.057 286.463 C 247.686 284.243, 247.063 281.912, 246.674 281.282 C 246.285 280.652, 246.702 278.596, 247.600 276.713 L 249.233 273.289 258.366 273.641 L 267.500 273.994 267.430 280.321 C 267.383 284.533, 266.798 287.451, 265.680 289.047 C 263.422 292.270, 263.560 295.694, 266 297 C 267.176 297.629, 268 299.094, 268 300.554 C 268 303.292, 267.338 303.303, 278.960 300.375 C 281.963 299.619, 285.001 299, 285.710 299 C 288.400 299, 286.820 302.472, 282.047 307.048 C 277.480 311.427, 273.013 317.455, 273.004 319.250 C 273.002 319.663, 277.050 320, 282 320 L 291 320 291 316.450 C 291 312.257, 292.822 308.423, 296.405 305.076 C 297.832 303.742, 299 301.605, 299 300.326 L 299 298 313.526 298 L 328.051 298 326.599 300.808 C 325.801 302.352, 322.969 305.936, 320.307 308.772 C 317.644 311.608, 314.950 315.294, 314.320 316.964 L 313.174 320 322.587 320 L 332 320 332 315.503 C 332 311.786, 332.595 310.348, 335.429 307.210 C 337.315 305.123, 339.164 302.197, 339.537 300.708 C 340.171 298.183, 340.581 298, 345.608 298 C 348.574 298, 351 297.853, 351 297.674 C 351 297.494, 348.785 291.478, 346.077 284.303 C 337.208 260.802, 336.692 257.541, 339.608 243.438 C 340.492 239.162, 341.032 233.120, 340.807 230.011 L 340.398 224.360 346.449 224.386 C 351.110 224.407, 353.698 223.791, 357.717 221.706 C 363.332 218.793, 367.418 218.249, 368.654 220.249 C 369.078 220.936, 369.738 224.146, 370.120 227.383 C 371.003 234.872, 373.812 237.999, 380.316 238.732 C 383.952 239.142, 385.635 238.768, 388.684 236.873 L 392.500 234.500 388.020 234.181 C 385.555 234.006, 382.968 233.388, 382.270 232.809 C 379.807 230.765, 380.823 224.670, 384.664 218.441 C 387.008 214.639, 388.351 211.211, 388.391 208.921 C 388.516 201.877, 381.975 196.007, 374 196.007 C 367.335 196.007, 361.341 200.305, 354.833 209.749 C 348.940 218.302, 341.998 219.300, 333.972 212.750 C 323.091 203.870, 322.969 203.819, 306.690 201.292 C 298.336 199.995, 289.119 198.659, 286.208 198.322 C 280.127 197.620, 279.520 196.874, 278.626 189 C 276.360 169.053, 271.864 133.237, 271.461 131.926 C 271.195 131.061, 271.710 128.884, 272.605 127.089 C 273.653 124.990, 274.031 122.576, 273.664 120.320 C 273.014 116.308, 268.896 110.419, 266.129 109.541 C 264.900 109.151, 264.065 107.666, 263.700 105.223 C 261.580 91.031, 258 65.741, 258 64.954 C 258 64.429, 257.650 64, 257.221 64 C 256.793 64, 255.614 67.263, 254.600 71.250 C 253.587 75.237, 252.447 79.079, 252.068 79.788 C 251.668 80.535, 250.188 77.492, 248.541 72.538 C 245.644 63.817, 245.459 63.447, 244.655 64.750 M 100.413 76.159 C 93.570 82.730, 92.656 84.346, 96.250 83.523 C 99.466 82.786, 110.627 92.934, 110.208 96.213 C 109.741 99.867, 120.767 87.277, 121.576 83.233 C 122.927 76.477, 117.350 70.012, 110.163 70.004 C 107.434 70.001, 105.659 71.121, 100.413 76.159 M 102.861 75.937 L 100.500 77.874 106.500 83.972 C 113.034 90.613, 115.809 91.358, 117.374 86.890 C 120.350 78.390, 109.683 70.339, 102.861 75.937 M 88.716 89.904 C 86.569 93.538, 86.574 93.924, 88.761 93.352 C 89.747 93.094, 93.268 94.666, 96.761 96.924 C 103.411 101.222, 104.711 104.147, 101.429 107.429 C 99.035 109.822, 96.868 109.361, 90.173 105.034 C 85.839 102.232, 84.210 100.617, 84.625 99.534 C 85.590 97.021, 83.527 97.792, 81.374 100.750 C 77.695 105.804, 77.548 106.278, 79.900 105.532 C 81.478 105.031, 83.420 105.833, 87.191 108.542 C 90.018 110.573, 93.976 112.455, 95.986 112.725 C 99.161 113.151, 99.993 112.797, 102.321 110.031 C 105.270 106.525, 105.755 102.523, 103.601 99.448 C 102.832 98.350, 99.908 95.887, 97.103 93.976 C 94.241 92.025, 92.003 89.732, 92.002 88.750 C 91.999 86.152, 90.653 86.625, 88.716 89.904 M 405.389 89.266 C 402.983 91.159, 402.802 91.791, 403.297 96.588 C 403.904 102.472, 402.414 105.756, 399.622 104.685 C 397.228 103.766, 396.508 101.141, 397.750 97.853 C 398.966 94.629, 397.793 94.083, 394.695 96.432 C 393.039 97.688, 393.012 98.092, 394.361 101.323 C 395.171 103.260, 396.998 105.608, 398.422 106.541 C 400.629 107.987, 401.460 108.052, 404.044 106.982 C 408.877 104.980, 409.960 101.201, 407.513 94.879 C 406.895 93.284, 409.267 90, 411.036 90 C 412.849 90, 414.025 93.805, 413.025 96.435 C 411.888 99.425, 412.619 99.634, 415.759 97.217 L 418.018 95.478 415.039 91.863 C 411.264 87.284, 408.764 86.611, 405.389 89.266 M 420.390 102.574 C 421.191 104.661, 419.664 106.051, 411.861 110.338 C 406.892 113.069, 405.050 113.650, 404.164 112.764 C 402.228 110.828, 402.756 113.472, 405.099 117.443 C 407.286 121.150, 409.301 122.193, 408.794 119.357 C 408.416 117.244, 422.295 108.792, 424.656 109.698 C 426.396 110.366, 426.395 110.360, 423.539 104.750 C 421.693 101.125, 419.163 99.377, 420.390 102.574 M 73.986 111.750 C 73.978 112.713, 72.195 116.760, 70.022 120.745 L 66.073 127.990 68.225 129.995 C 71.318 132.877, 73.824 132.224, 70.899 129.299 C 70.257 128.657, 70.073 126.942, 70.458 125.189 L 71.119 122.181 79.590 126.340 C 86.288 129.630, 87.966 130.878, 87.609 132.307 C 86.779 135.630, 89.090 133.514, 91.035 129.171 C 92.924 124.951, 92.924 124.889, 91.045 125.486 C 89.555 125.959, 76.436 120.503, 74.169 118.468 C 73.237 117.632, 76.331 114, 77.976 114 C 81.028 114, 81.358 112.087, 78.495 110.998 C 74.826 109.603, 74.002 109.741, 73.986 111.750 M 422.042 119.673 C 420.595 121.513, 420.010 123.541, 420.165 126.178 C 420.418 130.456, 419.134 132.362, 416.356 131.835 C 413.821 131.354, 413.335 126.393, 415.580 123.912 C 417.515 121.774, 416.321 121.441, 412.675 123.102 C 410.532 124.079, 410.346 124.599, 411.040 127.675 C 412.126 132.493, 414.680 135, 418.500 135 C 423.025 135, 425.500 131.908, 425.500 126.255 C 425.500 122.964, 425.994 121.423, 427.309 120.613 C 430.792 118.469, 433.036 124.908, 429.602 127.196 C 427.624 128.514, 429.833 129.160, 432.164 127.946 C 433.449 127.277, 434.618 126.634, 434.763 126.518 C 434.908 126.402, 434.346 124.679, 433.515 122.690 C 430.957 116.567, 425.595 115.157, 422.042 119.673 M 62.043 138.871 C 60.301 144.147, 61.262 147.452, 64.985 148.994 C 67.740 150.135, 68.302 149.997, 71.611 147.370 C 77.388 142.784, 77.645 142.650, 79.364 143.309 C 81.726 144.216, 81.431 148.699, 78.922 150.042 C 77.779 150.654, 76.204 150.908, 75.422 150.608 C 72.864 149.627, 73.932 151.900, 76.713 153.358 C 79.644 154.893, 79.509 155, 83.087 148.324 C 84.814 145.102, 83.470 141.478, 79.909 139.753 C 76.029 137.873, 73.967 138.381, 70.413 142.090 C 67.597 145.030, 64.639 145.843, 63.494 143.991 C 62.364 142.161, 64.090 139.015, 66.567 138.394 C 69.183 137.737, 69.919 136, 67.582 136 C 66.802 136, 65.530 135.757, 64.755 135.460 C 63.794 135.091, 62.932 136.175, 62.043 138.871 M 441 146.363 C 441 147.157, 438.597 148.444, 435.250 149.445 C 432.087 150.390, 428.242 151.560, 426.705 152.045 C 424.581 152.716, 423.775 152.577, 423.350 151.470 C 423.042 150.668, 422.423 150.239, 421.973 150.516 C 421.524 150.794, 422.162 154.729, 423.391 159.261 C 425.604 167.417, 425.661 167.503, 429.063 167.813 L 432.500 168.126 429.344 165.313 C 427.609 163.766, 425.930 161.331, 425.614 159.903 C 425.099 157.580, 425.446 157.183, 428.885 156.153 C 431.001 155.519, 433.017 155, 433.366 155 C 434.462 155, 434.055 158.545, 432.817 159.783 C 430.953 161.647, 432.280 162.034, 436.301 160.800 C 440.290 159.575, 441.246 158, 438 158 C 436.900 158, 436 157.812, 436 157.582 C 436 157.352, 435.748 156.507, 435.440 155.705 C 435.071 154.743, 435.720 154.036, 437.347 153.628 C 438.704 153.287, 440.488 152.750, 441.312 152.434 C 443.640 151.541, 444.585 157.458, 442.599 160.488 C 440.613 163.521, 442.079 164.566, 445.001 162.200 L 447.210 160.411 444.867 152.706 C 442.739 145.708, 441 142.856, 441 146.363 M 53.582 168.433 C 51.686 175.496, 53.818 179.904, 59.161 179.968 C 61.735 179.999, 67 175.222, 67 172.857 C 67 172.313, 68.237 172.010, 69.750 172.184 C 71.918 172.433, 72.568 173.088, 72.819 175.278 C 73.086 177.604, 72.639 178.230, 70.069 179.126 C 68.381 179.714, 67 180.553, 67 180.989 C 67 181.742, 72.045 183.430, 72.408 182.799 C 75.880 176.761, 76.292 175.119, 75.073 172.176 C 73.414 168.172, 68.648 166.345, 65.404 168.471 C 64.159 169.287, 62.337 171.315, 61.354 172.977 C 59.349 176.371, 55.627 177.066, 54.537 174.250 C 54.059 173.014, 54.781 171.728, 56.995 169.873 L 60.130 167.246 57.134 166.806 C 54.746 166.456, 54.025 166.786, 53.582 168.433 M 443 168.839 C 443 169.301, 444.125 170.192, 445.500 170.818 C 447.117 171.555, 448 172.773, 448 174.269 C 448 176.402, 447.339 176.682, 439.436 177.894 C 431.403 179.127, 430.786 179.093, 429.468 177.354 C 428.112 175.564, 428.063 175.569, 428.043 177.500 C 428.004 181.274, 429.262 187, 430.131 187 C 430.609 187, 431 186.334, 431 185.519 C 431 183.992, 432.291 183.562, 440 182.515 C 442.475 182.179, 445.512 181.652, 446.750 181.344 C 448.678 180.863, 449 181.181, 449 183.563 C 449 185.092, 448.212 187.234, 447.250 188.324 C 445.537 190.263, 445.573 190.291, 448.927 189.642 C 450.812 189.278, 452.452 188.871, 452.571 188.740 C 452.690 188.608, 452.170 185.575, 451.415 182 C 450.660 178.425, 450.032 173.813, 450.021 171.750 C 450.001 168.135, 449.874 168, 446.500 168 C 444.575 168, 443 168.378, 443 168.839 M 71.369 186.414 C 70.589 187.733, 67.327 189.056, 60.869 190.672 C 55.716 191.961, 50.945 193.220, 50.267 193.470 C 47.413 194.521, 50.894 197.531, 59.680 201.609 C 64.831 204, 69.309 206.641, 69.630 207.478 C 70.727 210.337, 72 209.006, 72 205 C 72 201.268, 70.653 199.542, 69.781 202.158 C 69.535 202.896, 68.396 203.065, 66.639 202.624 C 64.179 202.007, 63.916 201.541, 64.192 198.282 C 64.453 195.191, 64.953 194.512, 67.460 193.847 C 69.434 193.322, 70.665 193.457, 71.155 194.251 C 72.452 196.349, 73.127 194.352, 72.809 189.357 C 72.545 185.213, 72.334 184.781, 71.369 186.414 M 59 195.658 C 58.175 195.933, 56.825 196.381, 56 196.654 C 54.995 196.986, 55.610 197.620, 57.865 198.575 C 62.160 200.394, 62 200.436, 62 197.500 C 62 194.963, 61.678 194.765, 59 195.658 M 431 211 C 431 213.750, 431.450 216, 432 216 C 432.550 216, 433 215.550, 433 215 C 433 214.450, 434.575 214, 436.500 214 C 441.376 214, 440.867 215.527, 435 218.500 C 430.442 220.810, 430 221.342, 430 224.517 C 430 226.433, 430.450 228, 431 228 C 431.550 228, 432 227.553, 432 227.006 C 432 226.460, 433.895 224.640, 436.212 222.961 C 440.329 219.979, 440.458 219.954, 441.962 221.849 C 444.594 225.165, 447.653 225.438, 450.483 222.608 C 452.660 220.431, 453 219.205, 453 213.545 C 453 209.848, 452.565 207, 452 207 C 451.450 207, 451.001 207.563, 451.002 208.250 C 451.004 209.181, 448.710 209.418, 442.002 209.179 C 435.015 208.930, 433 208.538, 433 207.429 C 433 206.643, 432.550 206, 432 206 C 431.450 206, 431 208.250, 431 211 M 50.174 207.716 C 48.479 208.039, 48.024 208.613, 48.499 209.830 C 48.857 210.748, 49.332 215.320, 49.555 219.990 C 49.949 228.245, 50.035 228.499, 52.680 229.207 C 56.261 230.164, 57.071 229.165, 54.250 227.269 C 53.013 226.437, 52 224.751, 52 223.523 C 52 221.495, 52.622 221.230, 58.750 220.652 C 68.664 219.715, 70 219.816, 70 221.500 C 70 222.325, 70.450 223, 71 223 C 71.550 223, 72 220.525, 72 217.500 C 72 214.475, 71.550 212, 71 212 C 70.450 212, 70 212.611, 70 213.358 C 70 214.284, 68.048 214.919, 63.853 215.358 C 52.729 216.520, 52 216.382, 52 213.107 C 52 211.458, 52.645 209.966, 53.500 209.638 C 54.325 209.322, 55 208.599, 55 208.031 C 55 206.980, 54.282 206.933, 50.174 207.716 M 442 215.429 C 442 217.394, 444.777 220, 446.871 220 C 449.111 220, 451 218.078, 451 215.800 C 451 214.333, 450.167 214, 446.500 214 C 443.267 214, 442 214.402, 442 215.429 M 429.651 230.750 C 429.386 231.713, 428.873 234.750, 428.512 237.500 C 428.152 240.250, 427.636 243.428, 427.367 244.562 C 427.006 246.083, 427.583 246.944, 429.568 247.849 C 433.062 249.441, 433.435 248.921, 431.374 245.329 C 429.067 241.310, 430.135 237, 433.437 237 C 438.693 237, 440.911 239.831, 437.258 241.875 C 435.111 243.077, 435.586 243.571, 439.750 244.463 C 442.873 245.132, 444.277 243.907, 442 242.500 C 441.450 242.160, 441 240.958, 441 239.830 C 441 238, 441.407 237.853, 444.750 238.478 C 446.813 238.863, 448.634 239.310, 448.799 239.471 C 449.703 240.358, 447.438 245.297, 445.388 246.910 C 444.074 247.943, 443 249.061, 443 249.394 C 443 250.244, 447.273 250.123, 448.591 249.235 C 449.915 248.343, 452.466 233.111, 451.449 232.169 C 451.051 231.801, 450.525 232.063, 450.280 232.750 C 449.727 234.297, 446.849 234.324, 438.025 232.867 C 432.930 232.026, 431.300 231.382, 431.689 230.367 C 431.978 229.615, 431.746 229, 431.174 229 C 430.603 229, 429.917 229.787, 429.651 230.750 M 71 232.339 C 71 234.360, 54.086 236.758, 52.938 234.900 C 52.482 234.162, 51.805 233.862, 51.434 234.233 C 50.469 235.198, 51.936 244, 53.061 244 C 53.578 244, 54 243.374, 54 242.608 C 54 240.979, 56.064 240.401, 65.250 239.459 C 69.966 238.976, 72 239.103, 72 239.884 C 72 240.498, 72.450 241, 73 241 C 74.105 241, 74.308 236.752, 73.370 233.250 C 72.717 230.815, 71 230.155, 71 232.339 M 67.315 246.007 C 64.720 247.053, 63.503 249.174, 62.586 254.250 C 62.031 257.326, 61.488 258, 59.562 258 C 56.231 258, 55.508 255.156, 57.986 251.805 C 60.184 248.832, 59.665 248.416, 55.657 249.940 C 53.412 250.794, 53.259 251.216, 54.003 254.513 C 56.295 264.676, 64.881 264.626, 67.468 254.435 C 68.607 249.949, 68.984 249.500, 71.611 249.500 C 75.822 249.500, 76.241 253.596, 72.348 256.711 L 69.500 258.990 73.088 258.995 C 76.653 259, 76.677 258.972, 76.847 254.464 C 76.984 250.839, 76.524 249.433, 74.555 247.464 C 71.931 244.840, 70.785 244.609, 67.315 246.007 M 427.951 255.176 C 424.137 257.496, 422 261.911, 422 267.475 C 422 271.758, 422.191 272.088, 425 272.650 C 426.650 272.980, 428 273.869, 428 274.625 C 428 277.597, 429.814 275.773, 430.827 271.782 C 431.938 267.407, 431.536 265.515, 430.017 267.972 C 429.313 269.112, 428.644 269.159, 426.572 268.215 C 423.816 266.959, 423.362 265.060, 425.061 261.886 C 428.715 255.058, 443 259.035, 443 266.880 C 443 270.228, 439.115 274, 435.665 274 C 434.409 274, 433.972 274.351, 434.550 274.895 C 435.860 276.128, 442.112 277.367, 441.823 276.336 C 441.694 275.876, 442.356 274.060, 443.294 272.300 C 445.458 268.241, 445.486 261.671, 443.354 258.417 C 441.539 255.648, 436.228 253.032, 432.925 253.281 C 431.759 253.368, 429.521 254.221, 427.951 255.176 M 77 262.071 C 77 263.211, 76.438 264.770, 75.750 265.537 C 72.771 268.859, 72 269.979, 72 270.988 C 72 271.577, 70.674 271.079, 69.052 269.881 C 66.277 267.828, 65.960 267.796, 63.628 269.324 C 59.899 271.767, 59.541 274.426, 62.079 280.817 C 64.867 287.836, 64.756 287.707, 66.260 285.699 C 66.942 284.788, 70.592 282.929, 74.372 281.567 C 78.151 280.204, 81.482 278.852, 81.773 278.561 C 82.064 278.269, 82.895 278.812, 83.619 279.766 C 84.774 281.286, 84.940 281.302, 84.968 279.899 C 85.015 277.554, 82.934 272, 82.009 272 C 81.572 272, 80.977 272.618, 80.687 273.374 C 80.396 274.130, 78.773 275.232, 77.080 275.822 C 72.951 277.262, 73.043 275.728, 77.415 270.229 C 80.498 266.352, 80.707 265.684, 79.686 262.979 C 78.385 259.533, 77 259.065, 77 262.071 M 64.571 274.571 C 62.775 276.368, 62.527 278.589, 64.020 279.512 C 65.494 280.423, 72 278.068, 72 276.622 C 72 273.213, 67.243 271.900, 64.571 274.571 M 416.685 279.534 C 414.552 284.008, 414.405 286.739, 416.386 285.094 C 418.443 283.387, 433.773 289.734, 434.275 292.500 C 434.546 293.990, 435.201 293.253, 436.844 289.608 C 438.881 285.093, 439.013 281.743, 437.028 284.954 C 435.744 287.033, 419.372 280.144, 419.794 277.702 C 420.303 274.755, 418.441 275.852, 416.685 279.534 M 81 284.799 C 81 285.239, 82.504 286.142, 84.343 286.807 C 87.059 287.789, 90 291.283, 90 293.527 C 90 293.765, 88.229 294.863, 86.064 295.968 L 82.127 297.976 81.457 295.863 C 81.041 294.553, 81.291 293.438, 82.114 292.930 C 82.844 292.478, 83.099 291.766, 82.681 291.347 C 81.777 290.444, 76.729 293.312, 76.147 295.060 C 75.923 295.730, 76.213 295.987, 76.790 295.630 C 77.367 295.273, 78.597 295.740, 79.523 296.666 C 81.102 298.245, 80.974 298.470, 77.470 300.268 C 72.867 302.629, 71.715 301.504, 72.334 295.250 C 72.797 290.569, 72.179 290.040, 69.591 292.899 C 67.955 294.707, 68.044 295.137, 71.449 301.899 C 73.416 305.805, 75.455 309, 75.981 309 C 76.507 309, 76.710 308.407, 76.432 307.683 C 75.692 305.755, 92.016 297.408, 93.099 299.160 C 93.535 299.865, 94.163 300.170, 94.495 299.838 C 94.828 299.506, 93.403 295.806, 91.330 291.617 C 87.780 284.441, 87.371 284, 84.281 284 C 82.476 284, 81 284.360, 81 284.799 M 408.555 296.458 C 404.696 303.762, 404.653 303.959, 406.462 305.958 C 409.085 308.856, 410.066 308.487, 408.868 305.052 C 408.102 302.853, 408.188 301.393, 409.210 299.302 C 410.705 296.244, 412.796 296.064, 416.817 298.646 C 418.678 299.841, 418.900 300.416, 417.944 301.567 C 417.290 302.355, 416.135 303, 415.378 303 C 413.089 303, 413.820 304.463, 417.069 306.382 C 420.364 308.328, 422.019 307.933, 420.125 305.651 C 419.100 304.415, 419.490 301, 420.657 301 C 422.233 301, 427 304.285, 427 305.371 C 427 307.052, 424.156 309.563, 421.250 310.449 C 419.163 311.085, 418.053 312.983, 419.750 313.014 C 420.163 313.021, 421.464 313.286, 422.643 313.602 C 424.489 314.098, 425.337 313.127, 428.755 306.604 C 432.360 299.724, 432.530 299.077, 430.612 299.527 C 427.961 300.150, 414 292.534, 414 290.466 C 414 287.439, 412.378 289.224, 408.555 296.458 M 400.557 310.223 C 398.579 313.047, 398.578 314.099, 400.555 313.340 C 401.890 312.828, 413.600 319.740, 412.777 320.553 C 412.291 321.033, 402.697 321.857, 396.750 321.930 C 393.587 321.968, 391 322.425, 391 322.945 C 391 323.465, 394.375 326.489, 398.500 329.664 C 403.406 333.440, 406.011 336.140, 406.032 337.469 C 406.060 339.308, 406.296 339.235, 408.532 336.694 C 411.175 333.690, 412.014 330.913, 409.698 332.835 C 408.722 333.646, 406.910 332.928, 402.448 329.961 L 396.500 326.006 406.682 326.003 C 416.778 326, 416.881 325.975, 418.932 323.096 C 421.603 319.344, 421.538 318.827, 418.488 319.592 C 416.524 320.085, 414.725 319.286, 410.238 315.928 C 404.027 311.280, 402.865 310.027, 403.625 308.798 C 404.800 306.897, 401.964 308.214, 400.557 310.223 M 99.846 310.487 C 98.784 311.549, 82.537 314.101, 80.341 313.550 C 77.545 312.848, 77.467 313.290, 79.716 317.096 C 81.492 320.104, 83.652 321.141, 82.638 318.500 C 82.322 317.675, 82.279 317, 82.544 317 C 82.809 317, 86.180 316.126, 90.036 315.057 C 97.618 312.956, 97.614 312.949, 92.608 319.500 C 88.757 324.540, 87.876 325.142, 86.284 323.820 C 84.229 322.116, 84.716 324.416, 87.250 328.388 C 89.652 332.153, 91 332.921, 91 330.524 C 91 329.712, 93.700 325.273, 97 320.660 C 100.300 316.046, 103 311.761, 103 311.136 C 103 310.009, 100.781 309.552, 99.846 310.487 M 109.590 323.373 C 109.908 324.202, 107.818 326.676, 104.308 329.623 C 101.114 332.305, 98.208 334.903, 97.851 335.396 C 97.494 335.888, 96.525 336.032, 95.699 335.715 C 92.783 334.596, 93.002 336.407, 96.179 339.684 C 99.804 343.425, 101.038 343.860, 100.328 341.148 C 99.725 338.839, 112.202 328.480, 114.518 329.368 C 116.806 330.246, 116.278 328.295, 113.335 324.991 C 110.531 321.845, 108.700 321.053, 109.590 323.373 M 386 330 C 386 330.550, 385.358 331, 384.573 331 C 382.758 331, 379 335.721, 379 338 C 379 338.952, 379.933 340.916, 381.073 342.365 C 383.466 345.408, 387.107 345.791, 391.728 343.486 C 395.258 341.725, 398 342.418, 398 345.072 C 398 347.403, 395.005 349.076, 392.162 348.332 C 389.426 347.617, 389.355 349.116, 392.045 350.796 C 393.787 351.884, 394.526 351.762, 397.042 349.970 C 400.467 347.531, 401.644 344.071, 400.056 341.105 C 398.580 338.347, 394.687 337.478, 390.043 338.869 C 387.967 339.491, 385.581 340, 384.741 340 C 382.680 340, 381.772 337.295, 383.039 334.928 C 384.130 332.888, 388.438 332.281, 389.510 334.016 C 389.856 334.575, 390.591 334.753, 391.144 334.411 C 391.735 334.045, 391.223 332.801, 389.901 331.395 C 387.533 328.874, 386 328.326, 386 330 M 113.500 340 C 109.628 343.901, 105.690 347, 104.603 347 C 102.774 347, 102.799 347.157, 105 349.500 C 107.671 352.343, 109.518 352.792, 108.589 350.372 C 108.171 349.282, 109.501 347.103, 112.616 343.773 C 116.255 339.882, 117.144 339.312, 116.701 341.150 C 116.390 342.443, 115.835 347.100, 115.469 351.500 C 114.822 359.258, 114.881 359.568, 117.409 361.750 C 120.719 364.608, 121.183 364.576, 120.422 361.543 C 119.918 359.536, 120.765 358.071, 125.048 353.543 C 128.732 349.648, 131.046 348, 132.832 348 L 135.374 348 132.437 344.921 C 129.524 341.867, 129.497 341.861, 129.185 344.171 C 129.011 345.452, 126.889 348.750, 124.470 351.500 L 120.071 356.500 120.688 344.750 C 121.028 338.288, 121.113 333, 120.876 333 C 120.640 333, 117.320 336.150, 113.500 340 M 370.432 344.499 C 366.647 347.868, 366.593 348.001, 369 348.055 C 372.071 348.125, 381.630 359.037, 381.262 362.052 C 381.131 363.123, 381.301 364, 381.641 364 C 382.802 364, 389.829 357.162, 389.256 356.589 C 388.941 356.275, 388.146 356.464, 387.488 357.010 C 386.630 357.722, 384.531 356.019, 380.047 350.974 C 374.884 345.165, 374.012 343.690, 375.023 342.473 C 377.331 339.691, 374.361 341.002, 370.432 344.499 M 360.892 352.602 C 354.374 355.310, 353.210 361.942, 358.630 365.493 C 360.862 366.956, 361.880 367.053, 365.037 366.107 C 369.698 364.711, 372 365.515, 372 368.540 C 372 371.329, 368.971 372.590, 366.038 371.020 C 363.507 369.666, 363.405 371.008, 365.828 373.801 L 367.655 375.909 371.382 372.836 C 374.418 370.335, 375.053 369.202, 374.805 366.731 C 374.620 364.892, 373.515 362.978, 372 361.871 C 369.840 360.293, 368.911 360.196, 365.176 361.162 C 361.581 362.092, 360.595 362.023, 359.323 360.752 C 356.989 358.417, 358.500 355, 361.867 355 C 363.370 355, 365.133 355.533, 365.783 356.183 C 367.600 358, 368.214 356.564, 366.877 353.629 C 365.498 350.602, 365.644 350.628, 360.892 352.602 M 135.177 355.750 C 133.635 357.262, 131.094 360.209, 129.531 362.298 C 127.969 364.386, 126.129 365.880, 125.443 365.616 C 122.927 364.651, 123.110 366.362, 125.768 368.648 C 128.885 371.328, 132.071 371.996, 130.034 369.541 C 129.050 368.356, 129.544 367.048, 132.661 362.580 C 137.591 355.515, 140.013 354.123, 143.455 356.378 C 146.948 358.667, 146.676 360.493, 141.763 367.737 C 138.580 372.430, 137.088 373.845, 135.763 373.425 C 131.798 372.166, 135.017 375.945, 140.920 379.478 C 141.987 380.117, 142.179 379.909, 141.692 378.641 C 141.271 377.542, 142.606 374.674, 145.523 370.414 C 151.398 361.832, 151.309 359.034, 145.027 354.704 C 141.489 352.265, 138.396 352.594, 135.177 355.750 M 252.275 387.909 C 250.072 392.362, 250.403 393.850, 253.063 391.443 C 254.233 390.384, 256.265 389.981, 259.376 390.191 L 263.965 390.500 257.982 402.218 C 254.692 408.663, 252 414.400, 252 414.968 C 252 417.666, 255.197 415.548, 256.666 411.877 C 257.574 409.609, 260.632 403.071, 263.462 397.347 C 266.293 391.624, 268.397 386.730, 268.138 386.471 C 267.879 386.212, 265.132 386, 262.033 386 C 258.935 386, 255.921 385.521, 255.336 384.936 C 254.584 384.184, 253.687 385.056, 252.275 387.909 M 283.488 384.896 C 282.944 385.430, 280.730 386.009, 278.566 386.183 C 274.366 386.521, 274.194 386.782, 272.632 395.136 C 272.018 398.419, 272.190 398.831, 274.406 399.387 C 279.477 400.660, 281.610 406.124, 278.965 411.066 C 277.839 413.170, 274.052 413.652, 272.313 411.913 C 271.530 411.130, 271.038 411.130, 270.554 411.913 C 269.392 413.792, 270.989 415, 274.636 415 C 284.472 415, 287.595 400.636, 278.682 396.386 C 275.961 395.088, 275.406 394.325, 275.776 392.391 C 276.150 390.437, 276.845 390, 279.581 390 C 281.936 390, 283.256 389.390, 284.030 387.945 C 285.332 385.511, 284.965 383.444, 283.488 384.896 M 217 386.933 C 217 387.446, 217.856 388.137, 218.902 388.469 C 220.290 388.909, 220.898 390.212, 221.152 393.286 C 221.712 400.073, 221.099 402.741, 218.843 403.331 C 215.080 404.315, 218.057 406, 223.559 406 C 227.729 406, 229 405.650, 229 404.500 C 229 403.667, 228.111 403, 227 403 C 225.192 403, 225 402.333, 225 396.067 C 225 390.013, 225.253 389.054, 227 388.500 C 230.917 387.257, 228.907 386, 223 386 C 219.700 386, 217 386.420, 217 386.933 M 234 386.933 C 234 387.446, 234.900 388.151, 236 388.500 C 237.747 389.054, 238 390.013, 238 396.067 C 238 402.426, 237.827 403, 235.917 403 C 234.694 403, 234.006 403.517, 234.250 404.250 C 234.755 405.765, 245.980 406.003, 246.040 404.500 C 246.061 403.950, 245.161 403.356, 244.040 403.180 C 242.216 402.895, 242 402.134, 242 395.998 C 242 390.013, 242.256 389.054, 244 388.500 C 247.917 387.257, 245.907 386, 240 386 C 236.700 386, 234 386.420, 234 386.933 M 5 451.480 C 5 470.913, 5.285 475.695, 6.651 479.230 C 9.251 485.957, 12.551 489.642, 18.486 492.450 C 23.081 494.624, 25.426 495.057, 32.743 495.082 C 47.206 495.132, 54.765 491.252, 59.672 481.258 L 62.500 475.500 62.815 451.750 L 63.131 428 57.631 428 L 52.131 428 51.810 451.750 C 51.532 472.400, 51.251 475.962, 49.661 479.038 C 46.988 484.208, 42.192 487.090, 35.307 487.662 C 27.343 488.325, 21.424 485.332, 18.250 479.038 C 16.109 474.792, 16 473.450, 16 451.288 L 16 428 10.500 428 L 5 428 5 451.480 M 85.237 461.250 L 85.500 494.500 90.250 494.805 L 95 495.110 95 467.945 L 95 440.781 101.250 450.049 C 108.936 461.447, 108.017 460.169, 122.238 479.250 L 133.975 495 138.988 495 L 144 495 144 461.500 L 144 428 138.914 428 L 133.828 428 134.164 454.250 L 134.500 480.500 128.479 471.500 C 125.168 466.550, 116.661 454.738, 109.574 445.250 L 96.690 428 90.832 428 L 84.973 428 85.237 461.250 M 167 461.552 L 167 495.105 172.250 494.802 L 177.500 494.500 177.763 461.250 L 178.027 428 172.513 428 L 167 428 167 461.552" stroke="none" fill="#575756" fill-rule="evenodd"/><path d="M 246.352 8.686 C 246.800 9.134, 247.683 9.500, 248.314 9.500 C 249.491 9.500, 249.515 13.956, 248.388 23.250 C 248.007 26.392, 247.336 28, 246.406 28 C 245.633 28, 245 28.450, 245 29 C 245 29.550, 247.052 30, 249.559 30 C 252.392 30, 253.880 29.615, 253.490 28.984 C 253.144 28.425, 252.443 28.226, 251.931 28.543 C 251.388 28.878, 251 25.970, 251 21.559 C 251 17.402, 251.374 14, 251.831 14 C 252.288 14, 253.703 17.115, 254.974 20.922 C 257.426 28.266, 258.616 30.738, 259.329 29.971 C 259.569 29.712, 261.611 25.900, 263.867 21.500 L 267.967 13.500 267.829 20.841 C 267.733 25.967, 267.286 28.337, 266.346 28.698 C 263.340 29.851, 265.313 30.998, 270.250 30.968 C 274.937 30.940, 275.304 30.788, 273.674 29.552 C 272.051 28.322, 271.929 27.242, 272.575 19.834 C 273.081 14.027, 273.787 11.131, 274.901 10.282 C 276.232 9.268, 275.746 9.064, 272 9.066 L 267.500 9.069 264.064 16.600 L 260.628 24.132 258.004 16.316 L 255.380 8.500 250.459 8.186 C 247.753 8.013, 245.905 8.238, 246.352 8.686 M 223.015 9.891 C 220.889 10.483, 220.283 11.641, 218.830 17.892 C 217.896 21.912, 216.971 25.362, 216.774 25.559 C 216.578 25.755, 214.636 23.026, 212.459 19.494 C 208.432 12.960, 207.260 12.288, 202.250 13.630 C 199.791 14.289, 199.164 16, 201.381 16 C 204.234 16, 206.476 33.306, 203.750 34.280 C 200.678 35.377, 204.394 36.187, 208.230 35.257 C 211.873 34.372, 212.178 34.116, 210.307 33.508 C 209.008 33.087, 207.909 31.717, 207.611 30.148 C 206.399 23.779, 205.865 19, 206.364 19 C 206.660 19, 208.980 22.210, 211.518 26.134 C 214.204 30.285, 216.504 32.896, 217.020 32.380 C 217.508 31.892, 218.759 27.669, 219.800 22.996 L 221.692 14.500 222.883 20.500 C 223.538 23.800, 224.240 27.289, 224.444 28.252 C 224.647 29.216, 224.072 30.420, 223.165 30.927 C 220.383 32.484, 222.281 32.911, 227.263 31.848 C 231.658 30.911, 233.861 29, 230.545 29 C 229.639 29, 228.862 27.587, 228.485 25.250 C 228.152 23.188, 227.390 19.272, 226.792 16.549 C 225.983 12.867, 225.998 11.501, 226.852 11.216 C 228.402 10.699, 228.318 8.975, 226.750 9.100 C 226.063 9.155, 224.382 9.511, 223.015 9.891 M 281 10.917 C 281 11.421, 281.449 11.983, 281.998 12.167 C 282.638 12.381, 282.490 15.154, 281.583 19.910 C 279.940 28.537, 280.599 31.224, 284.907 33.452 C 288.882 35.507, 291.217 35.404, 294.225 33.038 C 296.792 31.019, 299.548 23.382, 299.923 17.250 C 299.966 16.563, 300.675 16, 301.500 16 C 304.536 16, 302.885 14.243, 299.303 13.662 C 295.284 13.010, 293.745 13.606, 295.942 14.964 C 297.079 15.667, 297.129 17.006, 296.221 22.487 C 294.936 30.240, 293.785 32, 290 32 C 285.319 32, 284.508 29.961, 285.959 21.839 C 286.937 16.369, 287.656 14.641, 289.113 14.260 C 292.085 13.483, 291.332 12.186, 287.250 11.053 C 282.617 9.766, 281 9.731, 281 10.917 M 308.025 17.965 C 305.444 21.590, 305.902 22.882, 309 20.713 C 311.289 19.109, 315 19.512, 315 21.363 C 315 21.985, 313.835 25.993, 312.410 30.270 C 310.726 35.327, 309.350 37.951, 308.476 37.773 C 305.611 37.191, 307.600 39.565, 310.957 40.735 C 315.837 42.436, 318.082 42.378, 315.754 40.611 C 314.112 39.364, 314.186 38.793, 317.004 30.989 C 318.652 26.426, 320 22.546, 320 22.368 C 320 22.189, 321.090 22.540, 322.423 23.147 C 323.756 23.754, 325.114 25.319, 325.442 26.625 C 326.314 30.100, 327.720 29.524, 328.190 25.500 C 328.522 22.659, 328.264 22, 326.819 22 C 323.883 22, 312.086 17.306, 310.884 15.659 C 310.545 15.195, 309.258 16.233, 308.025 17.965 M 190 17.500 C 187.049 18.636, 186.626 19.519, 189.220 19.128 C 191.189 18.832, 195.970 32.848, 194.893 35.759 C 194.060 38.013, 189.923 39.688, 188.050 38.531 C 185.125 36.723, 180.606 23.794, 182.305 22.095 C 182.889 21.511, 183.139 20.806, 182.861 20.527 C 182.092 19.759, 174 23.166, 174 24.259 C 174 24.784, 174.581 24.991, 175.292 24.718 C 176.152 24.388, 177.353 26.443, 178.883 30.861 C 182.587 41.558, 185.970 43.857, 192.911 40.394 C 197.782 37.965, 198.461 34.952, 195.959 26.869 C 194.799 23.119, 194.138 19.139, 194.492 18.025 C 195.230 15.701, 194.801 15.651, 190 17.500 M 332.526 25.957 C 332.214 26.463, 332.683 27.283, 333.570 27.779 C 334.983 28.570, 334.678 29.685, 331.095 36.811 C 328.101 42.766, 326.605 44.786, 325.504 44.363 C 324.677 44.046, 324 44.194, 324 44.694 C 324 45.193, 326.059 46.602, 328.575 47.824 C 332.898 49.925, 333.116 49.942, 332.545 48.143 C 331.713 45.522, 338.404 31, 340.443 31 C 343.192 31, 342.063 29.560, 337.520 27.269 C 335.086 26.042, 332.839 25.451, 332.526 25.957 M 156 31.826 C 153.201 33.459, 152.091 34.570, 153.063 34.763 C 155.224 35.194, 163.180 51.271, 161.688 52.193 C 161.066 52.577, 160.839 53.172, 161.182 53.515 C 162.109 54.442, 170.165 50.076, 169.503 49.005 C 169.191 48.500, 168.340 48.316, 167.611 48.596 C 166.248 49.119, 163.226 43.440, 164.298 42.369 C 164.610 42.057, 167.146 43.043, 169.934 44.561 C 174.241 46.905, 175.379 47.148, 177.502 46.181 C 180.484 44.822, 180.789 43, 178.034 43 C 176.953 43, 174.478 42.242, 172.534 41.315 C 169.057 39.657, 168.035 37.715, 170 36.500 C 171.594 35.515, 171.161 32.455, 169.171 30.655 C 166.565 28.296, 161.238 28.770, 156 31.826 M 159.408 32.148 C 158.680 33.328, 161.894 41, 163.117 41 C 165.345 41, 166.963 33.713, 165.004 32.502 C 163.096 31.323, 160.038 31.130, 159.408 32.148 M 346 33 C 346 33.550, 346.450 34, 347 34 C 348.932 34, 347.961 36.947, 343.888 43.442 C 341.186 47.752, 339.129 50, 337.888 50 C 335.160 50, 335.566 51.312, 338.904 53.284 C 342.688 55.519, 343.145 55.451, 342.503 52.750 C 342.155 51.285, 343.095 48.582, 345.199 45 L 348.429 39.500 349.756 47.500 C 350.486 51.900, 351.310 56.962, 351.587 58.750 C 351.864 60.538, 352.408 61.982, 352.795 61.961 C 353.183 61.939, 355.972 58.114, 358.993 53.461 C 362.014 48.807, 365.164 44.990, 365.993 44.978 C 367.008 44.963, 366.684 44.317, 365 43 C 361.994 40.649, 359.112 40.225, 360.917 42.400 C 361.820 43.488, 361.598 44.656, 359.918 47.650 C 355.417 55.673, 355.344 55.682, 354.613 48.272 C 353.450 36.495, 352.993 35.048, 349.932 33.465 C 346.585 31.734, 346 31.665, 346 33 M 139.333 42.171 C 134.454 43.470, 131 48.239, 131 53.677 C 131 57.488, 131.536 58.736, 134.400 61.600 C 144.659 71.859, 160.642 57.241, 151.250 46.188 C 148.044 42.416, 143.795 40.984, 139.333 42.171 M 135.433 47.462 C 134.095 49.505, 134.017 50.521, 134.977 53.429 C 137.589 61.344, 146.943 64.736, 149.776 58.796 C 153.549 50.883, 140.136 40.284, 135.433 47.462 M 371.676 49.869 C 372.405 52.656, 362.180 65.192, 359.795 64.435 C 357.708 63.773, 357.460 64.632, 359.250 66.326 C 363.719 70.555, 371.001 76, 372.189 76 C 373.705 76, 376 74.091, 376 72.830 C 376 72.407, 374.428 72.120, 372.507 72.192 C 368.186 72.355, 364.594 69.551, 366.015 67.124 C 368.689 62.557, 369.887 61.661, 371.514 63.012 C 372.381 63.732, 372.877 64.879, 372.614 65.562 C 371.646 68.086, 373.294 67.804, 375.611 65.050 C 378.613 61.482, 378.613 60.808, 375.609 61.562 C 372.183 62.422, 371.528 60.471, 374.052 56.927 L 376.230 53.868 378.615 56.108 C 380.037 57.444, 381 59.490, 381 61.174 C 381 62.728, 381.378 64, 381.839 64 C 383.080 64, 385.228 58.803, 384.298 58.051 C 383.859 57.696, 380.953 55.289, 377.841 52.703 C 374.728 50.116, 371.957 48, 371.684 48 C 371.411 48, 371.407 48.841, 371.676 49.869 M 118.250 58.015 C 114.891 61.071, 113.937 63.345, 116.412 62.395 C 117.258 62.071, 119.561 63.748, 122.162 66.584 C 124.548 69.185, 127.111 71.934, 127.857 72.693 C 128.604 73.451, 128.983 74.956, 128.701 76.036 C 128.007 78.688, 128.901 78.507, 132.750 75.217 C 136.131 72.328, 137.041 70.387, 134.571 71.334 C 132.649 72.072, 121.402 59.270, 121.818 56.817 C 122.215 54.472, 122.103 54.510, 118.250 58.015 M 389.558 65.373 C 390.036 67.281, 389.261 68.582, 385.605 72.009 C 379.615 77.623, 377.210 79.248, 375.998 78.499 C 374.014 77.273, 375.058 79.706, 377.500 82 C 379.852 84.210, 380 84.233, 380 82.387 C 380 81.308, 382.283 78.192, 385.074 75.462 L 390.148 70.500 389.595 74 C 387.716 85.906, 386.915 93.249, 387.440 93.773 C 387.771 94.104, 389.945 92.562, 392.271 90.346 C 400.247 82.745, 402.482 81, 404.240 81 C 406.514 81, 406.458 80.543, 403.820 77.508 C 401.196 74.490, 400.001 74.289, 400.707 76.986 C 401.078 78.405, 399.907 80.309, 396.603 83.661 C 391.361 88.977, 391.653 89.873, 394.053 75.840 C 395.131 69.542, 395.068 69.012, 392.908 66.090 C 390.184 62.405, 388.735 62.095, 389.558 65.373 M 244.655 64.750 C 243.338 66.884, 240.740 85.878, 240.449 95.500 C 240.267 101.550, 239.830 107.859, 239.480 109.519 C 238.977 111.901, 239.373 113.110, 241.356 115.250 C 242.739 116.742, 243.484 118.201, 243.012 118.493 C 242.540 118.784, 241.858 120.480, 241.495 122.261 C 241.133 124.043, 238.668 130, 236.017 135.500 C 233.366 141, 230.812 146.530, 230.342 147.788 C 229.609 149.750, 229.246 149.893, 227.799 148.788 C 225.645 147.144, 220.519 123.081, 222.007 121.593 C 223.679 119.921, 223.115 116.115, 220.863 113.863 C 219.687 112.687, 218.327 109.875, 217.839 107.613 C 216.537 101.573, 215.017 98.220, 213.278 97.553 C 211.990 97.059, 211.843 97.618, 212.380 100.974 L 213.021 104.986 209.261 104.843 C 207.192 104.764, 204.510 105.015, 203.300 105.401 C 200.525 106.286, 197 111.892, 197 115.418 C 197 119.076, 199.549 123.722, 201.980 124.494 C 206.081 125.795, 207.387 122.566, 204 119.500 C 201.234 116.996, 201.494 113.543, 204.635 111.073 C 207.900 108.504, 209.214 108.474, 211.425 110.917 C 212.822 112.460, 212.938 113.247, 212.024 114.955 C 210.718 117.395, 211.442 120.442, 213.917 122.917 C 214.938 123.938, 216.351 128.467, 217.396 134.068 C 218.365 139.256, 219.353 144.212, 219.593 145.083 C 219.862 146.061, 219.068 147.104, 217.514 147.812 C 215.321 148.811, 215 149.590, 215 153.914 C 215 158.676, 215.138 158.921, 218.517 160.142 C 222.682 161.648, 224.284 165.938, 223.801 174.295 C 223.528 179.008, 223.264 179.527, 221 179.790 C 216.468 180.317, 206.554 176.309, 195.529 169.495 C 175.234 156.950, 160.284 151.793, 150.564 153.986 C 147.371 154.706, 146.078 154.370, 141.007 151.504 C 137.782 149.681, 134.904 148.429, 134.612 148.722 C 134.319 149.014, 134.748 150.547, 135.566 152.127 C 137.198 155.283, 136.540 155.723, 133.559 153.468 C 130.504 151.158, 130.240 151.633, 131.267 157.593 C 132.025 161.989, 131.907 164.009, 130.717 167.039 C 129.884 169.159, 129.342 172.829, 129.512 175.196 C 129.988 181.831, 136.737 203.966, 139.820 209 C 142.905 214.038, 145.200 214.856, 151.206 213.056 C 154.741 211.997, 155 211.658, 155 208.082 C 155 205.891, 155.644 203.711, 156.500 203 C 158.387 201.434, 158.428 198.571, 156.591 196.734 C 155.816 195.959, 155.511 194.791, 155.914 194.139 C 157.940 190.861, 163.186 203.254, 163.142 211.210 C 163.119 215.204, 162.331 217.082, 157.956 223.565 C 153.003 230.906, 152.672 231.184, 149.649 230.571 C 141.871 228.995, 135.013 228.745, 133.521 229.982 C 131.606 231.572, 131.589 236.104, 133.469 244.212 C 137.379 261.071, 141.418 270.117, 148.224 277.257 L 153.221 282.500 154.951 277.500 C 158.443 267.413, 158.435 267.189, 154.468 264.848 C 152.100 263.451, 151.082 262.230, 151.461 261.242 C 151.801 260.356, 150.731 258.415, 148.833 256.474 C 146.016 253.592, 143.059 246.872, 143.015 243.250 C 142.992 241.379, 145.734 241.724, 153.026 244.510 L 159.594 247.020 163.525 255.760 C 168.931 267.779, 172.258 272.534, 183.364 284.113 C 188.635 289.609, 193.202 294.518, 193.513 295.021 C 194.636 296.839, 189.951 304.871, 185.892 308.086 C 182.202 311.008, 179 316.064, 179 318.968 C 179 319.601, 182.480 320, 188 320 L 197 320 197 315.595 C 197 312.025, 197.664 310.395, 200.500 307 C 202.474 304.637, 204 301.708, 204 300.280 C 204 297.952, 204.259 297.805, 207.250 298.434 C 222.100 301.561, 225.487 301.395, 240.317 296.819 C 248.465 294.304, 250.014 293.510, 249.432 292.145 C 249.047 291.240, 248.428 288.684, 248.057 286.463 C 247.686 284.243, 247.063 281.912, 246.674 281.282 C 246.285 280.652, 246.702 278.596, 247.600 276.713 L 249.233 273.289 258.366 273.641 L 267.500 273.994 267.430 280.321 C 267.383 284.533, 266.798 287.451, 265.680 289.047 C 263.422 292.270, 263.560 295.694, 266 297 C 267.176 297.629, 268 299.094, 268 300.554 C 268 303.292, 267.338 303.303, 278.960 300.375 C 281.963 299.619, 285.001 299, 285.710 299 C 288.400 299, 286.820 302.472, 282.047 307.048 C 277.480 311.427, 273.013 317.455, 273.004 319.250 C 273.002 319.663, 277.050 320, 282 320 L 291 320 291 316.450 C 291 312.257, 292.822 308.423, 296.405 305.076 C 297.832 303.742, 299 301.605, 299 300.326 L 299 298 313.526 298 L 328.051 298 326.599 300.808 C 325.801 302.352, 322.969 305.936, 320.307 308.772 C 317.644 311.608, 314.950 315.294, 314.320 316.964 L 313.174 320 322.587 320 L 332 320 332 315.503 C 332 311.786, 332.595 310.348, 335.429 307.210 C 337.315 305.123, 339.164 302.197, 339.537 300.708 C 340.171 298.183, 340.581 298, 345.608 298 C 348.574 298, 351 297.853, 351 297.674 C 351 297.494, 348.785 291.478, 346.077 284.303 C 337.208 260.802, 336.692 257.541, 339.608 243.438 C 340.492 239.162, 341.032 233.120, 340.807 230.011 L 340.398 224.360 346.449 224.386 C 351.110 224.407, 353.698 223.791, 357.717 221.706 C 363.332 218.793, 367.418 218.249, 368.654 220.249 C 369.078 220.936, 369.738 224.146, 370.120 227.383 C 371.003 234.872, 373.812 237.999, 380.316 238.732 C 383.952 239.142, 385.635 238.768, 388.684 236.873 L 392.500 234.500 388.020 234.181 C 385.555 234.006, 382.968 233.388, 382.270 232.809 C 379.807 230.765, 380.823 224.670, 384.664 218.441 C 387.008 214.639, 388.351 211.211, 388.391 208.921 C 388.516 201.877, 381.975 196.007, 374 196.007 C 367.335 196.007, 361.341 200.305, 354.833 209.749 C 348.940 218.302, 341.998 219.300, 333.972 212.750 C 323.091 203.870, 322.969 203.819, 306.690 201.292 C 298.336 199.995, 289.119 198.659, 286.208 198.322 C 280.127 197.620, 279.520 196.874, 278.626 189 C 276.360 169.053, 271.864 133.237, 271.461 131.926 C 271.195 131.061, 271.710 128.884, 272.605 127.089 C 273.653 124.990, 274.031 122.576, 273.664 120.320 C 273.014 116.308, 268.896 110.419, 266.129 109.541 C 264.900 109.151, 264.065 107.666, 263.700 105.223 C 261.580 91.031, 258 65.741, 258 64.954 C 258 64.429, 257.650 64, 257.221 64 C 256.793 64, 255.614 67.263, 254.600 71.250 C 253.587 75.237, 252.447 79.079, 252.068 79.788 C 251.668 80.535, 250.188 77.492, 248.541 72.538 C 245.644 63.817, 245.459 63.447, 244.655 64.750 M 100.413 76.159 C 93.570 82.730, 92.656 84.346, 96.250 83.523 C 99.466 82.786, 110.627 92.934, 110.208 96.213 C 109.741 99.867, 120.767 87.277, 121.576 83.233 C 122.927 76.477, 117.350 70.012, 110.163 70.004 C 107.434 70.001, 105.659 71.121, 100.413 76.159 M 102.861 75.937 L 100.500 77.874 106.500 83.972 C 113.034 90.613, 115.809 91.358, 117.374 86.890 C 120.350 78.390, 109.683 70.339, 102.861 75.937 M 88.716 89.904 C 86.569 93.538, 86.574 93.924, 88.761 93.352 C 89.747 93.094, 93.268 94.666, 96.761 96.924 C 103.411 101.222, 104.711 104.147, 101.429 107.429 C 99.035 109.822, 96.868 109.361, 90.173 105.034 C 85.839 102.232, 84.210 100.617, 84.625 99.534 C 85.590 97.021, 83.527 97.792, 81.374 100.750 C 77.695 105.804, 77.548 106.278, 79.900 105.532 C 81.478 105.031, 83.420 105.833, 87.191 108.542 C 90.018 110.573, 93.976 112.455, 95.986 112.725 C 99.161 113.151, 99.993 112.797, 102.321 110.031 C 105.270 106.525, 105.755 102.523, 103.601 99.448 C 102.832 98.350, 99.908 95.887, 97.103 93.976 C 94.241 92.025, 92.003 89.732, 92.002 88.750 C 91.999 86.152, 90.653 86.625, 88.716 89.904 M 405.389 89.266 C 402.983 91.159, 402.802 91.791, 403.297 96.588 C 403.904 102.472, 402.414 105.756, 399.622 104.685 C 397.228 103.766, 396.508 101.141, 397.750 97.853 C 398.966 94.629, 397.793 94.083, 394.695 96.432 C 393.039 97.688, 393.012 98.092, 394.361 101.323 C 395.171 103.260, 396.998 105.608, 398.422 106.541 C 400.629 107.987, 401.460 108.052, 404.044 106.982 C 408.877 104.980, 409.960 101.201, 407.513 94.879 C 406.895 93.284, 409.267 90, 411.036 90 C 412.849 90, 414.025 93.805, 413.025 96.435 C 411.888 99.425, 412.619 99.634, 415.759 97.217 L 418.018 95.478 415.039 91.863 C 411.264 87.284, 408.764 86.611, 405.389 89.266 M 420.390 102.574 C 421.191 104.661, 419.664 106.051, 411.861 110.338 C 406.892 113.069, 405.050 113.650, 404.164 112.764 C 402.228 110.828, 402.756 113.472, 405.099 117.443 C 407.286 121.150, 409.301 122.193, 408.794 119.357 C 408.416 117.244, 422.295 108.792, 424.656 109.698 C 426.396 110.366, 426.395 110.360, 423.539 104.750 C 421.693 101.125, 419.163 99.377, 420.390 102.574 M 73.986 111.750 C 73.978 112.713, 72.195 116.760, 70.022 120.745 L 66.073 127.990 68.225 129.995 C 71.318 132.877, 73.824 132.224, 70.899 129.299 C 70.257 128.657, 70.073 126.942, 70.458 125.189 L 71.119 122.181 79.590 126.340 C 86.288 129.630, 87.966 130.878, 87.609 132.307 C 86.779 135.630, 89.090 133.514, 91.035 129.171 C 92.924 124.951, 92.924 124.889, 91.045 125.486 C 89.555 125.959, 76.436 120.503, 74.169 118.468 C 73.237 117.632, 76.331 114, 77.976 114 C 81.028 114, 81.358 112.087, 78.495 110.998 C 74.826 109.603, 74.002 109.741, 73.986 111.750 M 422.042 119.673 C 420.595 121.513, 420.010 123.541, 420.165 126.178 C 420.418 130.456, 419.134 132.362, 416.356 131.835 C 413.821 131.354, 413.335 126.393, 415.580 123.912 C 417.515 121.774, 416.321 121.441, 412.675 123.102 C 410.532 124.079, 410.346 124.599, 411.040 127.675 C 412.126 132.493, 414.680 135, 418.500 135 C 423.025 135, 425.500 131.908, 425.500 126.255 C 425.500 122.964, 425.994 121.423, 427.309 120.613 C 430.792 118.469, 433.036 124.908, 429.602 127.196 C 427.624 128.514, 429.833 129.160, 432.164 127.946 C 433.449 127.277, 434.618 126.634, 434.763 126.518 C 434.908 126.402, 434.346 124.679, 433.515 122.690 C 430.957 116.567, 425.595 115.157, 422.042 119.673 M 62.043 138.871 C 60.301 144.147, 61.262 147.452, 64.985 148.994 C 67.740 150.135, 68.302 149.997, 71.611 147.370 C 77.388 142.784, 77.645 142.650, 79.364 143.309 C 81.726 144.216, 81.431 148.699, 78.922 150.042 C 77.779 150.654, 76.204 150.908, 75.422 150.608 C 72.864 149.627, 73.932 151.900, 76.713 153.358 C 79.644 154.893, 79.509 155, 83.087 148.324 C 84.814 145.102, 83.470 141.478, 79.909 139.753 C 76.029 137.873, 73.967 138.381, 70.413 142.090 C 67.597 145.030, 64.639 145.843, 63.494 143.991 C 62.364 142.161, 64.090 139.015, 66.567 138.394 C 69.183 137.737, 69.919 136, 67.582 136 C 66.802 136, 65.530 135.757, 64.755 135.460 C 63.794 135.091, 62.932 136.175, 62.043 138.871 M 441 146.363 C 441 147.157, 438.597 148.444, 435.250 149.445 C 432.087 150.390, 428.242 151.560, 426.705 152.045 C 424.581 152.716, 423.775 152.577, 423.350 151.470 C 423.042 150.668, 422.423 150.239, 421.973 150.516 C 421.524 150.794, 422.162 154.729, 423.391 159.261 C 425.604 167.417, 425.661 167.503, 429.063 167.813 L 432.500 168.126 429.344 165.313 C 427.609 163.766, 425.930 161.331, 425.614 159.903 C 425.099 157.580, 425.446 157.183, 428.885 156.153 C 431.001 155.519, 433.017 155, 433.366 155 C 434.462 155, 434.055 158.545, 432.817 159.783 C 430.953 161.647, 432.280 162.034, 436.301 160.800 C 440.290 159.575, 441.246 158, 438 158 C 436.900 158, 436 157.812, 436 157.582 C 436 157.352, 435.748 156.507, 435.440 155.705 C 435.071 154.743, 435.720 154.036, 437.347 153.628 C 438.704 153.287, 440.488 152.750, 441.312 152.434 C 443.640 151.541, 444.585 157.458, 442.599 160.488 C 440.613 163.521, 442.079 164.566, 445.001 162.200 L 447.210 160.411 444.867 152.706 C 442.739 145.708, 441 142.856, 441 146.363 M 53.582 168.433 C 51.686 175.496, 53.818 179.904, 59.161 179.968 C 61.735 179.999, 67 175.222, 67 172.857 C 67 172.313, 68.237 172.010, 69.750 172.184 C 71.918 172.433, 72.568 173.088, 72.819 175.278 C 73.086 177.604, 72.639 178.230, 70.069 179.126 C 68.381 179.714, 67 180.553, 67 180.989 C 67 181.742, 72.045 183.430, 72.408 182.799 C 75.880 176.761, 76.292 175.119, 75.073 172.176 C 73.414 168.172, 68.648 166.345, 65.404 168.471 C 64.159 169.287, 62.337 171.315, 61.354 172.977 C 59.349 176.371, 55.627 177.066, 54.537 174.250 C 54.059 173.014, 54.781 171.728, 56.995 169.873 L 60.130 167.246 57.134 166.806 C 54.746 166.456, 54.025 166.786, 53.582 168.433 M 443 168.839 C 443 169.301, 444.125 170.192, 445.500 170.818 C 447.117 171.555, 448 172.773, 448 174.269 C 448 176.402, 447.339 176.682, 439.436 177.894 C 431.403 179.127, 430.786 179.093, 429.468 177.354 C 428.112 175.564, 428.063 175.569, 428.043 177.500 C 428.004 181.274, 429.262 187, 430.131 187 C 430.609 187, 431 186.334, 431 185.519 C 431 183.992, 432.291 183.562, 440 182.515 C 442.475 182.179, 445.512 181.652, 446.750 181.344 C 448.678 180.863, 449 181.181, 449 183.563 C 449 185.092, 448.212 187.234, 447.250 188.324 C 445.537 190.263, 445.573 190.291, 448.927 189.642 C 450.812 189.278, 452.452 188.871, 452.571 188.740 C 452.690 188.608, 452.170 185.575, 451.415 182 C 450.660 178.425, 450.032 173.813, 450.021 171.750 C 450.001 168.135, 449.874 168, 446.500 168 C 444.575 168, 443 168.378, 443 168.839 M 71.369 186.414 C 70.589 187.733, 67.327 189.056, 60.869 190.672 C 55.716 191.961, 50.945 193.220, 50.267 193.470 C 47.413 194.521, 50.894 197.531, 59.680 201.609 C 64.831 204, 69.309 206.641, 69.630 207.478 C 70.727 210.337, 72 209.006, 72 205 C 72 201.268, 70.653 199.542, 69.781 202.158 C 69.535 202.896, 68.396 203.065, 66.639 202.624 C 64.179 202.007, 63.916 201.541, 64.192 198.282 C 64.453 195.191, 64.953 194.512, 67.460 193.847 C 69.434 193.322, 70.665 193.457, 71.155 194.251 C 72.452 196.349, 73.127 194.352, 72.809 189.357 C 72.545 185.213, 72.334 184.781, 71.369 186.414 M 59 195.658 C 58.175 195.933, 56.825 196.381, 56 196.654 C 54.995 196.986, 55.610 197.620, 57.865 198.575 C 62.160 200.394, 62 200.436, 62 197.500 C 62 194.963, 61.678 194.765, 59 195.658 M 431 211 C 431 213.750, 431.450 216, 432 216 C 432.550 216, 433 215.550, 433 215 C 433 214.450, 434.575 214, 436.500 214 C 441.376 214, 440.867 215.527, 435 218.500 C 430.442 220.810, 430 221.342, 430 224.517 C 430 226.433, 430.450 228, 431 228 C 431.550 228, 432 227.553, 432 227.006 C 432 226.460, 433.895 224.640, 436.212 222.961 C 440.329 219.979, 440.458 219.954, 441.962 221.849 C 444.594 225.165, 447.653 225.438, 450.483 222.608 C 452.660 220.431, 453 219.205, 453 213.545 C 453 209.848, 452.565 207, 452 207 C 451.450 207, 451.001 207.563, 451.002 208.250 C 451.004 209.181, 448.710 209.418, 442.002 209.179 C 435.015 208.930, 433 208.538, 433 207.429 C 433 206.643, 432.550 206, 432 206 C 431.450 206, 431 208.250, 431 211 M 50.174 207.716 C 48.479 208.039, 48.024 208.613, 48.499 209.830 C 48.857 210.748, 49.332 215.320, 49.555 219.990 C 49.949 228.245, 50.035 228.499, 52.680 229.207 C 56.261 230.164, 57.071 229.165, 54.250 227.269 C 53.013 226.437, 52 224.751, 52 223.523 C 52 221.495, 52.622 221.230, 58.750 220.652 C 68.664 219.715, 70 219.816, 70 221.500 C 70 222.325, 70.450 223, 71 223 C 71.550 223, 72 220.525, 72 217.500 C 72 214.475, 71.550 212, 71 212 C 70.450 212, 70 212.611, 70 213.358 C 70 214.284, 68.048 214.919, 63.853 215.358 C 52.729 216.520, 52 216.382, 52 213.107 C 52 211.458, 52.645 209.966, 53.500 209.638 C 54.325 209.322, 55 208.599, 55 208.031 C 55 206.980, 54.282 206.933, 50.174 207.716 M 442 215.429 C 442 217.394, 444.777 220, 446.871 220 C 449.111 220, 451 218.078, 451 215.800 C 451 214.333, 450.167 214, 446.500 214 C 443.267 214, 442 214.402, 442 215.429 M 429.651 230.750 C 429.386 231.713, 428.873 234.750, 428.512 237.500 C 428.152 240.250, 427.636 243.428, 427.367 244.562 C 427.006 246.083, 427.583 246.944, 429.568 247.849 C 433.062 249.441, 433.435 248.921, 431.374 245.329 C 429.067 241.310, 430.135 237, 433.437 237 C 438.693 237, 440.911 239.831, 437.258 241.875 C 435.111 243.077, 435.586 243.571, 439.750 244.463 C 442.873 245.132, 444.277 243.907, 442 242.500 C 441.450 242.160, 441 240.958, 441 239.830 C 441 238, 441.407 237.853, 444.750 238.478 C 446.813 238.863, 448.634 239.310, 448.799 239.471 C 449.703 240.358, 447.438 245.297, 445.388 246.910 C 444.074 247.943, 443 249.061, 443 249.394 C 443 250.244, 447.273 250.123, 448.591 249.235 C 449.915 248.343, 452.466 233.111, 451.449 232.169 C 451.051 231.801, 450.525 232.063, 450.280 232.750 C 449.727 234.297, 446.849 234.324, 438.025 232.867 C 432.930 232.026, 431.300 231.382, 431.689 230.367 C 431.978 229.615, 431.746 229, 431.174 229 C 430.603 229, 429.917 229.787, 429.651 230.750 M 71 232.339 C 71 234.360, 54.086 236.758, 52.938 234.900 C 52.482 234.162, 51.805 233.862, 51.434 234.233 C 50.469 235.198, 51.936 244, 53.061 244 C 53.578 244, 54 243.374, 54 242.608 C 54 240.979, 56.064 240.401, 65.250 239.459 C 69.966 238.976, 72 239.103, 72 239.884 C 72 240.498, 72.450 241, 73 241 C 74.105 241, 74.308 236.752, 73.370 233.250 C 72.717 230.815, 71 230.155, 71 232.339 M 67.315 246.007 C 64.720 247.053, 63.503 249.174, 62.586 254.250 C 62.031 257.326, 61.488 258, 59.562 258 C 56.231 258, 55.508 255.156, 57.986 251.805 C 60.184 248.832, 59.665 248.416, 55.657 249.940 C 53.412 250.794, 53.259 251.216, 54.003 254.513 C 56.295 264.676, 64.881 264.626, 67.468 254.435 C 68.607 249.949, 68.984 249.500, 71.611 249.500 C 75.822 249.500, 76.241 253.596, 72.348 256.711 L 69.500 258.990 73.088 258.995 C 76.653 259, 76.677 258.972, 76.847 254.464 C 76.984 250.839, 76.524 249.433, 74.555 247.464 C 71.931 244.840, 70.785 244.609, 67.315 246.007 M 427.951 255.176 C 424.137 257.496, 422 261.911, 422 267.475 C 422 271.758, 422.191 272.088, 425 272.650 C 426.650 272.980, 428 273.869, 428 274.625 C 428 277.597, 429.814 275.773, 430.827 271.782 C 431.938 267.407, 431.536 265.515, 430.017 267.972 C 429.313 269.112, 428.644 269.159, 426.572 268.215 C 423.816 266.959, 423.362 265.060, 425.061 261.886 C 428.715 255.058, 443 259.035, 443 266.880 C 443 270.228, 439.115 274, 435.665 274 C 434.409 274, 433.972 274.351, 434.550 274.895 C 435.860 276.128, 442.112 277.367, 441.823 276.336 C 441.694 275.876, 442.356 274.060, 443.294 272.300 C 445.458 268.241, 445.486 261.671, 443.354 258.417 C 441.539 255.648, 436.228 253.032, 432.925 253.281 C 431.759 253.368, 429.521 254.221, 427.951 255.176 M 77 262.071 C 77 263.211, 76.438 264.770, 75.750 265.537 C 72.771 268.859, 72 269.979, 72 270.988 C 72 271.577, 70.674 271.079, 69.052 269.881 C 66.277 267.828, 65.960 267.796, 63.628 269.324 C 59.899 271.767, 59.541 274.426, 62.079 280.817 C 64.867 287.836, 64.756 287.707, 66.260 285.699 C 66.942 284.788, 70.592 282.929, 74.372 281.567 C 78.151 280.204, 81.482 278.852, 81.773 278.561 C 82.064 278.269, 82.895 278.812, 83.619 279.766 C 84.774 281.286, 84.940 281.302, 84.968 279.899 C 85.015 277.554, 82.934 272, 82.009 272 C 81.572 272, 80.977 272.618, 80.687 273.374 C 80.396 274.130, 78.773 275.232, 77.080 275.822 C 72.951 277.262, 73.043 275.728, 77.415 270.229 C 80.498 266.352, 80.707 265.684, 79.686 262.979 C 78.385 259.533, 77 259.065, 77 262.071 M 64.571 274.571 C 62.775 276.368, 62.527 278.589, 64.020 279.512 C 65.494 280.423, 72 278.068, 72 276.622 C 72 273.213, 67.243 271.900, 64.571 274.571 M 416.685 279.534 C 414.552 284.008, 414.405 286.739, 416.386 285.094 C 418.443 283.387, 433.773 289.734, 434.275 292.500 C 434.546 293.990, 435.201 293.253, 436.844 289.608 C 438.881 285.093, 439.013 281.743, 437.028 284.954 C 435.744 287.033, 419.372 280.144, 419.794 277.702 C 420.303 274.755, 418.441 275.852, 416.685 279.534 M 81 284.799 C 81 285.239, 82.504 286.142, 84.343 286.807 C 87.059 287.789, 90 291.283, 90 293.527 C 90 293.765, 88.229 294.863, 86.064 295.968 L 82.127 297.976 81.457 295.863 C 81.041 294.553, 81.291 293.438, 82.114 292.930 C 82.844 292.478, 83.099 291.766, 82.681 291.347 C 81.777 290.444, 76.729 293.312, 76.147 295.060 C 75.923 295.730, 76.213 295.987, 76.790 295.630 C 77.367 295.273, 78.597 295.740, 79.523 296.666 C 81.102 298.245, 80.974 298.470, 77.470 300.268 C 72.867 302.629, 71.715 301.504, 72.334 295.250 C 72.797 290.569, 72.179 290.040, 69.591 292.899 C 67.955 294.707, 68.044 295.137, 71.449 301.899 C 73.416 305.805, 75.455 309, 75.981 309 C 76.507 309, 76.710 308.407, 76.432 307.683 C 75.692 305.755, 92.016 297.408, 93.099 299.160 C 93.535 299.865, 94.163 300.170, 94.495 299.838 C 94.828 299.506, 93.403 295.806, 91.330 291.617 C 87.780 284.441, 87.371 284, 84.281 284 C 82.476 284, 81 284.360, 81 284.799 M 408.555 296.458 C 404.696 303.762, 404.653 303.959, 406.462 305.958 C 409.085 308.856, 410.066 308.487, 408.868 305.052 C 408.102 302.853, 408.188 301.393, 409.210 299.302 C 410.705 296.244, 412.796 296.064, 416.817 298.646 C 418.678 299.841, 418.900 300.416, 417.944 301.567 C 417.290 302.355, 416.135 303, 415.378 303 C 413.089 303, 413.820 304.463, 417.069 306.382 C 420.364 308.328, 422.019 307.933, 420.125 305.651 C 419.100 304.415, 419.490 301, 420.657 301 C 422.233 301, 427 304.285, 427 305.371 C 427 307.052, 424.156 309.563, 421.250 310.449 C 419.163 311.085, 418.053 312.983, 419.750 313.014 C 420.163 313.021, 421.464 313.286, 422.643 313.602 C 424.489 314.098, 425.337 313.127, 428.755 306.604 C 432.360 299.724, 432.530 299.077, 430.612 299.527 C 427.961 300.150, 414 292.534, 414 290.466 C 414 287.439, 412.378 289.224, 408.555 296.458 M 400.557 310.223 C 398.579 313.047, 398.578 314.099, 400.555 313.340 C 401.890 312.828, 413.600 319.740, 412.777 320.553 C 412.291 321.033, 402.697 321.857, 396.750 321.930 C 393.587 321.968, 391 322.425, 391 322.945 C 391 323.465, 394.375 326.489, 398.500 329.664 C 403.406 333.440, 406.011 336.140, 406.032 337.469 C 406.060 339.308, 406.296 339.235, 408.532 336.694 C 411.175 333.690, 412.014 330.913, 409.698 332.835 C 408.722 333.646, 406.910 332.928, 402.448 329.961 L 396.500 326.006 406.682 326.003 C 416.778 326, 416.881 325.975, 418.932 323.096 C 421.603 319.344, 421.538 318.827, 418.488 319.592 C 416.524 320.085, 414.725 319.286, 410.238 315.928 C 404.027 311.280, 402.865 310.027, 403.625 308.798 C 404.800 306.897, 401.964 308.214, 400.557 310.223 M 99.846 310.487 C 98.784 311.549, 82.537 314.101, 80.341 313.550 C 77.545 312.848, 77.467 313.290, 79.716 317.096 C 81.492 320.104, 83.652 321.141, 82.638 318.500 C 82.322 317.675, 82.279 317, 82.544 317 C 82.809 317, 86.180 316.126, 90.036 315.057 C 97.618 312.956, 97.614 312.949, 92.608 319.500 C 88.757 324.540, 87.876 325.142, 86.284 323.820 C 84.229 322.116, 84.716 324.416, 87.250 328.388 C 89.652 332.153, 91 332.921, 91 330.524 C 91 329.712, 93.700 325.273, 97 320.660 C 100.300 316.046, 103 311.761, 103 311.136 C 103 310.009, 100.781 309.552, 99.846 310.487 M 109.590 323.373 C 109.908 324.202, 107.818 326.676, 104.308 329.623 C 101.114 332.305, 98.208 334.903, 97.851 335.396 C 97.494 335.888, 96.525 336.032, 95.699 335.715 C 92.783 334.596, 93.002 336.407, 96.179 339.684 C 99.804 343.425, 101.038 343.860, 100.328 341.148 C 99.725 338.839, 112.202 328.480, 114.518 329.368 C 116.806 330.246, 116.278 328.295, 113.335 324.991 C 110.531 321.845, 108.700 321.053, 109.590 323.373 M 386 330 C 386 330.550, 385.358 331, 384.573 331 C 382.758 331, 379 335.721, 379 338 C 379 338.952, 379.933 340.916, 381.073 342.365 C 383.466 345.408, 387.107 345.791, 391.728 343.486 C 395.258 341.725, 398 342.418, 398 345.072 C 398 347.403, 395.005 349.076, 392.162 348.332 C 389.426 347.617, 389.355 349.116, 392.045 350.796 C 393.787 351.884, 394.526 351.762, 397.042 349.970 C 400.467 347.531, 401.644 344.071, 400.056 341.105 C 398.580 338.347, 394.687 337.478, 390.043 338.869 C 387.967 339.491, 385.581 340, 384.741 340 C 382.680 340, 381.772 337.295, 383.039 334.928 C 384.130 332.888, 388.438 332.281, 389.510 334.016 C 389.856 334.575, 390.591 334.753, 391.144 334.411 C 391.735 334.045, 391.223 332.801, 389.901 331.395 C 387.533 328.874, 386 328.326, 386 330 M 113.500 340 C 109.628 343.901, 105.690 347, 104.603 347 C 102.774 347, 102.799 347.157, 105 349.500 C 107.671 352.343, 109.518 352.792, 108.589 350.372 C 108.171 349.282, 109.501 347.103, 112.616 343.773 C 116.255 339.882, 117.144 339.312, 116.701 341.150 C 116.390 342.443, 115.835 347.100, 115.469 351.500 C 114.822 359.258, 114.881 359.568, 117.409 361.750 C 120.719 364.608, 121.183 364.576, 120.422 361.543 C 119.918 359.536, 120.765 358.071, 125.048 353.543 C 128.732 349.648, 131.046 348, 132.832 348 L 135.374 348 132.437 344.921 C 129.524 341.867, 129.497 341.861, 129.185 344.171 C 129.011 345.452, 126.889 348.750, 124.470 351.500 L 120.071 356.500 120.688 344.750 C 121.028 338.288, 121.113 333, 120.876 333 C 120.640 333, 117.320 336.150, 113.500 340 M 370.432 344.499 C 366.647 347.868, 366.593 348.001, 369 348.055 C 372.071 348.125, 381.630 359.037, 381.262 362.052 C 381.131 363.123, 381.301 364, 381.641 364 C 382.802 364, 389.829 357.162, 389.256 356.589 C 388.941 356.275, 388.146 356.464, 387.488 357.010 C 386.630 357.722, 384.531 356.019, 380.047 350.974 C 374.884 345.165, 374.012 343.690, 375.023 342.473 C 377.331 339.691, 374.361 341.002, 370.432 344.499 M 360.892 352.602 C 354.374 355.310, 353.210 361.942, 358.630 365.493 C 360.862 366.956, 361.880 367.053, 365.037 366.107 C 369.698 364.711, 372 365.515, 372 368.540 C 372 371.329, 368.971 372.590, 366.038 371.020 C 363.507 369.666, 363.405 371.008, 365.828 373.801 L 367.655 375.909 371.382 372.836 C 374.418 370.335, 375.053 369.202, 374.805 366.731 C 374.620 364.892, 373.515 362.978, 372 361.871 C 369.840 360.293, 368.911 360.196, 365.176 361.162 C 361.581 362.092, 360.595 362.023, 359.323 360.752 C 356.989 358.417, 358.500 355, 361.867 355 C 363.370 355, 365.133 355.533, 365.783 356.183 C 367.600 358, 368.214 356.564, 366.877 353.629 C 365.498 350.602, 365.644 350.628, 360.892 352.602 M 135.177 355.750 C 133.635 357.262, 131.094 360.209, 129.531 362.298 C 127.969 364.386, 126.129 365.880, 125.443 365.616 C 122.927 364.651, 123.110 366.362, 125.768 368.648 C 128.885 371.328, 132.071 371.996, 130.034 369.541 C 129.050 368.356, 129.544 367.048, 132.661 362.580 C 137.591 355.515, 140.013 354.123, 143.455 356.378 C 146.948 358.667, 146.676 360.493, 141.763 367.737 C 138.580 372.430, 137.088 373.845, 135.763 373.425 C 131.798 372.166, 135.017 375.945, 140.920 379.478 C 141.987 380.117, 142.179 379.909, 141.692 378.641 C 141.271 377.542, 142.606 374.674, 145.523 370.414 C 151.398 361.832, 151.309 359.034, 145.027 354.704 C 141.489 352.265, 138.396 352.594, 135.177 355.750 M 252.275 387.909 C 250.072 392.362, 250.403 393.850, 253.063 391.443 C 254.233 390.384, 256.265 389.981, 259.376 390.191 L 263.965 390.500 257.982 402.218 C 254.692 408.663, 252 414.400, 252 414.968 C 252 417.666, 255.197 415.548, 256.666 411.877 C 257.574 409.609, 260.632 403.071, 263.462 397.347 C 266.293 391.624, 268.397 386.730, 268.138 386.471 C 267.879 386.212, 265.132 386, 262.033 386 C 258.935 386, 255.921 385.521, 255.336 384.936 C 254.584 384.184, 253.687 385.056, 252.275 387.909 M 283.488 384.896 C 282.944 385.430, 280.730 386.009, 278.566 386.183 C 274.366 386.521, 274.194 386.782, 272.632 395.136 C 272.018 398.419, 272.190 398.831, 274.406 399.387 C 279.477 400.660, 281.610 406.124, 278.965 411.066 C 277.839 413.170, 274.052 413.652, 272.313 411.913 C 271.530 411.130, 271.038 411.130, 270.554 411.913 C 269.392 413.792, 270.989 415, 274.636 415 C 284.472 415, 287.595 400.636, 278.682 396.386 C 275.961 395.088, 275.406 394.325, 275.776 392.391 C 276.150 390.437, 276.845 390, 279.581 390 C 281.936 390, 283.256 389.390, 284.030 387.945 C 285.332 385.511, 284.965 383.444, 283.488 384.896 M 217 386.933 C 217 387.446, 217.856 388.137, 218.902 388.469 C 220.290 388.909, 220.898 390.212, 221.152 393.286 C 221.712 400.073, 221.099 402.741, 218.843 403.331 C 215.080 404.315, 218.057 406, 223.559 406 C 227.729 406, 229 405.650, 229 404.500 C 229 403.667, 228.111 403, 227 403 C 225.192 403, 225 402.333, 225 396.067 C 225 390.013, 225.253 389.054, 227 388.500 C 230.917 387.257, 228.907 386, 223 386 C 219.700 386, 217 386.420, 217 386.933 M 234 386.933 C 234 387.446, 234.900 388.151, 236 388.500 C 237.747 389.054, 238 390.013, 238 396.067 C 238 402.426, 237.827 403, 235.917 403 C 234.694 403, 234.006 403.517, 234.250 404.250 C 234.755 405.765, 245.980 406.003, 246.040 404.500 C 246.061 403.950, 245.161 403.356, 244.040 403.180 C 242.216 402.895, 242 402.134, 242 395.998 C 242 390.013, 242.256 389.054, 244 388.500 C 247.917 387.257, 245.907 386, 240 386 C 236.700 386, 234 386.420, 234 386.933 M 5 451.480 C 5 470.913, 5.285 475.695, 6.651 479.230 C 9.251 485.957, 12.551 489.642, 18.486 492.450 C 23.081 494.624, 25.426 495.057, 32.743 495.082 C 47.206 495.132, 54.765 491.252, 59.672 481.258 L 62.500 475.500 62.815 451.750 L 63.131 428 57.631 428 L 52.131 428 51.810 451.750 C 51.532 472.400, 51.251 475.962, 49.661 479.038 C 46.988 484.208, 42.192 487.090, 35.307 487.662 C 27.343 488.325, 21.424 485.332, 18.250 479.038 C 16.109 474.792, 16 473.450, 16 451.288 L 16 428 10.500 428 L 5 428 5 451.480 M 85.237 461.250 L 85.500 494.500 90.250 494.805 L 95 495.110 95 467.945 L 95 440.781 101.250 450.049 C 108.936 461.447, 108.017 460.169, 122.238 479.250 L 133.975 495 138.988 495 L 144 495 144 461.500 L 144 428 138.914 428 L 133.828 428 134.164 454.250 L 134.500 480.500 128.479 471.500 C 125.168 466.550, 116.661 454.738, 109.574 445.250 L 96.690 428 90.832 428 L 84.973 428 85.237 461.250 M 167 461.552 L 167 495.105 172.250 494.802 L 177.500 494.500 177.763 461.250 L 178.027 428 172.513 428 L 167 428 167 461.552" stroke="none" fill="#575756" fill-rule="evenodd"/><path d="" stroke="none" fill="#545454" fill-rule="evenodd"/><path d="" stroke="none" fill="#e43c1b" fill-rule="evenodd"/></svg>